<svg xmlns:xlink="http://www.w3.org/1999/xlink" xmlns="http://www.w3.org/2000/svg" viewBox="0 0 1080 680" width="1080" height="680" preserveAspectRatio="xMidYMid meet" style={{width: "100%", height: "100%", transform: "translate3d(0px, 0px, 0px)"}}><defs><clipPath id="__lottie_element_994"><rect width="1080" height="680" x="0" y="0"></rect></clipPath><linearGradient id="__lottie_element_998" spreadMethod="pad" gradientUnits="userSpaceOnUse" x1="0" y1="-170" x2="0" y2="170"><stop offset="0%" stop-color="rgb(51,51,51)" stop-opacity="0"></stop><stop offset="50%" stop-color="rgb(51,51,51)" stop-opacity="0.5"></stop><stop offset="100%" stop-color="rgb(51,51,51)" stop-opacity="1"></stop></linearGradient><clipPath id="__lottie_element_1000"><path d="M0,0 L32,0 L32,640 L0,640z"></path></clipPath><clipPath id="__lottie_element_1004"><path d="M0,0 L32,0 L32,640 L0,640z"></path></clipPath><clipPath id="__lottie_element_1008"><path d="M0,0 L240,0 L240,304 L0,304z"></path></clipPath><clipPath id="__lottie_element_1012"><path d="M0,0 L336,0 L336,400 L0,400z"></path></clipPath><linearGradient id="__lottie_element_1018" spreadMethod="pad" gradientUnits="userSpaceOnUse" x1="0" y1="-160" x2="0" y2="160"><stop offset="0%" stop-color="rgb(51,51,51)" stop-opacity="1"></stop><stop offset="50%" stop-color="rgb(51,51,51)" stop-opacity="0.800000011920929"></stop><stop offset="100%" stop-color="rgb(51,51,51)" stop-opacity="0.6000000238418579"></stop></linearGradient><linearGradient id="__lottie_element_1022" spreadMethod="pad" gradientUnits="userSpaceOnUse" x1="0" y1="-32" x2="0" y2="32"><stop offset="0%" stop-color="rgb(255,255,255)" stop-opacity="1"></stop><stop offset="50%" stop-color="rgb(255,255,255)" stop-opacity="0.699999988079071"></stop><stop offset="100%" stop-color="rgb(255,255,255)" stop-opacity="0.4000000059604645"></stop></linearGradient><linearGradient id="__lottie_element_1026" spreadMethod="pad" gradientUnits="userSpaceOnUse" x1="0" y1="-160" x2="0" y2="160"><stop offset="0%" stop-color="rgb(51,51,51)" stop-opacity="1"></stop><stop offset="50%" stop-color="rgb(51,51,51)" stop-opacity="0.800000011920929"></stop><stop offset="100%" stop-color="rgb(51,51,51)" stop-opacity="0.6000000238418579"></stop></linearGradient><linearGradient id="__lottie_element_1030" spreadMethod="pad" gradientUnits="userSpaceOnUse" x1="0" y1="-18" x2="0" y2="18"><stop offset="0%" stop-color="rgb(65,214,115)" stop-opacity="1"></stop><stop offset="50%" stop-color="rgb(65,214,115)" stop-opacity="0.5"></stop><stop offset="100%" stop-color="rgb(65,214,115)" stop-opacity="0"></stop></linearGradient><linearGradient id="__lottie_element_1034" spreadMethod="pad" gradientUnits="userSpaceOnUse" x1="0" y1="-18" x2="0" y2="18"><stop offset="0%" stop-color="rgb(65,214,115)" stop-opacity="1"></stop><stop offset="50%" stop-color="rgb(65,214,115)" stop-opacity="0.5"></stop><stop offset="100%" stop-color="rgb(65,214,115)" stop-opacity="0"></stop></linearGradient><filter id="__lottie_element_1058" x="-100%" y="-100%" width="300%" height="300%"><feGaussianBlur stdDeviation="2.4 2.4" edgeMode="duplicate"></feGaussianBlur></filter><linearGradient id="__lottie_element_1059" spreadMethod="pad" gradientUnits="userSpaceOnUse" x1="0" y1="-6" x2="0" y2="6"><stop offset="0%" stop-color="rgb(65,214,115)" stop-opacity="1"></stop><stop offset="50%" stop-color="rgb(65,214,115)" stop-opacity="0.5"></stop><stop offset="100%" stop-color="rgb(65,214,115)" stop-opacity="0"></stop></linearGradient><filter id="__lottie_element_1062" x="-100%" y="-100%" width="300%" height="300%"><feGaussianBlur stdDeviation="1.2 1.2" edgeMode="duplicate"></feGaussianBlur></filter><linearGradient id="__lottie_element_1063" spreadMethod="pad" gradientUnits="userSpaceOnUse" x1="0" y1="-12" x2="0" y2="12"><stop offset="0%" stop-color="rgb(65,214,115)" stop-opacity="1"></stop><stop offset="50%" stop-color="rgb(65,214,115)" stop-opacity="0.5"></stop><stop offset="100%" stop-color="rgb(65,214,115)" stop-opacity="0"></stop></linearGradient><filter id="__lottie_element_1066" x="-100%" y="-100%" width="300%" height="300%"><feGaussianBlur stdDeviation="2.4 2.4" edgeMode="duplicate"></feGaussianBlur></filter><linearGradient id="__lottie_element_1067" spreadMethod="pad" gradientUnits="userSpaceOnUse" x1="0" y1="-6" x2="0" y2="6"><stop offset="0%" stop-color="rgb(65,214,115)" stop-opacity="1"></stop><stop offset="50%" stop-color="rgb(65,214,115)" stop-opacity="0.5"></stop><stop offset="100%" stop-color="rgb(65,214,115)" stop-opacity="0"></stop></linearGradient><filter id="__lottie_element_1070" x="-100%" y="-100%" width="300%" height="300%"><feGaussianBlur stdDeviation="2.4 2.4" edgeMode="duplicate"></feGaussianBlur></filter><linearGradient id="__lottie_element_1071" spreadMethod="pad" gradientUnits="userSpaceOnUse" x1="0" y1="-6" x2="0" y2="6"><stop offset="0%" stop-color="rgb(65,214,115)" stop-opacity="1"></stop><stop offset="50%" stop-color="rgb(65,214,115)" stop-opacity="0.5"></stop><stop offset="100%" stop-color="rgb(65,214,115)" stop-opacity="0"></stop></linearGradient><filter id="__lottie_element_1074" x="-100%" y="-100%" width="300%" height="300%"><feGaussianBlur stdDeviation="1.2 1.2" edgeMode="duplicate"></feGaussianBlur></filter><linearGradient id="__lottie_element_1075" spreadMethod="pad" gradientUnits="userSpaceOnUse" x1="0" y1="-12" x2="0" y2="12"><stop offset="0%" stop-color="rgb(65,214,115)" stop-opacity="1"></stop><stop offset="50%" stop-color="rgb(65,214,115)" stop-opacity="0.5"></stop><stop offset="100%" stop-color="rgb(65,214,115)" stop-opacity="0"></stop></linearGradient><linearGradient id="__lottie_element_1079" spreadMethod="pad" gradientUnits="userSpaceOnUse" x1="0" y1="-12" x2="0" y2="12"><stop offset="0%" stop-color="rgb(65,214,115)" stop-opacity="1"></stop><stop offset="50%" stop-color="rgb(65,214,115)" stop-opacity="0.5"></stop><stop offset="100%" stop-color="rgb(65,214,115)" stop-opacity="0"></stop></linearGradient><linearGradient id="__lottie_element_998" spreadMethod="pad" gradientUnits="userSpaceOnUse" x1="0" y1="-170" x2="0" y2="170"><stop offset="0%" stop-color="rgb(51,51,51)" stop-opacity="0"></stop><stop offset="50%" stop-color="rgb(51,51,51)" stop-opacity="0.5"></stop><stop offset="100%" stop-color="rgb(51,51,51)" stop-opacity="1"></stop></linearGradient><linearGradient id="__lottie_element_1018" spreadMethod="pad" gradientUnits="userSpaceOnUse" x1="0" y1="-160" x2="0" y2="160"><stop offset="0%" stop-color="rgb(51,51,51)" stop-opacity="1"></stop><stop offset="50%" stop-color="rgb(51,51,51)" stop-opacity="0.800000011920929"></stop><stop offset="100%" stop-color="rgb(51,51,51)" stop-opacity="0.6000000238418579"></stop></linearGradient><linearGradient id="__lottie_element_1022" spreadMethod="pad" gradientUnits="userSpaceOnUse" x1="0" y1="-32" x2="0" y2="32"><stop offset="0%" stop-color="rgb(255,255,255)" stop-opacity="1"></stop><stop offset="50%" stop-color="rgb(255,255,255)" stop-opacity="0.699999988079071"></stop><stop offset="100%" stop-color="rgb(255,255,255)" stop-opacity="0.4000000059604645"></stop></linearGradient><linearGradient id="__lottie_element_1026" spreadMethod="pad" gradientUnits="userSpaceOnUse" x1="0" y1="-160" x2="0" y2="160"><stop offset="0%" stop-color="rgb(51,51,51)" stop-opacity="1"></stop><stop offset="50%" stop-color="rgb(51,51,51)" stop-opacity="0.800000011920929"></stop><stop offset="100%" stop-color="rgb(51,51,51)" stop-opacity="0.6000000238418579"></stop></linearGradient><linearGradient id="__lottie_element_1059" spreadMethod="pad" gradientUnits="userSpaceOnUse" x1="0" y1="-6" x2="0" y2="6"><stop offset="0%" stop-color="rgb(65,214,115)" stop-opacity="1"></stop><stop offset="50%" stop-color="rgb(65,214,115)" stop-opacity="0.5"></stop><stop offset="100%" stop-color="rgb(65,214,115)" stop-opacity="0"></stop></linearGradient><linearGradient id="__lottie_element_1063" spreadMethod="pad" gradientUnits="userSpaceOnUse" x1="0" y1="-12" x2="0" y2="12"><stop offset="0%" stop-color="rgb(65,214,115)" stop-opacity="1"></stop><stop offset="50%" stop-color="rgb(65,214,115)" stop-opacity="0.5"></stop><stop offset="100%" stop-color="rgb(65,214,115)" stop-opacity="0"></stop></linearGradient><linearGradient id="__lottie_element_1030" spreadMethod="pad" gradientUnits="userSpaceOnUse" x1="0" y1="-18" x2="0" y2="18"><stop offset="0%" stop-color="rgb(65,214,115)" stop-opacity="1"></stop><stop offset="50%" stop-color="rgb(65,214,115)" stop-opacity="0.5"></stop><stop offset="100%" stop-color="rgb(65,214,115)" stop-opacity="0"></stop></linearGradient><linearGradient id="__lottie_element_1067" spreadMethod="pad" gradientUnits="userSpaceOnUse" x1="0" y1="-6" x2="0" y2="6"><stop offset="0%" stop-color="rgb(65,214,115)" stop-opacity="1"></stop><stop offset="50%" stop-color="rgb(65,214,115)" stop-opacity="0.5"></stop><stop offset="100%" stop-color="rgb(65,214,115)" stop-opacity="0"></stop></linearGradient><linearGradient id="__lottie_element_1071" spreadMethod="pad" gradientUnits="userSpaceOnUse" x1="0" y1="-6" x2="0" y2="6"><stop offset="0%" stop-color="rgb(65,214,115)" stop-opacity="1"></stop><stop offset="50%" stop-color="rgb(65,214,115)" stop-opacity="0.5"></stop><stop offset="100%" stop-color="rgb(65,214,115)" stop-opacity="0"></stop></linearGradient><linearGradient id="__lottie_element_1075" spreadMethod="pad" gradientUnits="userSpaceOnUse" x1="0" y1="-12" x2="0" y2="12"><stop offset="0%" stop-color="rgb(65,214,115)" stop-opacity="1"></stop><stop offset="50%" stop-color="rgb(65,214,115)" stop-opacity="0.5"></stop><stop offset="100%" stop-color="rgb(65,214,115)" stop-opacity="0"></stop></linearGradient><linearGradient id="__lottie_element_1079" spreadMethod="pad" gradientUnits="userSpaceOnUse" x1="0" y1="-12" x2="0" y2="12"><stop offset="0%" stop-color="rgb(65,214,115)" stop-opacity="1"></stop><stop offset="50%" stop-color="rgb(65,214,115)" stop-opacity="0.5"></stop><stop offset="100%" stop-color="rgb(65,214,115)" stop-opacity="0"></stop></linearGradient><linearGradient id="__lottie_element_1034" spreadMethod="pad" gradientUnits="userSpaceOnUse" x1="0" y1="-18" x2="0" y2="18"><stop offset="0%" stop-color="rgb(65,214,115)" stop-opacity="1"></stop><stop offset="50%" stop-color="rgb(65,214,115)" stop-opacity="0.5"></stop><stop offset="100%" stop-color="rgb(65,214,115)" stop-opacity="0"></stop></linearGradient></defs><g clip-path="url(#__lottie_element_994)"><g transform="matrix(1,0,0,1,540,340)" opacity="1" style={{display: "block"}}><g opacity="1" transform="matrix(2,0,0,2,0,0)"><path fill="url(&quot;#__lottie_element_998&quot;)" fill-opacity="1" d=" M0,-170 C93.822998046875,-170 170,-93.822998046875 170,0 C170,93.822998046875 93.822998046875,170 0,170 C-93.822998046875,170 -170,93.822998046875 -170,0 C-170,-93.822998046875 -93.822998046875,-170 0,-170z"></path></g></g><g clip-path="url(#__lottie_element_1000)" transform="matrix(0.8660253882408142,-0.5,0.5,0.8660253882408142,662.140625,50.871856689453125)" opacity="1" style={{display: "block"}}><g transform="matrix(1,0,0,1,16,320)" opacity="1" style={{display: "block"}}><g opacity="1" transform="matrix(2,0,0,2,0,0)"><path fill="url(&quot;#__lottie_element_1018&quot;)" fill-opacity="1" d=" M8,-156 C8,-158.2075958251953 6.207600116729736,-160 4,-160 C4,-160 -4,-160 -4,-160 C-6.207600116729736,-160 -8,-158.2075958251953 -8,-156 C-8,-156 -8,156 -8,156 C-8,158.2075958251953 -6.207600116729736,160 -4,160 C-4,160 4,160 4,160 C6.207600116729736,160 8,158.2075958251953 8,156 C8,156 8,-156 8,-156z"></path></g></g><g transform="matrix(1,0,0,1,16,64)" opacity="1" style={{display: "block"}}><g opacity="1" transform="matrix(2,0,0,2,0,0)"><path fill="url(&quot;#__lottie_element_1022&quot;)" fill-opacity="1" d=" M8,-28 C8,-28 8,28 8,28 C8,30.207599639892578 6.207600116729736,32 4,32 C4,32 -4,32 -4,32 C-6.207600116729736,32 -8,30.207599639892578 -8,28 C-8,28 -8,-28 -8,-28 C-8,-30.207599639892578 -6.207600116729736,-32 -4,-32 C-4,-32 4,-32 4,-32 C6.207600116729736,-32 8,-30.207599639892578 8,-28z"></path></g></g></g><g clip-path="url(#__lottie_element_1004)" transform="matrix(1,0,0,1,523.0399780273438,19.5880126953125)" opacity="2.4114115149131978e-11" style={{display: "block"}}><g transform="matrix(1,0,0,1,16,320)" opacity="1" style={{display: "block"}}><g opacity="1" transform="matrix(2,0,0,2,0,0)"><path fill="url(&quot;#__lottie_element_1026&quot;)" fill-opacity="1" d=" M8,-156 C8,-158.2075958251953 6.207600116729736,-160 4,-160 C4,-160 -4,-160 -4,-160 C-6.207600116729736,-160 -8,-158.2075958251953 -8,-156 C-8,-156 -8,156 -8,156 C-8,158.2075958251953 -6.207600116729736,160 -4,160 C-4,160 4,160 4,160 C6.207600116729736,160 8,158.2075958251953 8,156 C8,156 8,-156 8,-156z"></path></g></g></g><g clip-path="url(#__lottie_element_1008)" transform="matrix(1,0,0,1,420,-36)" opacity="1" style={{display: "block"}}><g filter="url(#__lottie_element_1058)" style={{display: "block"}} transform="matrix(0.17001819610595703,-0.01701752468943596,0.01701752468943596,0.17001819610595703,152,49.27018356323242)" opacity="0.17086774309659147"><g opacity="1" transform="matrix(2,0,0,2,0,0)"><path fill="url(&quot;#__lottie_element_1059&quot;)" fill-opacity="1" d=" M1.621000051498413,-1.621000051498413 C1.621000051498413,-1.621000051498413 0,-6 0,-6 C0,-6 -1.621000051498413,-1.621000051498413 -1.621000051498413,-1.621000051498413 C-1.621000051498413,-1.621000051498413 -6,0 -6,0 C-6,0 -1.621000051498413,1.621000051498413 -1.621000051498413,1.621000051498413 C-1.621000051498413,1.621000051498413 0,6 0,6 C0,6 1.621000051498413,1.621000051498413 1.621000051498413,1.621000051498413 C1.621000051498413,1.621000051498413 6,0 6,0 C6,0 1.621000051498413,-1.621000051498413 1.621000051498413,-1.621000051498413z"></path></g></g><g filter="url(#__lottie_element_1062)" style={{display: "block"}} transform="matrix(0.04580110311508179,-0.0004856415616814047,0.0004856415616814047,0.04580110311508179,84,92.13500213623047)" opacity="0.04580367602025533"><g opacity="1" transform="matrix(2,0,0,2,0,0)"><path fill="url(&quot;#__lottie_element_1063&quot;)" fill-opacity="1" d=" M3.240999937057495,-3.240999937057495 C3.240999937057495,-3.240999937057495 0,-12 0,-12 C0,-12 -3.240999937057495,-3.240999937057495 -3.240999937057495,-3.240999937057495 C-3.240999937057495,-3.240999937057495 -12,0 -12,0 C-12,0 -3.240999937057495,3.240999937057495 -3.240999937057495,3.240999937057495 C-3.240999937057495,3.240999937057495 0,12 0,12 C0,12 3.240999937057495,3.240999937057495 3.240999937057495,3.240999937057495 C3.240999937057495,3.240999937057495 12,0 12,0 C12,0 3.240999937057495,-3.240999937057495 3.240999937057495,-3.240999937057495z"></path></g></g><g style={{display: "none"}} transform="matrix(0.0026811028365045786,0,0,0.0026811028365045786,144,152.0015106201172)" opacity="0.0026811028211342603"><g opacity="1" transform="matrix(2,0,0,2,0,0)"><path fill="url(&quot;#__lottie_element_1030&quot;)" fill-opacity="1" d=" M4.861999988555908,-4.861999988555908 C4.861999988555908,-4.861999988555908 0,-18 0,-18 C0,-18 -4.861999988555908,-4.861999988555908 -4.861999988555908,-4.861999988555908 C-4.861999988555908,-4.861999988555908 -18,0 -18,0 C-18,0 -4.861999988555908,4.861999988555908 -4.861999988555908,4.861999988555908 C-4.861999988555908,4.861999988555908 0,18 0,18 C0,18 4.861999988555908,4.861999988555908 4.861999988555908,4.861999988555908 C4.861999988555908,4.861999988555908 18,0 18,0 C18,0 4.861999988555908,-4.861999988555908 4.861999988555908,-4.861999988555908z"></path></g></g></g><g clip-path="url(#__lottie_element_1012)" transform="matrix(1,0,0,1,36,20)" opacity="1" style={{display: "block"}}><g filter="url(#__lottie_element_1066)" style={{display: "block"}} transform="matrix(0.23624658584594727,-0.023646481335163116,0.023646481335163116,0.23624658584594727,168,73.27018737792969)" opacity="0.23742706339436553"><g opacity="1" transform="matrix(2,0,0,2,0,0)"><path fill="url(&quot;#__lottie_element_1067&quot;)" fill-opacity="1" d=" M1.621000051498413,-1.621000051498413 C1.621000051498413,-1.621000051498413 0,-6 0,-6 C0,-6 -1.621000051498413,-1.621000051498413 -1.621000051498413,-1.621000051498413 C-1.621000051498413,-1.621000051498413 -6,0 -6,0 C-6,0 -1.621000051498413,1.621000051498413 -1.621000051498413,1.621000051498413 C-1.621000051498413,1.621000051498413 0,6 0,6 C0,6 1.621000051498413,1.621000051498413 1.621000051498413,1.621000051498413 C1.621000051498413,1.621000051498413 6,0 6,0 C6,0 1.621000051498413,-1.621000051498413 1.621000051498413,-1.621000051498413z"></path></g></g><g filter="url(#__lottie_element_1070)" style={{display: "block"}} transform="matrix(0.23624658584594727,-0.023646481335163116,0.023646481335163116,0.23624658584594727,96,97.27018737792969)" opacity="0.23742706339436553"><g opacity="1" transform="matrix(2,0,0,2,0,0)"><path fill="url(&quot;#__lottie_element_1071&quot;)" fill-opacity="1" d=" M1.621000051498413,-1.621000051498413 C1.621000051498413,-1.621000051498413 0,-6 0,-6 C0,-6 -1.621000051498413,-1.621000051498413 -1.621000051498413,-1.621000051498413 C-1.621000051498413,-1.621000051498413 -6,0 -6,0 C-6,0 -1.621000051498413,1.621000051498413 -1.621000051498413,1.621000051498413 C-1.621000051498413,1.621000051498413 0,6 0,6 C0,6 1.621000051498413,1.621000051498413 1.621000051498413,1.621000051498413 C1.621000051498413,1.621000051498413 6,0 6,0 C6,0 1.621000051498413,-1.621000051498413 1.621000051498413,-1.621000051498413z"></path></g></g><g filter="url(#__lottie_element_1074)" style={{display: "block"}} transform="matrix(0.06081489101052284,-0.0006448368658311665,0.0006448368658311665,0.06081489101052284,228,140.13499450683594)" opacity="0.06081830902000235"><g opacity="1" transform="matrix(2,0,0,2,0,0)"><path fill="url(&quot;#__lottie_element_1075&quot;)" fill-opacity="1" d=" M3.240999937057495,-3.240999937057495 C3.240999937057495,-3.240999937057495 0,-12 0,-12 C0,-12 -3.240999937057495,-3.240999937057495 -3.240999937057495,-3.240999937057495 C-3.240999937057495,-3.240999937057495 -12,0 -12,0 C-12,0 -3.240999937057495,3.240999937057495 -3.240999937057495,3.240999937057495 C-3.240999937057495,3.240999937057495 0,12 0,12 C0,12 3.240999937057495,3.240999937057495 3.240999937057495,3.240999937057495 C3.240999937057495,3.240999937057495 12,0 12,0 C12,0 3.240999937057495,-3.240999937057495 3.240999937057495,-3.240999937057495z"></path></g></g><g style={{display: "block"}} transform="matrix(0.06081489101052284,-0.0006448368658311665,0.0006448368658311665,0.06081489101052284,124,140.13499450683594)" opacity="0.06081830902000235"><g opacity="1" transform="matrix(2,0,0,2,0,0)"><path fill="url(&quot;#__lottie_element_1079&quot;)" fill-opacity="1" d=" M3.240999937057495,-3.240999937057495 C3.240999937057495,-3.240999937057495 0,-12 0,-12 C0,-12 -3.240999937057495,-3.240999937057495 -3.240999937057495,-3.240999937057495 C-3.240999937057495,-3.240999937057495 -12,0 -12,0 C-12,0 -3.240999937057495,3.240999937057495 -3.240999937057495,3.240999937057495 C-3.240999937057495,3.240999937057495 0,12 0,12 C0,12 3.240999937057495,3.240999937057495 3.240999937057495,3.240999937057495 C3.240999937057495,3.240999937057495 12,0 12,0 C12,0 3.240999937057495,-3.240999937057495 3.240999937057495,-3.240999937057495z"></path></g></g><g style={{display: "none"}} transform="matrix(0.0033133781980723143,0,0,0.0033133781980723143,208,224.0015106201172)" opacity="0.0033133779488714768"><g opacity="1" transform="matrix(2,0,0,2,0,0)"><path fill="url(&quot;#__lottie_element_1034&quot;)" fill-opacity="1" d=" M4.861999988555908,-4.861999988555908 C4.861999988555908,-4.861999988555908 0,-18 0,-18 C0,-18 -4.861999988555908,-4.861999988555908 -4.861999988555908,-4.861999988555908 C-4.861999988555908,-4.861999988555908 -18,0 -18,0 C-18,0 -4.861999988555908,4.861999988555908 -4.861999988555908,4.861999988555908 C-4.861999988555908,4.861999988555908 0,18 0,18 C0,18 4.861999988555908,4.861999988555908 4.861999988555908,4.861999988555908 C4.861999988555908,4.861999988555908 18,0 18,0 C18,0 4.861999988555908,-4.861999988555908 4.861999988555908,-4.861999988555908z"></path></g></g></g></g></svg>