<svg xmlns:xlink="http://www.w3.org/1999/xlink" xmlns="http://www.w3.org/2000/svg" viewBox="0 0 480 480" width="480" height="480" preserveAspectRatio="xMidYMid meet" style="width: 100%; height: 100%; transform: translate3d(0px, 0px, 0px);"><defs><clipPath id="__lottie_element_1044"><rect width="480" height="480" x="0" y="0"></rect></clipPath><clipPath id="__lottie_element_1046"><path d="M0,0 L460,0 L460,460 L0,460z"></path></clipPath><clipPath id="__lottie_element_1050"><path d="M0,0 L420,0 L420,420 L0,420z"></path></clipPath><clipPath id="__lottie_element_1054"><path d="M0,0 L97,0 L97,56 L0,56z"></path></clipPath><clipPath id="__lottie_element_1058"><path d="M0,0 L97,0 L97,56 L0,56z"></path></clipPath><clipPath id="__lottie_element_1062"><path d="M0,0 L97,0 L97,56 L0,56z"></path></clipPath><linearGradient id="__lottie_element_1068" spreadMethod="pad" gradientUnits="userSpaceOnUse" x1="-71.01300048828125" y1="-41" x2="71.01499938964844" y2="41"><stop offset="0%" stop-color="rgb(139,84,255)" stop-opacity="0.4000000059604645"></stop><stop offset="50%" stop-color="rgb(139,84,255)" stop-opacity="0.699999988079071"></stop><stop offset="100%" stop-color="rgb(139,84,255)" stop-opacity="1"></stop></linearGradient><clipPath id="__lottie_element_1070"><path d="M0,0 L156,0 L156,270 L0,270z"></path></clipPath><clipPath id="__lottie_element_1074"><path d="M0,0 L156,0 L156,330 L0,330z"></path></clipPath><clipPath id="__lottie_element_1078"><path d="M0,0 L156,0 L156,270 L0,270z"></path></clipPath><clipPath id="__lottie_element_1082"><path d="M0,0 L156,0 L156,270 L0,270z"></path></clipPath><clipPath id="__lottie_element_1092"><path d="M0,0 L156,0 L156,330 L0,330z"></path></clipPath><clipPath id="__lottie_element_1102"><path d="M0,0 L156,0 L156,270 L0,270z"></path></clipPath><linearGradient id="__lottie_element_1869" spreadMethod="pad" gradientUnits="userSpaceOnUse" x1="-0.0020000000949949026" y1="-56.25" x2="-0.0020000000949949026" y2="56.25"><stop offset="0%" stop-color="rgb(139,84,255)"></stop><stop offset="50%" stop-color="rgb(81,53,138)"></stop><stop offset="100%" stop-color="rgb(22,22,22)"></stop></linearGradient><linearGradient id="__lottie_element_1876" spreadMethod="pad" gradientUnits="userSpaceOnUse" x1="-0.0020000000949949026" y1="-56.25" x2="-0.0020000000949949026" y2="56.25"><stop offset="0%" stop-color="rgb(139,84,255)"></stop><stop offset="50%" stop-color="rgb(81,53,138)"></stop><stop offset="100%" stop-color="rgb(22,22,22)"></stop></linearGradient><linearGradient id="__lottie_element_1880" spreadMethod="pad" gradientUnits="userSpaceOnUse" x1="-0.0020000000949949026" y1="-71.25" x2="-0.0020000000949949026" y2="71.25"><stop offset="0%" stop-color="rgb(139,84,255)"></stop><stop offset="50%" stop-color="rgb(81,53,138)"></stop><stop offset="100%" stop-color="rgb(22,22,22)"></stop></linearGradient><linearGradient id="__lottie_element_1887" spreadMethod="pad" gradientUnits="userSpaceOnUse" x1="-0.0020000000949949026" y1="-71.25" x2="-0.0020000000949949026" y2="71.25"><stop offset="0%" stop-color="rgb(139,84,255)"></stop><stop offset="50%" stop-color="rgb(81,53,138)"></stop><stop offset="100%" stop-color="rgb(22,22,22)"></stop></linearGradient><linearGradient id="__lottie_element_1891" spreadMethod="pad" gradientUnits="userSpaceOnUse" x1="0" y1="-56.25" x2="0" y2="56.25"><stop offset="0%" stop-color="rgb(139,84,255)"></stop><stop offset="50%" stop-color="rgb(81,53,138)"></stop><stop offset="100%" stop-color="rgb(22,22,22)"></stop></linearGradient><linearGradient id="__lottie_element_1898" spreadMethod="pad" gradientUnits="userSpaceOnUse" x1="0" y1="-56.25" x2="0" y2="56.25"><stop offset="0%" stop-color="rgb(139,84,255)"></stop><stop offset="50%" stop-color="rgb(81,53,138)"></stop><stop offset="100%" stop-color="rgb(22,22,22)"></stop></linearGradient><linearGradient id="__lottie_element_1068" spreadMethod="pad" gradientUnits="userSpaceOnUse" x1="-71.01300048828125" y1="-41" x2="71.01499938964844" y2="41"><stop offset="0%" stop-color="rgb(139,84,255)" stop-opacity="0.4000000059604645"></stop><stop offset="50%" stop-color="rgb(139,84,255)" stop-opacity="0.699999988079071"></stop><stop offset="100%" stop-color="rgb(139,84,255)" stop-opacity="1"></stop></linearGradient><linearGradient id="__lottie_element_1869" spreadMethod="pad" gradientUnits="userSpaceOnUse" x1="-0.0020000000949949026" y1="-56.25" x2="-0.0020000000949949026" y2="56.25"><stop offset="0%" stop-color="rgb(139,84,255)"></stop><stop offset="50%" stop-color="rgb(81,53,138)"></stop><stop offset="100%" stop-color="rgb(22,22,22)"></stop></linearGradient><linearGradient id="__lottie_element_1876" spreadMethod="pad" gradientUnits="userSpaceOnUse" x1="-0.0020000000949949026" y1="-56.25" x2="-0.0020000000949949026" y2="56.25"><stop offset="0%" stop-color="rgb(139,84,255)"></stop><stop offset="50%" stop-color="rgb(81,53,138)"></stop><stop offset="100%" stop-color="rgb(22,22,22)"></stop></linearGradient><linearGradient id="__lottie_element_1880" spreadMethod="pad" gradientUnits="userSpaceOnUse" x1="-0.0020000000949949026" y1="-71.25" x2="-0.0020000000949949026" y2="71.25"><stop offset="0%" stop-color="rgb(139,84,255)"></stop><stop offset="50%" stop-color="rgb(81,53,138)"></stop><stop offset="100%" stop-color="rgb(22,22,22)"></stop></linearGradient><linearGradient id="__lottie_element_1887" spreadMethod="pad" gradientUnits="userSpaceOnUse" x1="-0.0020000000949949026" y1="-71.25" x2="-0.0020000000949949026" y2="71.25"><stop offset="0%" stop-color="rgb(139,84,255)"></stop><stop offset="50%" stop-color="rgb(81,53,138)"></stop><stop offset="100%" stop-color="rgb(22,22,22)"></stop></linearGradient><linearGradient id="__lottie_element_1891" spreadMethod="pad" gradientUnits="userSpaceOnUse" x1="0" y1="-56.25" x2="0" y2="56.25"><stop offset="0%" stop-color="rgb(139,84,255)"></stop><stop offset="50%" stop-color="rgb(81,53,138)"></stop><stop offset="100%" stop-color="rgb(22,22,22)"></stop></linearGradient><linearGradient id="__lottie_element_1898" spreadMethod="pad" gradientUnits="userSpaceOnUse" x1="0" y1="-56.25" x2="0" y2="56.25"><stop offset="0%" stop-color="rgb(139,84,255)"></stop><stop offset="50%" stop-color="rgb(81,53,138)"></stop><stop offset="100%" stop-color="rgb(22,22,22)"></stop></linearGradient></defs><g clip-path="url(#__lottie_element_1044)"><g clip-path="url(#__lottie_element_1046)" transform="matrix(1,0,0,1,10.455001831054688,34.5)" opacity="1" style="display: block;"><g clip-path="url(#__lottie_element_1050)" transform="matrix(1,0,0,1,53.489990234375,1.5359954833984375)" opacity="1" style="display: block;"><g transform="matrix(1,0,0,1,209.91700744628906,298)" opacity="1" style="display: block;"><g opacity="1" transform="matrix(2,0,0,2,0,0)"><path stroke="url(&quot;#__lottie_element_1068&quot;)" stroke-linecap="butt" stroke-linejoin="miter" fill-opacity="0" stroke-miterlimit="4" stroke-opacity="1" stroke-width="3px" d=" M-44.67300033569336,-54.529998779296875 C-46.358001708984375,-54.58700180053711 -48.07600021362305,-54.24300003051758 -49.362998962402344,-53.5 C-49.362998962402344,-53.5 -92.66500091552734,-28.5 -92.66500091552734,-28.5 C-92.66500091552734,-28.5 -92.66500091552734,-28.5 -92.66500091552734,-28.5 C-95.05599975585938,-27.118999481201172 -95.05599975585938,-24.881000518798828 -92.66500091552734,-23.5 C-92.66500091552734,-23.5 40.702999114990234,53.5 40.702999114990234,53.5 C43.09400177001953,54.88100051879883 46.97200012207031,54.88100051879883 49.362998962402344,53.5 C49.362998962402344,53.5 92.66500091552734,28.5 92.66500091552734,28.5 C95.05599975585938,27.118999481201172 95.05599975585938,24.881000518798828 92.66500091552734,23.5 C92.66500091552734,23.5 -40.702999114990234,-53.5 -40.702999114990234,-53.5 C-41.80699920654297,-54.13800048828125 -43.22800064086914,-54.48099899291992 -44.67300033569336,-54.529998779296875"></path></g></g><g clip-path="url(#__lottie_element_1070)" transform="matrix(1,0,0,1,41.89900207519531,21)" opacity="1" style="display: block;"><g clip-path="url(#__lottie_element_1082)" transform="matrix(1,0,0,1,-0.02700042724609375,0)" opacity="1" style="display: block;"><g transform="matrix(1,0,0,1,116.9739990234375,157.5)" opacity="1" style="display: block;"><g opacity="1" transform="matrix(2,0,0,2,0,0)"><path fill="url(&quot;#__lottie_element_1869&quot;)" fill-opacity="1" d=" M19.486000061035156,-56.25 C19.486000061035156,-56.25 -19.486000061035156,-33.75 -19.486000061035156,-33.75 C-19.486000061035156,-33.75 -19.486000061035156,56.25 -19.486000061035156,56.25 C-19.486000061035156,56.25 19.486000061035156,33.75 19.486000061035156,33.75 C19.486000061035156,33.75 19.486000061035156,-56.25 19.486000061035156,-56.25z"></path></g></g><g transform="matrix(1,0,0,1,116.9739990234375,157.5)" opacity="0.1" style="mix-blend-mode: multiply; display: block;"><g opacity="1" transform="matrix(2,0,0,2,0,0)"><path fill="#161616" fill-opacity="1" d=" M19.486000061035156,-56.25 C19.486000061035156,-56.25 -19.486000061035156,-33.75 -19.486000061035156,-33.75 C-19.486000061035156,-33.75 -19.486000061035156,56.25 -19.486000061035156,56.25 C-19.486000061035156,56.25 19.486000061035156,33.75 19.486000061035156,33.75 C19.486000061035156,33.75 19.486000061035156,-56.25 19.486000061035156,-56.25z"></path></g></g><g transform="matrix(1,0,0,1,38.9739990234375,157.5)" opacity="1" style="display: block;"><g opacity="1" transform="matrix(2,0,0,2,0,0)"><path fill="url(&quot;#__lottie_element_1876&quot;)" fill-opacity="1" d=" M19.486000061035156,-33.75 C19.486000061035156,-33.75 -19.486000061035156,-56.25 -19.486000061035156,-56.25 C-19.486000061035156,-56.25 -19.486000061035156,33.75 -19.486000061035156,33.75 C-19.486000061035156,33.75 19.486000061035156,56.25 19.486000061035156,56.25 C19.486000061035156,56.25 19.486000061035156,-33.75 19.486000061035156,-33.75z"></path></g></g><g transform="matrix(1,0,0,1,77.94499969482422,45)" opacity="1" style="display: block;"><g opacity="1" transform="matrix(2,0,0,2,0,0)"><path fill="#8A53FF" fill-opacity="1" d=" M0,-22.5 C0,-22.5 -38.97100067138672,0 -38.97100067138672,0 C-38.97100067138672,0 0,22.5 0,22.5 C0,22.5 38.97100067138672,0 38.97100067138672,0 C38.97100067138672,0 0,-22.5 0,-22.5z"></path></g></g><g transform="matrix(1,0,0,1,77.94200134277344,45)" opacity="0.4" style="mix-blend-mode: screen; display: block;"><g opacity="1" transform="matrix(2,0,0,2,0,0)"><path fill="#8A53FF" fill-opacity="1" d=" M0,-22.5 C0,-22.5 -38.97100067138672,0 -38.97100067138672,0 C-38.97100067138672,0 0,22.5 0,22.5 C0,22.5 38.97100067138672,0 38.97100067138672,0 C38.97100067138672,0 0,-22.5 0,-22.5z"></path></g></g></g></g><g clip-path="url(#__lottie_element_1074)" transform="matrix(1,0,0,1,131.8990020751953,13)" opacity="1" style="display: block;"><g clip-path="url(#__lottie_element_1092)" transform="matrix(1,0,0,1,-0.02700042724609375,0)" opacity="1" style="display: block;"><g transform="matrix(1,0,0,1,116.9739990234375,187.5)" opacity="1" style="display: block;"><g opacity="1" transform="matrix(2,0,0,2,0,0)"><path fill="url(&quot;#__lottie_element_1880&quot;)" fill-opacity="1" d=" M19.486000061035156,-71.25 C19.486000061035156,-71.25 -19.486000061035156,-48.75 -19.486000061035156,-48.75 C-19.486000061035156,-48.75 -19.486000061035156,71.25 -19.486000061035156,71.25 C-19.486000061035156,71.25 19.486000061035156,48.75 19.486000061035156,48.75 C19.486000061035156,48.75 19.486000061035156,-71.25 19.486000061035156,-71.25z"></path></g></g><g transform="matrix(1,0,0,1,116.9739990234375,187.5)" opacity="0.1" style="mix-blend-mode: multiply; display: block;"><g opacity="1" transform="matrix(2,0,0,2,0,0)"><path fill="#161616" fill-opacity="1" d=" M19.486000061035156,-71.25 C19.486000061035156,-71.25 -19.486000061035156,-48.75 -19.486000061035156,-48.75 C-19.486000061035156,-48.75 -19.486000061035156,71.25 -19.486000061035156,71.25 C-19.486000061035156,71.25 19.486000061035156,48.75 19.486000061035156,48.75 C19.486000061035156,48.75 19.486000061035156,-71.25 19.486000061035156,-71.25z"></path></g></g><g transform="matrix(1,0,0,1,38.9739990234375,187.5)" opacity="1" style="display: block;"><g opacity="1" transform="matrix(2,0,0,2,0,0)"><path fill="url(&quot;#__lottie_element_1887&quot;)" fill-opacity="1" d=" M19.486000061035156,-48.75 C19.486000061035156,-48.75 -19.486000061035156,-71.25 -19.486000061035156,-71.25 C-19.486000061035156,-71.25 -19.486000061035156,48.75 -19.486000061035156,48.75 C-19.486000061035156,48.75 19.486000061035156,71.25 19.486000061035156,71.25 C19.486000061035156,71.25 19.486000061035156,-48.75 19.486000061035156,-48.75z"></path></g></g><g transform="matrix(1,0,0,1,77.94499969482422,45)" opacity="1" style="display: block;"><g opacity="1" transform="matrix(2,0,0,2,0,0)"><path fill="#8A53FF" fill-opacity="1" d=" M0,-22.5 C0,-22.5 -38.97100067138672,0 -38.97100067138672,0 C-38.97100067138672,0 0,22.5 0,22.5 C0,22.5 38.97100067138672,0 38.97100067138672,0 C38.97100067138672,0 0,-22.5 0,-22.5z"></path></g></g><g transform="matrix(1,0,0,1,77.94200134277344,45)" opacity="0.4" style="mix-blend-mode: screen; display: block;"><g opacity="1" transform="matrix(2,0,0,2,0,0)"><path fill="#8A53FF" fill-opacity="1" d=" M0,-22.5 C0,-22.5 -38.97100067138672,0 -38.97100067138672,0 C-38.97100067138672,0 0,22.5 0,22.5 C0,22.5 38.97100067138672,0 38.97100067138672,0 C38.97100067138672,0 0,-22.5 0,-22.5z"></path></g></g></g></g><g clip-path="url(#__lottie_element_1078)" transform="matrix(1,0,0,1,221.89801025390625,125)" opacity="1" style="display: block;"><g clip-path="url(#__lottie_element_1102)" transform="matrix(1,0,0,1,-0.02899932861328125,0)" opacity="1" style="display: block;"><g transform="matrix(1,0,0,1,116.97100067138672,157.5)" opacity="1" style="display: block;"><g opacity="1" transform="matrix(2,0,0,2,0,0)"><path fill="url(&quot;#__lottie_element_1891&quot;)" fill-opacity="1" d=" M19.486000061035156,-56.25 C19.486000061035156,-56.25 -19.486000061035156,-33.75 -19.486000061035156,-33.75 C-19.486000061035156,-33.75 -19.486000061035156,56.25 -19.486000061035156,56.25 C-19.486000061035156,56.25 19.486000061035156,33.75 19.486000061035156,33.75 C19.486000061035156,33.75 19.486000061035156,-56.25 19.486000061035156,-56.25z"></path></g></g><g transform="matrix(1,0,0,1,116.97100067138672,157.5)" opacity="0.1" style="mix-blend-mode: multiply; display: block;"><g opacity="1" transform="matrix(2,0,0,2,0,0)"><path fill="#161616" fill-opacity="1" d=" M19.486000061035156,-56.25 C19.486000061035156,-56.25 -19.486000061035156,-33.75 -19.486000061035156,-33.75 C-19.486000061035156,-33.75 -19.486000061035156,56.25 -19.486000061035156,56.25 C-19.486000061035156,56.25 19.486000061035156,33.75 19.486000061035156,33.75 C19.486000061035156,33.75 19.486000061035156,-56.25 19.486000061035156,-56.25z"></path></g></g><g transform="matrix(1,0,0,1,38.97100067138672,157.5)" opacity="1" style="display: block;"><g opacity="1" transform="matrix(2,0,0,2,0,0)"><path fill="url(&quot;#__lottie_element_1898&quot;)" fill-opacity="1" d=" M19.486000061035156,-33.75 C19.486000061035156,-33.75 -19.486000061035156,-56.25 -19.486000061035156,-56.25 C-19.486000061035156,-56.25 -19.486000061035156,33.75 -19.486000061035156,33.75 C-19.486000061035156,33.75 19.486000061035156,56.25 19.486000061035156,56.25 C19.486000061035156,56.25 19.486000061035156,-33.75 19.486000061035156,-33.75z"></path></g></g><g transform="matrix(1,0,0,1,77.94499969482422,45)" opacity="1" style="display: block;"><g opacity="1" transform="matrix(2,0,0,2,0,0)"><path fill="#8A53FF" fill-opacity="1" d=" M0,-22.5 C0,-22.5 -38.97100067138672,0 -38.97100067138672,0 C-38.97100067138672,0 0,22.5 0,22.5 C0,22.5 38.97100067138672,0 38.97100067138672,0 C38.97100067138672,0 0,-22.5 0,-22.5z"></path></g></g><g transform="matrix(1,0,0,1,77.94499969482422,45)" opacity="0.4" style="mix-blend-mode: screen; display: block;"><g opacity="1" transform="matrix(2,0,0,2,0,0)"><path fill="#8A53FF" fill-opacity="1" d=" M0,-22.5 C0,-22.5 -38.97100067138672,0 -38.97100067138672,0 C-38.97100067138672,0 0,22.5 0,22.5 C0,22.5 38.97100067138672,0 38.97100067138672,0 C38.97100067138672,0 0,-22.5 0,-22.5z"></path></g></g></g></g></g><g clip-path="url(#__lottie_element_1054)" transform="matrix(1,0,0,1,97.5,333.5)" opacity="0.9999918735798667" style="display: block;"><g transform="matrix(1,0,0,1,48.49700164794922,28)" opacity="1" style="display: block;"><g opacity="1" transform="matrix(2,0,0,2,0,0)"><path fill="#E31D1C" fill-opacity="1" d=" M24.249000549316406,2 C24.249000549316406,2 -3.4639999866485596,-14 -3.4639999866485596,-14 C-3.4639999866485596,-14 -24.249000549316406,-2 -24.249000549316406,-2 C-24.249000549316406,-2 3.4639999866485596,14 3.4639999866485596,14 C3.4639999866485596,14 24.249000549316406,2 24.249000549316406,2z"></path></g></g><g transform="matrix(1,0,0,1,38.73099899291992,13.63700008392334)" opacity="1" style="display: block;"><g opacity="1" transform="matrix(2,0,0,2,0,0)"><path fill="#FFD018" fill-opacity="1" d=" M2.6559998989105225,-0.3580000102519989 C2.6559998989105225,-0.3580000102519989 3.7009999752044678,-2.13700008392334 3.7009999752044678,-2.13700008392334 C3.7009999752044678,-2.13700008392334 0.6200000047683716,-1.534000039100647 0.6200000047683716,-1.534000039100647 C0.6200000047683716,-1.534000039100647 -1.9869999885559082,-2.6570000648498535 -1.9869999885559082,-2.6570000648498535 C-1.9869999885559082,-2.6570000648498535 -1.9459999799728394,-0.7789999842643738 -1.9459999799728394,-0.7789999842643738 C-1.9459999799728394,-0.7789999842643738 -4.6020002365112305,0.3059999942779541 -4.6020002365112305,0.3059999942779541 C-4.6020002365112305,0.3059999942779541 -1.4950000047683716,0.8629999756813049 -1.4950000047683716,0.8629999756813049 C-1.4950000047683716,0.8629999756813049 -0.5299999713897705,2.6570000648498535 -0.5299999713897705,2.6570000648498535 C-0.5299999713897705,2.6570000648498535 1.3489999771118164,1.1230000257492065 1.3489999771118164,1.1230000257492065 C1.3489999771118164,1.1230000257492065 4.6020002365112305,1.1469999551773071 4.6020002365112305,1.1469999551773071 C4.6020002365112305,1.1469999551773071 2.6559998989105225,-0.3580000102519989 2.6559998989105225,-0.3580000102519989z"></path></g></g><g transform="matrix(1,0,0,1,56.47800064086914,13.901000022888184)" opacity="1" style="display: block;"><g opacity="1" transform="matrix(2,0,0,2,0,0)"><path fill="#FFD018" fill-opacity="1" d=" M1.8009999990463257,0.4490000009536743 C1.8009999990463257,0.4490000009536743 1.4490000009536743,-0.8360000252723694 1.4490000009536743,-0.8360000252723694 C1.4490000009536743,-0.8360000252723694 -0.777999997138977,-1.0399999618530273 -0.777999997138977,-1.0399999618530273 C-0.777999997138977,-1.0399999618530273 -1.8009999990463257,0.11999999731779099 -1.8009999990463257,0.11999999731779099 C-1.8009999990463257,0.11999999731779099 -0.2070000022649765,1.0399999618530273 -0.2070000022649765,1.0399999618530273 C-0.2070000022649765,1.0399999618530273 1.8009999990463257,0.4490000009536743 1.8009999990463257,0.4490000009536743z"></path></g></g><g transform="matrix(1,0,0,1,58.83599853515625,20.055999755859375)" opacity="1" style="display: block;"><g opacity="1" transform="matrix(2,0,0,2,0,0)"><path fill="#FFD018" fill-opacity="1" d=" M0.4090000092983246,1.0529999732971191 C0.4090000092983246,1.0529999732971191 1.7350000143051147,0 1.7350000143051147,0 C1.7350000143051147,0 0.4090000092983246,-1.0529999732971191 0.4090000092983246,-1.0529999732971191 C0.4090000092983246,-1.0529999732971191 -1.7350000143051147,-0.6510000228881836 -1.7350000143051147,-0.6510000228881836 C-1.7350000143051147,-0.6510000228881836 -1.7350000143051147,0.6510000228881836 -1.7350000143051147,0.6510000228881836 C-1.7350000143051147,0.6510000228881836 0.4090000092983246,1.0529999732971191 0.4090000092983246,1.0529999732971191z"></path></g></g><g transform="matrix(1,0,0,1,40.571998596191406,23.08099937438965)" opacity="1" style="display: block;"><g opacity="1" transform="matrix(2,0,0,2,0,0)"><path fill="#FFD018" fill-opacity="1" d=" M-1.8009999990463257,-0.4490000009536743 C-1.8009999990463257,-0.4490000009536743 -1.4490000009536743,0.8360000252723694 -1.4490000009536743,0.8360000252723694 C-1.4490000009536743,0.8360000252723694 0.777999997138977,1.0399999618530273 0.777999997138977,1.0399999618530273 C0.777999997138977,1.0399999618530273 1.8009999990463257,-0.11999999731779099 1.8009999990463257,-0.11999999731779099 C1.8009999990463257,-0.11999999731779099 0.2070000022649765,-1.0399999618530273 0.2070000022649765,-1.0399999618530273 C0.2070000022649765,-1.0399999618530273 -1.8009999990463257,-0.4490000009536743 -1.8009999990463257,-0.4490000009536743z"></path></g></g><g transform="matrix(1,0,0,1,51.23400115966797,24.441999435424805)" opacity="1" style="display: block;"><g opacity="1" transform="matrix(2,0,0,2,0,0)"><path fill="#FFD018" fill-opacity="1" d=" M-1.8240000009536743,0.23600000143051147 C-1.8240000009536743,0.23600000143051147 0,1.0010000467300415 0,1.0010000467300415 C0,1.0010000467300415 1.8240000009536743,0.23600000143051147 1.8240000009536743,0.23600000143051147 C1.8240000009536743,0.23600000143051147 1.1269999742507935,-1.0010000467300415 1.1269999742507935,-1.0010000467300415 C1.1269999742507935,-1.0010000467300415 -1.1269999742507935,-1.0010000467300415 -1.1269999742507935,-1.0010000467300415 C-1.1269999742507935,-1.0010000467300415 -1.8240000009536743,0.23600000143051147 -1.8240000009536743,0.23600000143051147z"></path></g></g></g><g clip-path="url(#__lottie_element_1058)" transform="matrix(1,0,0,1,193.49600219726562,389.5010070800781)" opacity="0.9999918735798667" style="display: block;"><g transform="matrix(1,0,0,1,48.49700164794922,28)" opacity="1" style="display: block;"><g opacity="1" transform="matrix(2,0,0,2,0,0)"><path fill="#272727" fill-opacity="1" d=" M24.249000549316406,2 C24.249000549316406,2 -3.4639999866485596,-14 -3.4639999866485596,-14 C-3.4639999866485596,-14 -24.249000549316406,-2 -24.249000549316406,-2 C-24.249000549316406,-2 3.4639999866485596,14 3.4639999866485596,14 C3.4639999866485596,14 24.249000549316406,2 24.249000549316406,2z"></path></g></g><g transform="matrix(1,0,0,1,48.5,28)" opacity="1" style="display: block;"><g opacity="1" transform="matrix(2,0,0,2,0,0)"><path fill="#E31D1C" fill-opacity="1" d=" M17.320999145507812,6 C17.320999145507812,6 -10.392000198364258,-10 -10.392000198364258,-10 C-10.392000198364258,-10 -17.320999145507812,-6 -17.320999145507812,-6 C-17.320999145507812,-6 10.392000198364258,10 10.392000198364258,10 C10.392000198364258,10 17.320999145507812,6 17.320999145507812,6z"></path></g></g><g transform="matrix(1,0,0,1,34.64099884033203,36)" opacity="1" style="display: block;"><g opacity="1" transform="matrix(2,0,0,2,0,0)"><path fill="#FFD018" fill-opacity="1" d=" M17.320999145507812,6 C17.320999145507812,6 -10.392000198364258,-10 -10.392000198364258,-10 C-10.392000198364258,-10 -17.320999145507812,-6 -17.320999145507812,-6 C-17.320999145507812,-6 10.392000198364258,10 10.392000198364258,10 C10.392000198364258,10 17.320999145507812,6 17.320999145507812,6z"></path></g></g></g><g clip-path="url(#__lottie_element_1062)" transform="matrix(1,0,0,1,7.4980010986328125,281.5)" opacity="0.9999918735798667" style="display: block;"><g transform="matrix(1,0,0,1,50.22999954223633,27)" opacity="1" style="display: block;"><g opacity="1" transform="matrix(2,0,0,2,0,0)"><path fill="#EEF3F8" fill-opacity="1" d=" M23.382999420166016,2.5 C23.382999420166016,2.5 -4.329999923706055,-13.5 -4.329999923706055,-13.5 C-4.329999923706055,-13.5 -23.382999420166016,-2.5 -23.382999420166016,-2.5 C-23.382999420166016,-2.5 4.329999923706055,13.5 4.329999923706055,13.5 C4.329999923706055,13.5 23.382999420166016,2.5 23.382999420166016,2.5z"></path></g></g><g transform="matrix(1,0,0,1,45.03300094604492,16)" opacity="1" style="display: block;"><g opacity="1" transform="matrix(2,0,0,2,0,0)"><path fill="#41479B" fill-opacity="1" d=" M13.855999946594238,1 C13.855999946594238,1 -1.7319999933242798,-8 -1.7319999933242798,-8 C-1.7319999933242798,-8 -13.855999946594238,-1 -13.855999946594238,-1 C-13.855999946594238,-1 1.7319999933242798,8 1.7319999933242798,8 C1.7319999933242798,8 13.855999946594238,1 13.855999946594238,1z"></path></g></g><g transform="matrix(1,0,0,1,83.13800048828125,26)" opacity="1" style="display: block;"><g opacity="1" transform="matrix(2,0,0,2,0,0)"><path fill="#DC251C" fill-opacity="1" d=" M6.927999973297119,3 C6.927999973297119,3 -5.196000099182129,-4 -5.196000099182129,-4 C-5.196000099182129,-4 -6.927999973297119,-3 -6.927999973297119,-3 C-6.927999973297119,-3 5.196000099182129,4 5.196000099182129,4 C5.196000099182129,4 6.927999973297119,3 6.927999973297119,3z"></path></g></g><g class="1" transform="matrix(1,0,0,1,76.20800018310547,30.000999450683594)" opacity="1" style="display: block;"><g class="1" opacity="1" transform="matrix(2,0,0,2,0,0)"><path fill="#DC251C" fill-opacity="1" d=" M6.927999973297119,3 C6.927999973297119,3 -5.196000099182129,-4 -5.196000099182129,-4 C-5.196000099182129,-4 -6.927999973297119,-3 -6.927999973297119,-3 C-6.927999973297119,-3 5.196000099182129,4 5.196000099182129,4 C5.196000099182129,4 6.927999973297119,3 6.927999973297119,3z"></path></g></g><g class="2" transform="matrix(1,0,0,1,69.28199768066406,34)" opacity="1" style="display: block;"><g class="2" opacity="1" transform="matrix(2,0,0,2,0,0)"><path fill="#DC251C" fill-opacity="1" d=" M6.927999973297119,3 C6.927999973297119,3 -5.196000099182129,-4 -5.196000099182129,-4 C-5.196000099182129,-4 -6.927999973297119,-3 -6.927999973297119,-3 C-6.927999973297119,-3 5.196000099182129,4 5.196000099182129,4 C5.196000099182129,4 6.927999973297119,3 6.927999973297119,3z"></path></g></g><g class="3" transform="matrix(1,0,0,1,62.35300064086914,38)" opacity="1" style="display: block;"><g class="3" opacity="1" transform="matrix(2,0,0,2,0,0)"><path fill="#DC251C" fill-opacity="1" d=" M6.927999973297119,3 C6.927999973297119,3 -5.196000099182129,-4 -5.196000099182129,-4 C-5.196000099182129,-4 -6.927999973297119,-3 -6.927999973297119,-3 C-6.927999973297119,-3 5.196000099182129,4 5.196000099182129,4 C5.196000099182129,4 6.927999973297119,3 6.927999973297119,3z"></path></g></g><g class="4" transform="matrix(1,0,0,1,39.834999084472656,33)" opacity="1" style="display: block;"><g class="4" opacity="1" transform="matrix(2,0,0,2,0,0)"><path fill="#DC251C" fill-opacity="1" d=" M14.722000122070312,7.5 C14.722000122070312,7.5 -12.989999771118164,-8.5 -12.989999771118164,-8.5 C-12.989999771118164,-8.5 -14.722000122070312,-7.5 -14.722000122070312,-7.5 C-14.722000122070312,-7.5 12.989999771118164,8.5 12.989999771118164,8.5 C12.989999771118164,8.5 14.722000122070312,7.5 14.722000122070312,7.5z"></path></g></g><g class="5" transform="matrix(1,0,0,1,32.90999984741211,37)" opacity="1" style="display: block;"><g class="5" opacity="1" transform="matrix(2,0,0,2,0,0)"><path fill="#DC251C" fill-opacity="1" d=" M14.722000122070312,7.5 C14.722000122070312,7.5 -12.989999771118164,-8.5 -12.989999771118164,-8.5 C-12.989999771118164,-8.5 -14.722000122070312,-7.5 -14.722000122070312,-7.5 C-14.722000122070312,-7.5 12.989999771118164,8.5 12.989999771118164,8.5 C12.989999771118164,8.5 14.722000122070312,7.5 14.722000122070312,7.5z"></path></g></g><g transform="matrix(1,0,0,1,45.03499984741211,16)" opacity="1" style="display: block;"><g opacity="1" transform="matrix(2,0,0,2,0,0)"><path fill="#C5D0EC" fill-opacity="1" d=" M3.4639999866485596,5 C3.4639999866485596,5 1.7319999933242798,4 1.7319999933242798,4 C1.7319999933242798,4 0,5 0,5 C0,5 1.7319999933242798,6 1.7319999933242798,6 C1.7319999933242798,6 3.4639999866485596,5 3.4639999866485596,5z M0,3 C0,3 -1.7319999933242798,2 -1.7319999933242798,2 C-1.7319999933242798,2 -3.4639999866485596,3 -3.4639999866485596,3 C-3.4639999866485596,3 -1.7319999933242798,4 -1.7319999933242798,4 C-1.7319999933242798,4 0,3 0,3z M-3.4639999866485596,1 C-3.4639999866485596,1 -5.196000099182129,0 -5.196000099182129,0 C-5.196000099182129,0 -6.927999973297119,1 -6.927999973297119,1 C-6.927999973297119,1 -5.196000099182129,2 -5.196000099182129,2 C-5.196000099182129,2 -3.4639999866485596,1 -3.4639999866485596,1z M-6.927999973297119,-1 C-6.927999973297119,-1 -8.65999984741211,-2 -8.65999984741211,-2 C-8.65999984741211,-2 -10.392000198364258,-1 -10.392000198364258,-1 C-10.392000198364258,-1 -8.65999984741211,0 -8.65999984741211,0 C-8.65999984741211,0 -6.927999973297119,-1 -6.927999973297119,-1z M6.927999973297119,3 C6.927999973297119,3 5.196000099182129,2 5.196000099182129,2 C5.196000099182129,2 3.4639999866485596,3 3.4639999866485596,3 C3.4639999866485596,3 5.196000099182129,4 5.196000099182129,4 C5.196000099182129,4 6.927999973297119,3 6.927999973297119,3z M6.927999973297119,1 C6.927999973297119,1 5.196000099182129,0 5.196000099182129,0 C5.196000099182129,0 3.4639999866485596,1 3.4639999866485596,1 C3.4639999866485596,1 5.196000099182129,2 5.196000099182129,2 C5.196000099182129,2 6.927999973297119,1 6.927999973297119,1z M3.4639999866485596,-1 C3.4639999866485596,-1 1.7319999933242798,-2 1.7319999933242798,-2 C1.7319999933242798,-2 0,-1 0,-1 C0,-1 1.7319999933242798,0 1.7319999933242798,0 C1.7319999933242798,0 3.4639999866485596,-1 3.4639999866485596,-1z M0,-3 C0,-3 -1.7319999933242798,-4 -1.7319999933242798,-4 C-1.7319999933242798,-4 -3.4639999866485596,-3 -3.4639999866485596,-3 C-3.4639999866485596,-3 -1.7319999933242798,-2 -1.7319999933242798,-2 C-1.7319999933242798,-2 0,-3 0,-3z M3.4639999866485596,3 C3.4639999866485596,3 1.7319999933242798,2 1.7319999933242798,2 C1.7319999933242798,2 0,3 0,3 C0,3 1.7319999933242798,4 1.7319999933242798,4 C1.7319999933242798,4 3.4639999866485596,3 3.4639999866485596,3z M0,1 C0,1 -1.7319999933242798,0 -1.7319999933242798,0 C-1.7319999933242798,0 -3.4639999866485596,1 -3.4639999866485596,1 C-3.4639999866485596,1 -1.7319999933242798,2 -1.7319999933242798,2 C-1.7319999933242798,2 0,1 0,1z M-3.4639999866485596,-1 C-3.4639999866485596,-1 -5.196000099182129,-2 -5.196000099182129,-2 C-5.196000099182129,-2 -6.927999973297119,-1 -6.927999973297119,-1 C-6.927999973297119,-1 -5.196000099182129,0 -5.196000099182129,0 C-5.196000099182129,0 -3.4639999866485596,-1 -3.4639999866485596,-1z M3.4639999866485596,1 C3.4639999866485596,1 1.7319999933242798,0 1.7319999933242798,0 C1.7319999933242798,0 0,1 0,1 C0,1 1.7319999933242798,2 1.7319999933242798,2 C1.7319999933242798,2 3.4639999866485596,1 3.4639999866485596,1z M0,-1 C0,-1 -1.7319999933242798,-2 -1.7319999933242798,-2 C-1.7319999933242798,-2 -3.4639999866485596,-1 -3.4639999866485596,-1 C-3.4639999866485596,-1 -1.7319999933242798,0 -1.7319999933242798,0 C-1.7319999933242798,0 0,-1 0,-1z M-3.4639999866485596,-3 C-3.4639999866485596,-3 -5.196000099182129,-4 -5.196000099182129,-4 C-5.196000099182129,-4 -6.927999973297119,-3 -6.927999973297119,-3 C-6.927999973297119,-3 -5.196000099182129,-2 -5.196000099182129,-2 C-5.196000099182129,-2 -3.4639999866485596,-3 -3.4639999866485596,-3z M10.392000198364258,1 C10.392000198364258,1 8.65999984741211,0 8.65999984741211,0 C8.65999984741211,0 6.927999973297119,1 6.927999973297119,1 C6.927999973297119,1 8.65999984741211,2 8.65999984741211,2 C8.65999984741211,2 10.392000198364258,1 10.392000198364258,1z M6.927999973297119,-1 C6.927999973297119,-1 5.196000099182129,-2 5.196000099182129,-2 C5.196000099182129,-2 3.4639999866485596,-1 3.4639999866485596,-1 C3.4639999866485596,-1 5.196000099182129,0 5.196000099182129,0 C5.196000099182129,0 6.927999973297119,-1 6.927999973297119,-1z M3.4639999866485596,-3 C3.4639999866485596,-3 1.7319999933242798,-4 1.7319999933242798,-4 C1.7319999933242798,-4 0,-3 0,-3 C0,-3 1.7319999933242798,-2 1.7319999933242798,-2 C1.7319999933242798,-2 3.4639999866485596,-3 3.4639999866485596,-3z M0,-5 C0,-5 -1.7319999933242798,-6 -1.7319999933242798,-6 C-1.7319999933242798,-6 -3.4639999866485596,-5 -3.4639999866485596,-5 C-3.4639999866485596,-5 -1.7319999933242798,-4 -1.7319999933242798,-4 C-1.7319999933242798,-4 0,-5 0,-5z"></path></g></g></g></g></g></svg>