<svg xmlns:xlink="http://www.w3.org/1999/xlink" xmlns="http://www.w3.org/2000/svg" viewBox="0 0 1130 367" width="1130" height="367" preserveAspectRatio="xMidYMid meet" style="width: 100%; height: 100%; transform: translate3d(0px, 0px, 0px);"><defs><clipPath id="__lottie_element_1171"><rect width="1130" height="367" x="0" y="0"></rect></clipPath><clipPath id="__lottie_element_1173"><path d="M0,0 L262,0 L262,367 L0,367z"></path></clipPath><linearGradient id="__lottie_element_1179" spreadMethod="pad" gradientUnits="userSpaceOnUse" x1="-281" y1="0" x2="281" y2="0"><stop offset="0%" stop-color="rgb(255,171,72)" stop-opacity="0.6000000238418579"></stop><stop offset="50%" stop-color="rgb(255,171,72)" stop-opacity="0.4000000059604645"></stop><stop offset="100%" stop-color="rgb(255,171,72)" stop-opacity="0.20000000298023224"></stop></linearGradient><linearGradient id="__lottie_element_1183" spreadMethod="pad" gradientUnits="userSpaceOnUse" x1="-50.5" y1="0" x2="50.5" y2="0"><stop offset="0%" stop-color="rgb(255,171,72)" stop-opacity="1"></stop><stop offset="50%" stop-color="rgb(255,171,72)" stop-opacity="0.699999988079071"></stop><stop offset="100%" stop-color="rgb(255,171,72)" stop-opacity="0.4000000059604645"></stop></linearGradient><clipPath id="__lottie_element_1185"><path d="M0,0 L140,0 L140,48 L0,48z"></path></clipPath><clipPath id="__lottie_element_1189"><path d="M0,0 L140,0 L140,48 L0,48z"></path></clipPath><clipPath id="__lottie_element_1193"><path d="M0,0 L140,0 L140,48 L0,48z"></path></clipPath><clipPath id="__lottie_element_1197"><path d="M0,0 L140,0 L140,48 L0,48z"></path></clipPath><clipPath id="__lottie_element_1201"><path d="M0,0 L140,0 L140,48 L0,48z"></path></clipPath><clipPath id="__lottie_element_1205"><path d="M0,0 L140,0 L140,48 L0,48z"></path></clipPath><linearGradient id="__lottie_element_1280" spreadMethod="pad" gradientUnits="userSpaceOnUse" x1="-49.49399948120117" y1="0.14499999582767487" x2="49.374000549316406" y2="0.14499999582767487"><stop offset="0%" stop-color="rgb(255,255,255)" stop-opacity="1"></stop><stop offset="50%" stop-color="rgb(255,255,255)" stop-opacity="0.5"></stop><stop offset="100%" stop-color="rgb(255,255,255)" stop-opacity="0"></stop></linearGradient><linearGradient id="__lottie_element_1284" spreadMethod="pad" gradientUnits="userSpaceOnUse" x1="-49.49399948120117" y1="0.14499999582767487" x2="49.374000549316406" y2="0.14499999582767487"><stop offset="0%" stop-color="rgb(255,255,255)" stop-opacity="1"></stop><stop offset="50%" stop-color="rgb(255,255,255)" stop-opacity="0.5"></stop><stop offset="100%" stop-color="rgb(255,255,255)" stop-opacity="0"></stop></linearGradient><linearGradient id="__lottie_element_1288" spreadMethod="pad" gradientUnits="userSpaceOnUse" x1="-49.49399948120117" y1="0.14499999582767487" x2="49.374000549316406" y2="0.14499999582767487"><stop offset="0%" stop-color="rgb(255,255,255)" stop-opacity="1"></stop><stop offset="50%" stop-color="rgb(255,255,255)" stop-opacity="0.5"></stop><stop offset="100%" stop-color="rgb(255,255,255)" stop-opacity="0"></stop></linearGradient><linearGradient id="__lottie_element_1292" spreadMethod="pad" gradientUnits="userSpaceOnUse" x1="-49.49399948120117" y1="0.14499999582767487" x2="49.374000549316406" y2="0.14499999582767487"><stop offset="0%" stop-color="rgb(255,255,255)" stop-opacity="1"></stop><stop offset="50%" stop-color="rgb(255,255,255)" stop-opacity="0.5"></stop><stop offset="100%" stop-color="rgb(255,255,255)" stop-opacity="0"></stop></linearGradient><clipPath id="__lottie_element_1294"><path d="M0,0 L20,0 L20,48 L0,48z"></path></clipPath><clipPath id="__lottie_element_1298"><path d="M0,0 L20,0 L20,48 L0,48z"></path></clipPath><clipPath id="__lottie_element_1302"><path d="M0,0 L20,0 L20,48 L0,48z"></path></clipPath><clipPath id="__lottie_element_1306"><path d="M0,0 L20,0 L20,48 L0,48z"></path></clipPath><clipPath id="__lottie_element_1310"><path d="M0,0 L20,0 L20,48 L0,48z"></path></clipPath><clipPath id="__lottie_element_1314"><path d="M0,0 L20,0 L20,48 L0,48z"></path></clipPath><clipPath id="__lottie_element_1336"><path d="M0,0 L20,0 L20,48 L0,48z"></path></clipPath><clipPath id="__lottie_element_1340"><path d="M0,0 L20,0 L20,48 L0,48z"></path></clipPath><clipPath id="__lottie_element_1344"><path d="M0,0 L20,0 L20,48 L0,48z"></path></clipPath><clipPath id="__lottie_element_1348"><path d="M0,0 L20,0 L20,48 L0,48z"></path></clipPath><clipPath id="__lottie_element_1352"><path d="M0,0 L20,0 L20,48 L0,48z"></path></clipPath><clipPath id="__lottie_element_1356"><path d="M0,0 L20,0 L20,48 L0,48z"></path></clipPath><clipPath id="__lottie_element_1378"><path d="M0,0 L20,0 L20,48 L0,48z"></path></clipPath><clipPath id="__lottie_element_1382"><path d="M0,0 L20,0 L20,48 L0,48z"></path></clipPath><clipPath id="__lottie_element_1386"><path d="M0,0 L20,0 L20,48 L0,48z"></path></clipPath><clipPath id="__lottie_element_1390"><path d="M0,0 L20,0 L20,48 L0,48z"></path></clipPath><clipPath id="__lottie_element_1394"><path d="M0,0 L20,0 L20,48 L0,48z"></path></clipPath><clipPath id="__lottie_element_1398"><path d="M0,0 L20,0 L20,48 L0,48z"></path></clipPath><clipPath id="__lottie_element_1420"><path d="M0,0 L20,0 L20,48 L0,48z"></path></clipPath><clipPath id="__lottie_element_1424"><path d="M0,0 L20,0 L20,48 L0,48z"></path></clipPath><clipPath id="__lottie_element_1428"><path d="M0,0 L20,0 L20,48 L0,48z"></path></clipPath><clipPath id="__lottie_element_1432"><path d="M0,0 L20,0 L20,48 L0,48z"></path></clipPath><clipPath id="__lottie_element_1436"><path d="M0,0 L20,0 L20,48 L0,48z"></path></clipPath><clipPath id="__lottie_element_1440"><path d="M0,0 L20,0 L20,48 L0,48z"></path></clipPath><clipPath id="__lottie_element_1462"><path d="M0,0 L20,0 L20,48 L0,48z"></path></clipPath><clipPath id="__lottie_element_1466"><path d="M0,0 L20,0 L20,48 L0,48z"></path></clipPath><clipPath id="__lottie_element_1470"><path d="M0,0 L20,0 L20,48 L0,48z"></path></clipPath><clipPath id="__lottie_element_1474"><path d="M0,0 L20,0 L20,48 L0,48z"></path></clipPath><clipPath id="__lottie_element_1478"><path d="M0,0 L20,0 L20,48 L0,48z"></path></clipPath><clipPath id="__lottie_element_1482"><path d="M0,0 L20,0 L20,48 L0,48z"></path></clipPath><clipPath id="__lottie_element_1504"><path d="M0,0 L20,0 L20,48 L0,48z"></path></clipPath><clipPath id="__lottie_element_1508"><path d="M0,0 L20,0 L20,48 L0,48z"></path></clipPath><clipPath id="__lottie_element_1512"><path d="M0,0 L20,0 L20,48 L0,48z"></path></clipPath><clipPath id="__lottie_element_1516"><path d="M0,0 L20,0 L20,48 L0,48z"></path></clipPath><clipPath id="__lottie_element_1520"><path d="M0,0 L20,0 L20,48 L0,48z"></path></clipPath><clipPath id="__lottie_element_1524"><path d="M0,0 L20,0 L20,48 L0,48z"></path></clipPath><linearGradient id="__lottie_element_1280" spreadMethod="pad" gradientUnits="userSpaceOnUse" x1="-49.49399948120117" y1="0.14499999582767487" x2="49.374000549316406" y2="0.14499999582767487"><stop offset="0%" stop-color="rgb(255,255,255)" stop-opacity="1"></stop><stop offset="50%" stop-color="rgb(255,255,255)" stop-opacity="0.5"></stop><stop offset="100%" stop-color="rgb(255,255,255)" stop-opacity="0"></stop></linearGradient><linearGradient id="__lottie_element_1284" spreadMethod="pad" gradientUnits="userSpaceOnUse" x1="-49.49399948120117" y1="0.14499999582767487" x2="49.374000549316406" y2="0.14499999582767487"><stop offset="0%" stop-color="rgb(255,255,255)" stop-opacity="1"></stop><stop offset="50%" stop-color="rgb(255,255,255)" stop-opacity="0.5"></stop><stop offset="100%" stop-color="rgb(255,255,255)" stop-opacity="0"></stop></linearGradient><linearGradient id="__lottie_element_1288" spreadMethod="pad" gradientUnits="userSpaceOnUse" x1="-49.49399948120117" y1="0.14499999582767487" x2="49.374000549316406" y2="0.14499999582767487"><stop offset="0%" stop-color="rgb(255,255,255)" stop-opacity="1"></stop><stop offset="50%" stop-color="rgb(255,255,255)" stop-opacity="0.5"></stop><stop offset="100%" stop-color="rgb(255,255,255)" stop-opacity="0"></stop></linearGradient><linearGradient id="__lottie_element_1292" spreadMethod="pad" gradientUnits="userSpaceOnUse" x1="-49.49399948120117" y1="0.14499999582767487" x2="49.374000549316406" y2="0.14499999582767487"><stop offset="0%" stop-color="rgb(255,255,255)" stop-opacity="1"></stop><stop offset="50%" stop-color="rgb(255,255,255)" stop-opacity="0.5"></stop><stop offset="100%" stop-color="rgb(255,255,255)" stop-opacity="0"></stop></linearGradient><linearGradient id="__lottie_element_1179" spreadMethod="pad" gradientUnits="userSpaceOnUse" x1="-281" y1="0" x2="281" y2="0"><stop offset="0%" stop-color="rgb(255,171,72)" stop-opacity="0.6000000238418579"></stop><stop offset="50%" stop-color="rgb(255,171,72)" stop-opacity="0.4000000059604645"></stop><stop offset="100%" stop-color="rgb(255,171,72)" stop-opacity="0.20000000298023224"></stop></linearGradient><linearGradient id="__lottie_element_1183" spreadMethod="pad" gradientUnits="userSpaceOnUse" x1="-50.5" y1="0" x2="50.5" y2="0"><stop offset="0%" stop-color="rgb(255,171,72)" stop-opacity="1"></stop><stop offset="50%" stop-color="rgb(255,171,72)" stop-opacity="0.699999988079071"></stop><stop offset="100%" stop-color="rgb(255,171,72)" stop-opacity="0.4000000059604645"></stop></linearGradient></defs><g clip-path="url(#__lottie_element_1171)"><g clip-path="url(#__lottie_element_1173)" transform="matrix(1,0,0,1,20.173995971679688,-0.1519927978515625)" opacity="0.2" style="display: block;"><g transform="matrix(1,0,0,1,99.01599884033203,80.3479995727539)" opacity="1" style="display: block;"><g opacity="1" transform="matrix(2,0,0,2,0,0)"><path fill="url(&quot;#__lottie_element_1280&quot;)" fill-opacity="1" d=" M-39.90991973876953,21.644643783569336 C-47.26863479614258,23.489423751831055 -48.962554931640625,34.01222229003906 -49.49399948120117,39.117000579833984 C-46.72700119018555,39.78300094604492 -38.7482795715332,41.35868453979492 -31.381000518798828,39.117000579833984 C-22.207061767578125,36.38089370727539 -15.375528335571289,19.56475257873535 -11.70316219329834,14.517849922180176 C-9.407777786254883,10.189311981201172 -9.027040481567383,4.721018314361572 2.1747124195098877,6.699574947357178 C13.799493789672852,8.709996223449707 14.472617149353027,3.4334805011749268 18.950700759887695,-3.1437625885009766 C23.295700073242188,-9.620491027832031 28.839303970336914,-13.91617202758789 38.430999755859375,-9.847999572753906 C48.303035736083984,-5.883037090301514 44.46900177001953,-14.843999862670898 44.46900177001953,-22.339000701904297 C44.46900177001953,-29.833999633789062 55.790000915527344,-38.827999114990234 44.46900177001953,-39.82699966430664 C33.14799880981445,-40.82600021362305 25.42265510559082,-36.50666427612305 15.034000396728516,-22.339000701904297 C5.455554008483887,-8.42555046081543 3.72398042678833,-11.088090896606445 -6.255343914031982,-7.468262672424316 C-16.158754348754883,-4.185826301574707 -16.023103713989258,2.3682212829589844 -21.576475143432617,12.87967586517334 C-27.14577865600586,23.303970336914062 -30.784290313720703,19.30251121520996 -39.90991973876953,21.644643783569336z"></path></g></g><g transform="matrix(1.2999999523162842,0,0,1,129.01600646972656,80.3479995727539)" opacity="1" style="display: block;"><g opacity="1" transform="matrix(2,0,0,2,0,0)"><path fill="url(&quot;#__lottie_element_1284&quot;)" fill-opacity="1" d=" M-39.90991973876953,21.644643783569336 C-47.26863479614258,23.489423751831055 -48.962554931640625,34.01222229003906 -49.49399948120117,39.117000579833984 C-46.72700119018555,39.78300094604492 -38.7482795715332,41.35868453979492 -31.381000518798828,39.117000579833984 C-22.207061767578125,36.38089370727539 -15.375528335571289,19.56475257873535 -11.70316219329834,14.517849922180176 C-9.407777786254883,10.189311981201172 -9.027040481567383,4.721018314361572 2.1747124195098877,6.699574947357178 C13.799493789672852,8.709996223449707 14.472617149353027,3.4334805011749268 18.950700759887695,-3.1437625885009766 C23.295700073242188,-9.620491027832031 28.839303970336914,-13.91617202758789 38.430999755859375,-9.847999572753906 C48.303035736083984,-5.883037090301514 44.46900177001953,-14.843999862670898 44.46900177001953,-22.339000701904297 C44.46900177001953,-29.833999633789062 55.790000915527344,-38.827999114990234 44.46900177001953,-39.82699966430664 C33.14799880981445,-40.82600021362305 25.42265510559082,-36.50666427612305 15.034000396728516,-22.339000701904297 C5.455554008483887,-8.42555046081543 3.72398042678833,-11.088090896606445 -6.255343914031982,-7.468262672424316 C-16.158754348754883,-4.185826301574707 -16.023103713989258,2.3682212829589844 -21.576475143432617,12.87967586517334 C-27.14577865600586,23.303970336914062 -30.784290313720703,19.30251121520996 -39.90991973876953,21.644643783569336z"></path></g></g><g transform="matrix(1.2999999523162842,0,0,-1,129.01600646972656,286.3479919433594)" opacity="1" style="display: block;"><g opacity="1" transform="matrix(2,0,0,2,0,0)"><path fill="url(&quot;#__lottie_element_1288&quot;)" fill-opacity="1" d=" M-39.90991973876953,21.644643783569336 C-47.26863479614258,23.489423751831055 -48.962554931640625,34.01222229003906 -49.49399948120117,39.117000579833984 C-46.72700119018555,39.78300094604492 -38.7482795715332,41.35868453979492 -31.381000518798828,39.117000579833984 C-22.207061767578125,36.38089370727539 -15.375528335571289,19.56475257873535 -11.70316219329834,14.517849922180176 C-9.407777786254883,10.189311981201172 -9.027040481567383,4.721018314361572 2.1747124195098877,6.699574947357178 C13.799493789672852,8.709996223449707 14.472617149353027,3.4334805011749268 18.950700759887695,-3.1437625885009766 C23.295700073242188,-9.620491027832031 28.839303970336914,-13.91617202758789 38.430999755859375,-9.847999572753906 C48.303035736083984,-5.883037090301514 44.46900177001953,-14.843999862670898 44.46900177001953,-22.339000701904297 C44.46900177001953,-29.833999633789062 55.790000915527344,-38.827999114990234 44.46900177001953,-39.82699966430664 C33.14799880981445,-40.82600021362305 25.42265510559082,-36.50666427612305 15.034000396728516,-22.339000701904297 C5.455554008483887,-8.42555046081543 3.72398042678833,-11.088090896606445 -6.255343914031982,-7.468262672424316 C-16.158754348754883,-4.185826301574707 -16.023103713989258,2.3682212829589844 -21.576475143432617,12.87967586517334 C-27.14577865600586,23.303970336914062 -30.784290313720703,19.30251121520996 -39.90991973876953,21.644643783569336z"></path></g></g><g transform="matrix(1.2999999523162842,0,0,-1,159.01600646972656,286.3479919433594)" opacity="1" style="display: block;"><g opacity="1" transform="matrix(2,0,0,2,0,0)"><path fill="url(&quot;#__lottie_element_1292&quot;)" fill-opacity="1" d=" M-39.90991973876953,21.644643783569336 C-47.26863479614258,23.489423751831055 -48.962554931640625,34.01222229003906 -49.49399948120117,39.117000579833984 C-46.72700119018555,39.78300094604492 -38.7482795715332,41.35868453979492 -31.381000518798828,39.117000579833984 C-22.207061767578125,36.38089370727539 -15.375528335571289,19.56475257873535 -11.70316219329834,14.517849922180176 C-9.407777786254883,10.189311981201172 -9.027040481567383,4.721018314361572 2.1747124195098877,6.699574947357178 C13.799493789672852,8.709996223449707 14.472617149353027,3.4334805011749268 18.950700759887695,-3.1437625885009766 C23.295700073242188,-9.620491027832031 28.839303970336914,-13.91617202758789 38.430999755859375,-9.847999572753906 C48.303035736083984,-5.883037090301514 44.46900177001953,-14.843999862670898 44.46900177001953,-22.339000701904297 C44.46900177001953,-29.833999633789062 55.790000915527344,-38.827999114990234 44.46900177001953,-39.82699966430664 C33.14799880981445,-40.82600021362305 25.42265510559082,-36.50666427612305 15.034000396728516,-22.339000701904297 C5.455554008483887,-8.42555046081543 3.72398042678833,-11.088090896606445 -6.255343914031982,-7.468262672424316 C-16.158754348754883,-4.185826301574707 -16.023103713989258,2.3682212829589844 -21.576475143432617,12.87967586517334 C-27.14577865600586,23.303970336914062 -30.784290313720703,19.30251121520996 -39.90991973876953,21.644643783569336z"></path></g></g></g><g transform="matrix(1,0,0,1,562,184)" opacity="1" style="display: block;"><g opacity="1" transform="matrix(2,0,0,2,0,0)"><path fill="url(&quot;#__lottie_element_1179&quot;)" fill-opacity="1" d=" M-245.53199768066406,-24 C-260.3190002441406,-20.399999618530273 -281,-16.724000930786133 -281,0 C-281,16.724000930786133 -260.3190002441406,20.399999618530273 -245.53199768066406,24 C-241.6529998779297,24.94499969482422 -237.04600524902344,26.240999221801758 -231.86199951171875,27.701000213623047 C-212.3470001220703,33.19599914550781 -184.63499450683594,41 -156.61099243164062,41 C-156.61099243164062,41 222.052001953125,41 222.052001953125,41 C237.875,41 266.1520080566406,33.229000091552734 279.6210021972656,28.94300079345703 C280.4469909667969,28.68000030517578 281,27.913000106811523 281,27.047000885009766 C281,27.047000885009766 281,-27.047000885009766 281,-27.047000885009766 C281,-27.913000106811523 280.4469909667969,-28.68000030517578 279.6210021972656,-28.94300079345703 C266.1520080566406,-33.229000091552734 237.875,-41 222.052001953125,-41 C222.052001953125,-41 -156.61099243164062,-41 -156.61099243164062,-41 C-184.63499450683594,-41 -212.3470001220703,-33.19599914550781 -231.86199951171875,-27.701000213623047 C-237.04600524902344,-26.240999221801758 -241.6529998779297,-24.944000244140625 -245.53199768066406,-24z"></path></g></g><g transform="matrix(1,0,0,1,101,184)" opacity="1" style="display: block;"><g opacity="1" transform="matrix(2,0,0,2,0,0)"><path fill="url(&quot;#__lottie_element_1183&quot;)" fill-opacity="1" d=" M50.5,39.374000549316406 C50.5,39.374000549316406 50.5,-39.374000549316406 50.5,-39.374000549316406 C30.93000030517578,-36.79399871826172 12.666000366210938,-31.650999069213867 -1.3619999885559082,-27.701000213623047 C-6.546000003814697,-26.240999221801758 -11.152999877929688,-24.944000244140625 -15.031999588012695,-24 C-16.047000885009766,-23.753000259399414 -17.089000701904297,-23.5049991607666 -18.150999069213867,-23.253000259399414 C-32.560001373291016,-19.83300018310547 -50.5,-15.576000213623047 -50.5,0 C-50.5,15.576000213623047 -32.560001373291016,19.83300018310547 -18.150999069213867,23.253000259399414 C-17.089000701904297,23.5049991607666 -16.047000885009766,23.753000259399414 -15.031999588012695,24 C-11.152999877929688,24.94499969482422 -6.546000003814697,26.240999221801758 -1.3619999885559082,27.701000213623047 C12.666000366210938,31.650999069213867 30.93000030517578,36.79399871826172 50.5,39.374000549316406z"></path></g></g><g clip-path="url(#__lottie_element_1185)" transform="matrix(1,0,0,1,250,130)" opacity="1" style="display: block;"><g clip-path="url(#__lottie_element_1294)" transform="matrix(1,0,0,1,0,0)" opacity="1" style="display: block;"><g transform="matrix(1,0,0,1,10,24)" opacity="1" style="display: block;"><g opacity="1" transform="matrix(2,0,0,2,0,0)"><path fill="#222222" fill-opacity="1" d=" M-5,-12 C-5,-12 -5,12 -5,12 C-5,12 5,12 5,12 C5,12 5,-12 5,-12 C5,-12 -5,-12 -5,-12z"></path></g></g></g><g clip-path="url(#__lottie_element_1298)" transform="matrix(1,0,0,1,24,0)" opacity="1" style="display: block;"><g transform="matrix(1,0,0,1,10,24)" opacity="1" style="display: block;"><g opacity="1" transform="matrix(2,0,0,2,0,0)"><path fill="#222222" fill-opacity="1" d=" M-5,-12 C-5,-12 -5,12 -5,12 C-5,12 5,12 5,12 C5,12 5,-12 5,-12 C5,-12 -5,-12 -5,-12z"></path></g></g></g><g clip-path="url(#__lottie_element_1302)" transform="matrix(1,0,0,1,48,0)" opacity="1" style="display: block;"><g transform="matrix(1,0,0,1,10,24)" opacity="1" style="display: block;"><g opacity="1" transform="matrix(2,0,0,2,0,0)"><path fill="#222222" fill-opacity="1" d=" M-5,-12 C-5,-12 -5,12 -5,12 C-5,12 5,12 5,12 C5,12 5,-12 5,-12 C5,-12 -5,-12 -5,-12z"></path></g></g></g><g clip-path="url(#__lottie_element_1306)" transform="matrix(1,0,0,1,72,0)" opacity="1" style="display: block;"><g transform="matrix(1,0,0,1,10,24)" opacity="1" style="display: block;"><g opacity="1" transform="matrix(2,0,0,2,0,0)"><path fill="#222222" fill-opacity="1" d=" M-5,-12 C-5,-12 -5,12 -5,12 C-5,12 5,12 5,12 C5,12 5,-12 5,-12 C5,-12 -5,-12 -5,-12z"></path></g></g></g><g clip-path="url(#__lottie_element_1310)" transform="matrix(1,0,0,1,96,0)" opacity="1" style="display: block;"><g transform="matrix(1,0,0,1,10,24)" opacity="1" style="display: block;"><g opacity="1" transform="matrix(2,0,0,2,0,0)"><path fill="#222222" fill-opacity="1" d=" M-5,-12 C-5,-12 -5,12 -5,12 C-5,12 5,12 5,12 C5,12 5,-12 5,-12 C5,-12 -5,-12 -5,-12z"></path></g></g></g><g clip-path="url(#__lottie_element_1314)" transform="matrix(1,0,0,1,120,0)" opacity="1" style="display: block;"><g transform="matrix(1,0,0,1,10,24)" opacity="1" style="display: block;"><g opacity="1" transform="matrix(2,0,0,2,0,0)"><path fill="#222222" fill-opacity="1" d=" M-5,-12 C-5,-12 -5,12 -5,12 C-5,12 5,12 5,12 C5,12 5,-12 5,-12 C5,-12 -5,-12 -5,-12z"></path></g></g></g></g><g clip-path="url(#__lottie_element_1189)" transform="matrix(1,0,0,1,422,130)" opacity="1" style="display: block;"><g clip-path="url(#__lottie_element_1336)" transform="matrix(1,0,0,1,0,0)" opacity="1" style="display: block;"><g transform="matrix(1,0,0,1,10,24)" opacity="1" style="display: block;"><g opacity="1" transform="matrix(2,0,0,2,0,0)"><path fill="#222222" fill-opacity="1" d=" M-5,-12 C-5,-12 -5,12 -5,12 C-5,12 5,12 5,12 C5,12 5,-12 5,-12 C5,-12 -5,-12 -5,-12z"></path></g></g></g><g clip-path="url(#__lottie_element_1340)" transform="matrix(1,0,0,1,24,0)" opacity="1" style="display: block;"><g transform="matrix(1,0,0,1,10,24)" opacity="1" style="display: block;"><g opacity="1" transform="matrix(2,0,0,2,0,0)"><path fill="#222222" fill-opacity="1" d=" M-5,-12 C-5,-12 -5,12 -5,12 C-5,12 5,12 5,12 C5,12 5,-12 5,-12 C5,-12 -5,-12 -5,-12z"></path></g></g></g><g clip-path="url(#__lottie_element_1344)" transform="matrix(1,0,0,1,48,0)" opacity="1" style="display: block;"><g transform="matrix(1,0,0,1,10,24)" opacity="1" style="display: block;"><g opacity="1" transform="matrix(2,0,0,2,0,0)"><path fill="#222222" fill-opacity="1" d=" M-5,-12 C-5,-12 -5,12 -5,12 C-5,12 5,12 5,12 C5,12 5,-12 5,-12 C5,-12 -5,-12 -5,-12z"></path></g></g></g><g clip-path="url(#__lottie_element_1348)" transform="matrix(1,0,0,1,72,0)" opacity="1" style="display: block;"><g transform="matrix(1,0,0,1,10,24)" opacity="1" style="display: block;"><g opacity="1" transform="matrix(2,0,0,2,0,0)"><path fill="#222222" fill-opacity="1" d=" M-5,-12 C-5,-12 -5,12 -5,12 C-5,12 5,12 5,12 C5,12 5,-12 5,-12 C5,-12 -5,-12 -5,-12z"></path></g></g></g><g clip-path="url(#__lottie_element_1352)" transform="matrix(1,0,0,1,96,0)" opacity="1" style="display: block;"><g transform="matrix(1,0,0,1,10,24)" opacity="1" style="display: block;"><g opacity="1" transform="matrix(2,0,0,2,0,0)"><path fill="#222222" fill-opacity="1" d=" M-5,-12 C-5,-12 -5,12 -5,12 C-5,12 5,12 5,12 C5,12 5,-12 5,-12 C5,-12 -5,-12 -5,-12z"></path></g></g></g><g clip-path="url(#__lottie_element_1356)" transform="matrix(1,0,0,1,120,0)" opacity="1" style="display: block;"><g transform="matrix(1,0,0,1,10,24)" opacity="1" style="display: block;"><g opacity="1" transform="matrix(2,0,0,2,0,0)"><path fill="#222222" fill-opacity="1" d=" M-5,-12 C-5,-12 -5,12 -5,12 C-5,12 5,12 5,12 C5,12 5,-12 5,-12 C5,-12 -5,-12 -5,-12z"></path></g></g></g></g><g clip-path="url(#__lottie_element_1193)" transform="matrix(1,0,0,1,594,130)" opacity="1" style="display: block;"><g clip-path="url(#__lottie_element_1378)" transform="matrix(1,0,0,1,0,0)" opacity="1" style="display: block;"><g transform="matrix(1,0,0,1,10,24)" opacity="1" style="display: block;"><g opacity="1" transform="matrix(2,0,0,2,0,0)"><path fill="#222222" fill-opacity="1" d=" M-5,-12 C-5,-12 -5,12 -5,12 C-5,12 5,12 5,12 C5,12 5,-12 5,-12 C5,-12 -5,-12 -5,-12z"></path></g></g></g><g clip-path="url(#__lottie_element_1382)" transform="matrix(1,0,0,1,24,0)" opacity="1" style="display: block;"><g transform="matrix(1,0,0,1,10,24)" opacity="1" style="display: block;"><g opacity="1" transform="matrix(2,0,0,2,0,0)"><path fill="#222222" fill-opacity="1" d=" M-5,-12 C-5,-12 -5,12 -5,12 C-5,12 5,12 5,12 C5,12 5,-12 5,-12 C5,-12 -5,-12 -5,-12z"></path></g></g></g><g clip-path="url(#__lottie_element_1386)" transform="matrix(1,0,0,1,48,0)" opacity="1" style="display: block;"><g transform="matrix(1,0,0,1,10,24)" opacity="1" style="display: block;"><g opacity="1" transform="matrix(2,0,0,2,0,0)"><path fill="#222222" fill-opacity="1" d=" M-5,-12 C-5,-12 -5,12 -5,12 C-5,12 5,12 5,12 C5,12 5,-12 5,-12 C5,-12 -5,-12 -5,-12z"></path></g></g></g><g clip-path="url(#__lottie_element_1390)" transform="matrix(1,0,0,1,72,0)" opacity="1" style="display: block;"><g transform="matrix(1,0,0,1,10,24)" opacity="1" style="display: block;"><g opacity="1" transform="matrix(2,0,0,2,0,0)"><path fill="#222222" fill-opacity="1" d=" M-5,-12 C-5,-12 -5,12 -5,12 C-5,12 5,12 5,12 C5,12 5,-12 5,-12 C5,-12 -5,-12 -5,-12z"></path></g></g></g><g clip-path="url(#__lottie_element_1394)" transform="matrix(1,0,0,1,96,0)" opacity="1" style="display: block;"><g transform="matrix(1,0,0,1,10,24)" opacity="1" style="display: block;"><g opacity="1" transform="matrix(2,0,0,2,0,0)"><path fill="#222222" fill-opacity="1" d=" M-5,-12 C-5,-12 -5,12 -5,12 C-5,12 5,12 5,12 C5,12 5,-12 5,-12 C5,-12 -5,-12 -5,-12z"></path></g></g></g><g clip-path="url(#__lottie_element_1398)" transform="matrix(1,0,0,1,120,0)" opacity="1" style="display: block;"><g transform="matrix(1,0,0,1,10,24)" opacity="1" style="display: block;"><g opacity="1" transform="matrix(2,0,0,2,0,0)"><path fill="#222222" fill-opacity="1" d=" M-5,-12 C-5,-12 -5,12 -5,12 C-5,12 5,12 5,12 C5,12 5,-12 5,-12 C5,-12 -5,-12 -5,-12z"></path></g></g></g></g><g clip-path="url(#__lottie_element_1197)" transform="matrix(1,0,0,1,250,190)" opacity="1" style="display: block;"><g clip-path="url(#__lottie_element_1420)" transform="matrix(1,0,0,1,0,0)" opacity="1" style="display: block;"><g transform="matrix(1,0,0,1,10,24)" opacity="1" style="display: block;"><g opacity="1" transform="matrix(2,0,0,2,0,0)"><path fill="#222222" fill-opacity="1" d=" M-5,-12 C-5,-12 -5,12 -5,12 C-5,12 5,12 5,12 C5,12 5,-12 5,-12 C5,-12 -5,-12 -5,-12z"></path></g></g></g><g clip-path="url(#__lottie_element_1424)" transform="matrix(1,0,0,1,24,0)" opacity="1" style="display: block;"><g transform="matrix(1,0,0,1,10,24)" opacity="1" style="display: block;"><g opacity="1" transform="matrix(2,0,0,2,0,0)"><path fill="#222222" fill-opacity="1" d=" M-5,-12 C-5,-12 -5,12 -5,12 C-5,12 5,12 5,12 C5,12 5,-12 5,-12 C5,-12 -5,-12 -5,-12z"></path></g></g></g><g clip-path="url(#__lottie_element_1428)" transform="matrix(1,0,0,1,48,0)" opacity="1" style="display: block;"><g transform="matrix(1,0,0,1,10,24)" opacity="1" style="display: block;"><g opacity="1" transform="matrix(2,0,0,2,0,0)"><path fill="#222222" fill-opacity="1" d=" M-5,-12 C-5,-12 -5,12 -5,12 C-5,12 5,12 5,12 C5,12 5,-12 5,-12 C5,-12 -5,-12 -5,-12z"></path></g></g></g><g clip-path="url(#__lottie_element_1432)" transform="matrix(1,0,0,1,72,0)" opacity="1" style="display: block;"><g transform="matrix(1,0,0,1,10,24)" opacity="1" style="display: block;"><g opacity="1" transform="matrix(2,0,0,2,0,0)"><path fill="#222222" fill-opacity="1" d=" M-5,-12 C-5,-12 -5,12 -5,12 C-5,12 5,12 5,12 C5,12 5,-12 5,-12 C5,-12 -5,-12 -5,-12z"></path></g></g></g><g clip-path="url(#__lottie_element_1436)" transform="matrix(1,0,0,1,96,0)" opacity="1" style="display: block;"><g transform="matrix(1,0,0,1,10,24)" opacity="1" style="display: block;"><g opacity="1" transform="matrix(2,0,0,2,0,0)"><path fill="#222222" fill-opacity="1" d=" M-5,-12 C-5,-12 -5,12 -5,12 C-5,12 5,12 5,12 C5,12 5,-12 5,-12 C5,-12 -5,-12 -5,-12z"></path></g></g></g><g clip-path="url(#__lottie_element_1440)" transform="matrix(1,0,0,1,120,0)" opacity="1" style="display: block;"><g transform="matrix(1,0,0,1,10,24)" opacity="1" style="display: block;"><g opacity="1" transform="matrix(2,0,0,2,0,0)"><path fill="#222222" fill-opacity="1" d=" M-5,-12 C-5,-12 -5,12 -5,12 C-5,12 5,12 5,12 C5,12 5,-12 5,-12 C5,-12 -5,-12 -5,-12z"></path></g></g></g></g><g clip-path="url(#__lottie_element_1201)" transform="matrix(1,0,0,1,422,190)" opacity="1" style="display: block;"><g clip-path="url(#__lottie_element_1462)" transform="matrix(1,0,0,1,0,0)" opacity="1" style="display: block;"><g transform="matrix(1,0,0,1,10,24)" opacity="1" style="display: block;"><g opacity="1" transform="matrix(2,0,0,2,0,0)"><path fill="#222222" fill-opacity="1" d=" M-5,-12 C-5,-12 -5,12 -5,12 C-5,12 5,12 5,12 C5,12 5,-12 5,-12 C5,-12 -5,-12 -5,-12z"></path></g></g></g><g clip-path="url(#__lottie_element_1466)" transform="matrix(1,0,0,1,24,0)" opacity="1" style="display: block;"><g transform="matrix(1,0,0,1,10,24)" opacity="1" style="display: block;"><g opacity="1" transform="matrix(2,0,0,2,0,0)"><path fill="#222222" fill-opacity="1" d=" M-5,-12 C-5,-12 -5,12 -5,12 C-5,12 5,12 5,12 C5,12 5,-12 5,-12 C5,-12 -5,-12 -5,-12z"></path></g></g></g><g clip-path="url(#__lottie_element_1470)" transform="matrix(1,0,0,1,48,0)" opacity="1" style="display: block;"><g transform="matrix(1,0,0,1,10,24)" opacity="1" style="display: block;"><g opacity="1" transform="matrix(2,0,0,2,0,0)"><path fill="#222222" fill-opacity="1" d=" M-5,-12 C-5,-12 -5,12 -5,12 C-5,12 5,12 5,12 C5,12 5,-12 5,-12 C5,-12 -5,-12 -5,-12z"></path></g></g></g><g clip-path="url(#__lottie_element_1474)" transform="matrix(1,0,0,1,72,0)" opacity="1" style="display: block;"><g transform="matrix(1,0,0,1,10,24)" opacity="1" style="display: block;"><g opacity="1" transform="matrix(2,0,0,2,0,0)"><path fill="#222222" fill-opacity="1" d=" M-5,-12 C-5,-12 -5,12 -5,12 C-5,12 5,12 5,12 C5,12 5,-12 5,-12 C5,-12 -5,-12 -5,-12z"></path></g></g></g><g clip-path="url(#__lottie_element_1478)" transform="matrix(1,0,0,1,96,0)" opacity="1" style="display: block;"><g transform="matrix(1,0,0,1,10,24)" opacity="1" style="display: block;"><g opacity="1" transform="matrix(2,0,0,2,0,0)"><path fill="#222222" fill-opacity="1" d=" M-5,-12 C-5,-12 -5,12 -5,12 C-5,12 5,12 5,12 C5,12 5,-12 5,-12 C5,-12 -5,-12 -5,-12z"></path></g></g></g><g clip-path="url(#__lottie_element_1482)" transform="matrix(1,0,0,1,120,0)" opacity="1" style="display: block;"><g transform="matrix(1,0,0,1,10,24)" opacity="1" style="display: block;"><g opacity="1" transform="matrix(2,0,0,2,0,0)"><path fill="#222222" fill-opacity="1" d=" M-5,-12 C-5,-12 -5,12 -5,12 C-5,12 5,12 5,12 C5,12 5,-12 5,-12 C5,-12 -5,-12 -5,-12z"></path></g></g></g></g><g clip-path="url(#__lottie_element_1205)" transform="matrix(1,0,0,1,594,190)" opacity="1" style="display: block;"><g clip-path="url(#__lottie_element_1504)" transform="matrix(1,0,0,1,0,0)" opacity="1" style="display: block;"><g transform="matrix(1,0,0,1,10,24)" opacity="1" style="display: block;"><g opacity="1" transform="matrix(2,0,0,2,0,0)"><path fill="#222222" fill-opacity="1" d=" M-5,-12 C-5,-12 -5,12 -5,12 C-5,12 5,12 5,12 C5,12 5,-12 5,-12 C5,-12 -5,-12 -5,-12z"></path></g></g></g><g clip-path="url(#__lottie_element_1508)" transform="matrix(1,0,0,1,24,0)" opacity="1" style="display: block;"><g transform="matrix(1,0,0,1,10,24)" opacity="1" style="display: block;"><g opacity="1" transform="matrix(2,0,0,2,0,0)"><path fill="#222222" fill-opacity="1" d=" M-5,-12 C-5,-12 -5,12 -5,12 C-5,12 5,12 5,12 C5,12 5,-12 5,-12 C5,-12 -5,-12 -5,-12z"></path></g></g></g><g clip-path="url(#__lottie_element_1512)" transform="matrix(1,0,0,1,48,0)" opacity="1" style="display: block;"><g transform="matrix(1,0,0,1,10,24)" opacity="1" style="display: block;"><g opacity="1" transform="matrix(2,0,0,2,0,0)"><path fill="#222222" fill-opacity="1" d=" M-5,-12 C-5,-12 -5,12 -5,12 C-5,12 5,12 5,12 C5,12 5,-12 5,-12 C5,-12 -5,-12 -5,-12z"></path></g></g></g><g clip-path="url(#__lottie_element_1516)" transform="matrix(1,0,0,1,72,0)" opacity="1" style="display: block;"><g transform="matrix(1,0,0,1,10,24)" opacity="1" style="display: block;"><g opacity="1" transform="matrix(2,0,0,2,0,0)"><path fill="#222222" fill-opacity="1" d=" M-5,-12 C-5,-12 -5,12 -5,12 C-5,12 5,12 5,12 C5,12 5,-12 5,-12 C5,-12 -5,-12 -5,-12z"></path></g></g></g><g clip-path="url(#__lottie_element_1520)" transform="matrix(1,0,0,1,96,0)" opacity="1" style="display: block;"><g transform="matrix(1,0,0,1,10,24)" opacity="1" style="display: block;"><g opacity="1" transform="matrix(2,0,0,2,0,0)"><path fill="#222222" fill-opacity="1" d=" M-5,-12 C-5,-12 -5,12 -5,12 C-5,12 5,12 5,12 C5,12 5,-12 5,-12 C5,-12 -5,-12 -5,-12z"></path></g></g></g><g clip-path="url(#__lottie_element_1524)" transform="matrix(1,0,0,1,120,0)" opacity="1" style="display: block;"><g transform="matrix(1,0,0,1,10,24)" opacity="1" style="display: block;"><g opacity="1" transform="matrix(2,0,0,2,0,0)"><path fill="#222222" fill-opacity="1" d=" M-5,-12 C-5,-12 -5,12 -5,12 C-5,12 5,12 5,12 C5,12 5,-12 5,-12 C5,-12 -5,-12 -5,-12z"></path></g></g></g></g><g transform="matrix(1,0,0,1,898,184)" opacity="1" style="display: block;"><g opacity="1" transform="matrix(2,0,0,2,0,0)"><path fill="#222222" fill-opacity="1" d=" M42,-37 C42,-37 42,37 42,37 C42,37 -42,37 -42,37 C-42,37 -42,-37 -42,-37 C-42,-37 42,-37 42,-37z"></path></g></g><g transform="matrix(1,0,0,1,870,184)" opacity="1" style="display: block;"><g opacity="1" transform="matrix(2,0,0,2,0,0)"><path fill="#FFAA48" fill-opacity="1" d=" M42,-31 C42,-31 42,31 42,31 C42,31 -42,31 -42,31 C-42,31 -42,-31 -42,-31 C-42,-31 42,-31 42,-31z"></path></g></g><g transform="matrix(1,0,0,1,1054,184)" opacity="1" style="display: block;"><g opacity="1" transform="matrix(2,0,0,2,0,0)"><path fill="#222222" fill-opacity="1" d=" M16,-14 C16,-14 16,14 16,14 C16,14 -16,14 -16,14 C-16,14 -16,-14 -16,-14 C-16,-14 16,-14 16,-14z"></path></g></g><g transform="matrix(1,0,0,1,1054,136)" opacity="1" style="display: block;"><g opacity="1" transform="matrix(2,0,0,2,0,0)"><path fill="#222222" fill-opacity="1" d=" M-7,-4 C-9.208999633789062,-4 -11,-2.2090001106262207 -11,0 C-11,2.2090001106262207 -9.208999633789062,4 -7,4 C-7,4 7,4 7,4 C9.208999633789062,4 11,2.2090001106262207 11,0 C11,-2.2090001106262207 9.208999633789062,-4 7,-4 C7,-4 -7,-4 -7,-4z"></path></g></g><g transform="matrix(1,0,0,1,742,110)" opacity="1" style="display: block;"><g opacity="1" transform="matrix(2,0,0,2,0,0)"><path fill="#FFAA48" fill-opacity="1" d=" M8,-2 C8,-2 8,2 8,2 C8,2 -8,2 -8,2 C-8,2 -8,-2 -8,-2 C-8,-2 8,-2 8,-2z"></path></g></g><g transform="matrix(1,0,0,1,544,110)" opacity="1" style="display: block;"><g opacity="1" transform="matrix(2,0,0,2,0,0)"><path fill="#FFAA48" fill-opacity="1" d=" M8,-2 C8,-2 8,2 8,2 C8,2 -8,2 -8,2 C-8,2 -8,-2 -8,-2 C-8,-2 8,-2 8,-2z"></path></g></g><g transform="matrix(1,0,0,1,346,110)" opacity="1" style="display: block;"><g opacity="1" transform="matrix(2,0,0,2,0,0)"><path fill="#FFAA48" fill-opacity="1" d=" M8,-2 C8,-2 8,2 8,2 C8,2 -8,2 -8,2 C-8,2 -8,-2 -8,-2 C-8,-2 8,-2 8,-2z"></path></g></g><g transform="matrix(1,0,0,1,742,258)" opacity="1" style="display: block;"><g opacity="1" transform="matrix(2,0,0,2,0,0)"><path fill="#FFAA48" fill-opacity="1" d=" M8,-2 C8,-2 8,2 8,2 C8,2 -8,2 -8,2 C-8,2 -8,-2 -8,-2 C-8,-2 8,-2 8,-2z"></path></g></g><g transform="matrix(1,0,0,1,544,258)" opacity="1" style="display: block;"><g opacity="1" transform="matrix(2,0,0,2,0,0)"><path fill="#FFAA48" fill-opacity="1" d=" M8,-2 C8,-2 8,2 8,2 C8,2 -8,2 -8,2 C-8,2 -8,-2 -8,-2 C-8,-2 8,-2 8,-2z"></path></g></g><g transform="matrix(1,0,0,1,346,258)" opacity="1" style="display: block;"><g opacity="1" transform="matrix(2,0,0,2,0,0)"><path fill="#FFAA48" fill-opacity="1" d=" M8,-2 C8,-2 8,2 8,2 C8,2 -8,2 -8,2 C-8,2 -8,-2 -8,-2 C-8,-2 8,-2 8,-2z"></path></g></g><g transform="matrix(1,0,0,1,1054,232)" opacity="1" style="display: block;"><g opacity="1" transform="matrix(2,0,0,2,0,0)"><path fill="#222222" fill-opacity="1" d=" M-7,-4 C-9.208999633789062,-4 -11,-2.2090001106262207 -11,0 C-11,2.2090001106262207 -9.208999633789062,4 -7,4 C-7,4 7,4 7,4 C9.208999633789062,4 11,2.2090001106262207 11,0 C11,-2.2090001106262207 9.208999633789062,-4 7,-4 C7,-4 -7,-4 -7,-4z"></path></g></g><g transform="matrix(1,0,0,1,904,184)" opacity="0.4" style="display: block;"><g opacity="1" transform="matrix(2,0,0,2,0,0)"><path fill="#222222" fill-opacity="1" d=" M3,-26 C3,-26 3,26 3,26 C3,26 -3,26 -3,26 C-3,26 -3,-26 -3,-26 C-3,-26 3,-26 3,-26z"></path></g></g><g transform="matrix(1,0,0,1,800,146)" opacity="0.4" style="display: block;"><g opacity="1" transform="matrix(2,0,0,2,0,0)"><path fill="#222222" fill-opacity="1" d=" M3,-6 C3,-6 3,6 3,6 C3,6 -3,6 -3,6 C-3,6 -3,-6 -3,-6 C-3,-6 3,-6 3,-6z"></path></g></g><g transform="matrix(1,0,0,1,1124,150)" opacity="1" style="display: block;"><g opacity="1" transform="matrix(2,0,0,2,0,0)"><path fill="#161616" fill-opacity="1" d=" M3,-6 C3,-6 3,6 3,6 C3,6 -3,6 -3,6 C-3,6 -3,-6 -3,-6 C-3,-6 3,-6 3,-6z"></path></g></g><g transform="matrix(1,0,0,1,1124,218)" opacity="1" style="display: block;"><g opacity="1" transform="matrix(2,0,0,2,0,0)"><path fill="#161616" fill-opacity="1" d=" M3,-6 C3,-6 3,6 3,6 C3,6 -3,6 -3,6 C-3,6 -3,-6 -3,-6 C-3,-6 3,-6 3,-6z"></path></g></g><g transform="matrix(1,0,0,1,178,186)" opacity="1" style="display: block;"><g opacity="1" transform="matrix(2,0,0,2,0,0)"><path fill="#161616" fill-opacity="0.4" d=" M3,-6 C3,-6 3,6 3,6 C3,6 -3,6 -3,6 C-3,6 -3,-6 -3,-6 C-3,-6 3,-6 3,-6z"></path></g></g><g transform="matrix(1,0,0,1,120,166)" opacity="1" style="display: block;"><g opacity="1" transform="matrix(2,0,0,2,0,0)"><path fill="#161616" fill-opacity="0.4" d=" M3,-3 C3,-3 3,3 3,3 C3,3 -3,3 -3,3 C-3,3 -3,-3 -3,-3 C-3,-3 3,-3 3,-3z"></path></g></g><g transform="matrix(1,0,0,1,120,202)" opacity="1" style="display: block;"><g opacity="1" transform="matrix(2,0,0,2,0,0)"><path fill="#161616" fill-opacity="0.4" d=" M3,-3 C3,-3 3,3 3,3 C3,3 -3,3 -3,3 C-3,3 -3,-3 -3,-3 C-3,-3 3,-3 3,-3z"></path></g></g><g transform="matrix(1,0,0,1,140,166)" opacity="1" style="display: block;"><g opacity="1" transform="matrix(2,0,0,2,0,0)"><path fill="#161616" fill-opacity="0.4" d=" M3,-3 C3,-3 3,3 3,3 C3,3 -3,3 -3,3 C-3,3 -3,-3 -3,-3 C-3,-3 3,-3 3,-3z"></path></g></g><g transform="matrix(1,0,0,1,140,202)" opacity="1" style="display: block;"><g opacity="1" transform="matrix(2,0,0,2,0,0)"><path fill="#161616" fill-opacity="0.4" d=" M3,-3 C3,-3 3,3 3,3 C3,3 -3,3 -3,3 C-3,3 -3,-3 -3,-3 C-3,-3 3,-3 3,-3z"></path></g></g><g transform="matrix(1,0,0,1,800,222)" opacity="0.4" style="display: block;"><g opacity="1" transform="matrix(2,0,0,2,0,0)"><path fill="#222222" fill-opacity="1" d=" M3,-6 C3,-6 3,6 3,6 C3,6 -3,6 -3,6 C-3,6 -3,-6 -3,-6 C-3,-6 3,-6 3,-6z"></path></g></g><g transform="matrix(1,0,0,1,854,184)" opacity="0.4" style="display: block;"><g opacity="1" transform="matrix(2,0,0,2,0,0)"><path fill="#222222" fill-opacity="1" d=" M0,-6 C3.3113999366760254,-6 6,-3.3113999366760254 6,0 C6,3.3113999366760254 3.3113999366760254,6 0,6 C-3.3113999366760254,6 -6,3.3113999366760254 -6,0 C-6,-3.3113999366760254 -3.3113999366760254,-6 0,-6z"></path></g></g><g transform="matrix(1,0,0,1,14,184)" opacity="0.2" style="display: block;"><g opacity="1" transform="matrix(2,0,0,2,0,0)"><path fill="#222222" fill-opacity="1" d=" M-7,0 C-7,-9.065999984741211 -0.921999990940094,-14.29800033569336 7,-17.761999130249023 C7,-17.761999130249023 7,17.761999130249023 7,17.761999130249023 C-0.921999990940094,14.29800033569336 -7,9.065999984741211 -7,0z"></path></g></g></g></svg>