<svg xmlns:xlink="http://www.w3.org/1999/xlink" xmlns="http://www.w3.org/2000/svg" viewBox="0 0 520 840" width="520" height="840" preserveAspectRatio="xMidYMid meet" style="width: 100%; height: 100%; transform: translate3d(0px, 0px, 0px);"><defs><clipPath id="__lottie_element_900"><rect width="520" height="840" x="0" y="0"></rect></clipPath><clipPath id="__lottie_element_902"><path d="M0,0 L380,0 L380,604 L0,604z"></path></clipPath><linearGradient id="__lottie_element_908" spreadMethod="pad" gradientUnits="userSpaceOnUse" x1="0" y1="-50" x2="0" y2="50"><stop offset="0%" stop-color="rgb(102,102,102)" stop-opacity="0"></stop><stop offset="50%" stop-color="rgb(102,102,102)" stop-opacity="0.5"></stop><stop offset="100%" stop-color="rgb(102,102,102)" stop-opacity="1"></stop></linearGradient><linearGradient id="__lottie_element_912" spreadMethod="pad" gradientUnits="userSpaceOnUse" x1="0" y1="-97.5" x2="0" y2="97.5"><stop offset="0%" stop-color="rgb(255,255,255)" stop-opacity="1"></stop><stop offset="50%" stop-color="rgb(255,255,255)" stop-opacity="0.5"></stop><stop offset="100%" stop-color="rgb(255,255,255)" stop-opacity="0"></stop></linearGradient><linearGradient id="__lottie_element_916" spreadMethod="pad" gradientUnits="userSpaceOnUse" x1="0" y1="-35" x2="0" y2="35"><stop offset="0%" stop-color="rgb(255,255,255)" stop-opacity="0"></stop><stop offset="50%" stop-color="rgb(255,255,255)" stop-opacity="0.5"></stop><stop offset="100%" stop-color="rgb(255,255,255)" stop-opacity="1"></stop></linearGradient><linearGradient id="__lottie_element_923" spreadMethod="pad" gradientUnits="userSpaceOnUse" x1="0" y1="-39" x2="0" y2="39"><stop offset="0%" stop-color="rgb(204,204,204)" stop-opacity="0"></stop><stop offset="50%" stop-color="rgb(204,204,204)" stop-opacity="0.5"></stop><stop offset="100%" stop-color="rgb(204,204,204)" stop-opacity="1"></stop></linearGradient><linearGradient id="__lottie_element_927" spreadMethod="pad" gradientUnits="userSpaceOnUse" x1="0" y1="-54" x2="0" y2="54"><stop offset="0%" stop-color="rgb(217,134,37)"></stop><stop offset="50%" stop-color="rgb(236,152,55)"></stop><stop offset="100%" stop-color="rgb(255,171,72)"></stop></linearGradient><clipPath id="__lottie_element_932"><path d="M0,0 L380,0 L380,604 L0,604z"></path></clipPath><linearGradient id="__lottie_element_908" spreadMethod="pad" gradientUnits="userSpaceOnUse" x1="0" y1="-50" x2="0" y2="50"><stop offset="0%" stop-color="rgb(102,102,102)" stop-opacity="0"></stop><stop offset="50%" stop-color="rgb(102,102,102)" stop-opacity="0.5"></stop><stop offset="100%" stop-color="rgb(102,102,102)" stop-opacity="1"></stop></linearGradient><linearGradient id="__lottie_element_912" spreadMethod="pad" gradientUnits="userSpaceOnUse" x1="0" y1="-97.5" x2="0" y2="97.5"><stop offset="0%" stop-color="rgb(255,255,255)" stop-opacity="1"></stop><stop offset="50%" stop-color="rgb(255,255,255)" stop-opacity="0.5"></stop><stop offset="100%" stop-color="rgb(255,255,255)" stop-opacity="0"></stop></linearGradient><linearGradient id="__lottie_element_916" spreadMethod="pad" gradientUnits="userSpaceOnUse" x1="0" y1="-35" x2="0" y2="35"><stop offset="0%" stop-color="rgb(255,255,255)" stop-opacity="0"></stop><stop offset="50%" stop-color="rgb(255,255,255)" stop-opacity="0.5"></stop><stop offset="100%" stop-color="rgb(255,255,255)" stop-opacity="1"></stop></linearGradient><linearGradient id="__lottie_element_923" spreadMethod="pad" gradientUnits="userSpaceOnUse" x1="0" y1="-39" x2="0" y2="39"><stop offset="0%" stop-color="rgb(204,204,204)" stop-opacity="0"></stop><stop offset="50%" stop-color="rgb(204,204,204)" stop-opacity="0.5"></stop><stop offset="100%" stop-color="rgb(204,204,204)" stop-opacity="1"></stop></linearGradient><linearGradient id="__lottie_element_927" spreadMethod="pad" gradientUnits="userSpaceOnUse" x1="0" y1="-54" x2="0" y2="54"><stop offset="0%" stop-color="rgb(217,134,37)"></stop><stop offset="50%" stop-color="rgb(236,152,55)"></stop><stop offset="100%" stop-color="rgb(255,171,72)"></stop></linearGradient></defs><g clip-path="url(#__lottie_element_900)"><g clip-path="url(#__lottie_element_902)" transform="matrix(1,0,0,1,70,242)" opacity="1" style="display: block;"><g transform="matrix(1,0,0,1,190,494)" opacity="1" style="display: block;"><g opacity="1" transform="matrix(2,0,0,2,0,0)"><path stroke="url(&quot;#__lottie_element_908&quot;)" stroke-linecap="butt" stroke-linejoin="miter" fill-opacity="0" stroke-miterlimit="4" stroke-opacity="1" stroke-width="3px" d=" M0,-50 C49.67100143432617,-50 90,-27.594999313354492 90,0 C90,27.594999313354492 49.67100143432617,50 0,50 C-49.67100143432617,50 -90,27.594999313354492 -90,0 C-90,-27.594999313354492 -49.67100143432617,-50 0,-50z"></path></g></g><g transform="matrix(1,0,0,1,190,295)" opacity="1" style="display: block;"><g opacity="1" transform="matrix(2,0,0,2,0,0)"><path fill="url(&quot;#__lottie_element_912&quot;)" fill-opacity="1" d=" M90,-97.5 C90,-97.5 -90,-97.5 -90,-97.5 C-90,-97.5 -70,97.5 -70,97.5 C-70,97.5 70,97.5 70,97.5 C70,97.5 90,-97.5 90,-97.5z"></path></g></g><g transform="matrix(1,0,0,1,190,484)" opacity="1" style="display: block;"><g opacity="1" transform="matrix(2,0,0,2,0,0)"><path fill="url(&quot;#__lottie_element_916&quot;)" fill-opacity="1" d=" M0,-35 C38.632999420166016,-35 70,-19.316499710083008 70,0 C70,19.316499710083008 38.632999420166016,35 0,35 C-38.632999420166016,35 -70,19.316499710083008 -70,0 C-70,-19.316499710083008 -38.632999420166016,-35 0,-35z"></path></g></g><g transform="matrix(1,0,0,1,190,100)" opacity="1" style="display: block;"><g opacity="1" transform="matrix(2,0,0,2,0,0)"><path fill="#FFFFFF" fill-opacity="1" d=" M0,-45 C49.67100143432617,-45 90,-24.835500717163086 90,0 C90,24.835500717163086 49.67100143432617,45 0,45 C-49.67100143432617,45 -90,24.835500717163086 -90,0 C-90,-24.835500717163086 -49.67100143432617,-45 0,-45z"></path></g></g><g transform="matrix(1,0,0,1,190,100)" opacity="1" style="display: block;"><g opacity="1" transform="matrix(2,0,0,2,0,0)"><path fill="url(&quot;#__lottie_element_923&quot;)" fill-opacity="1" d=" M0,-39 C46.35960006713867,-39 84,-21.524099349975586 84,0 C84,21.524099349975586 46.35960006713867,39 0,39 C-46.35960006713867,39 -84,21.524099349975586 -84,0 C-84,-21.524099349975586 -46.35960006713867,-39 0,-39z"></path></g></g><g transform="matrix(1,0,0,1,190,376)" opacity="1" style="display: block;"><g opacity="1" transform="matrix(2,0,0,2,0,0)"><path fill="url(&quot;#__lottie_element_927&quot;)" fill-opacity="1" d=" M60,54 C60,54 -60,54 -60,54 C-60,54 -60,54 -60,54 C-60,54 60,54 60,54 C60,54 60,54 60,54z"></path></g></g><g transform="matrix(0,0,0,0,190,484)" opacity="1" style="display: block;"><g opacity="1" transform="matrix(2,0,0,2,0,0)"><path fill="#FFAA48" fill-opacity="1" d=" M0,-27 C33.11399841308594,-27 60,-14.901300430297852 60,0 C60,14.901300430297852 33.11399841308594,27 0,27 C-33.11399841308594,27 -60,14.901300430297852 -60,0 C-60,-14.901300430297852 -33.11399841308594,-27 0,-27z"></path></g></g><g clip-path="url(#__lottie_element_932)" transform="matrix(0.8500000238418579,0,0,0.8500000238418579,28.5,253.29998779296875)" opacity="0" style="display: block;"><g transform="matrix(1,0,0,1,190,228)" opacity="1" style="display: block;"><g opacity="1" transform="matrix(2,0,0,2,0,0)"><path fill="#FFFFFF" fill-opacity="0.6" d=" M70,20 C70,20.83099937438965 69.91600036621094,21.65399932861328 69.75299835205078,22.468000411987305 C69.75299835205078,22.468000411987305 70,20 70,20 C70,36.569000244140625 38.65999984741211,50 0,50 C-38.65999984741211,50 -70,36.569000244140625 -70,20 C-70,20 -69.75299835205078,22.468000411987305 -69.75299835205078,22.468000411987305 C-69.91600036621094,21.65399932861328 -70,20.83099937438965 -70,20 C-70,3.430999994277954 -40.86899948120117,-10 0,-10 C40.86899948120117,-10 70,3.430999994277954 70,20z"></path></g></g><g transform="matrix(0.949999988079071,0,0,0.949999988079071,190,266)" opacity="1" style="display: block;"><g opacity="1" transform="matrix(2,0,0,2,0,0)"><path fill="#FFFFFF" fill-opacity="0.6" d=" M0,-30 C40.840599060058594,-30 74,-16.55699920654297 74,0 C74,16.55699920654297 40.840599060058594,30 0,30 C-40.840599060058594,30 -74,16.55699920654297 -74,0 C-74,-16.55699920654297 -40.840599060058594,-30 0,-30z"></path></g></g></g></g></g></svg>