<svg xmlns:xlink="http://www.w3.org/1999/xlink" xmlns="http://www.w3.org/2000/svg" viewBox="0 0 1400 800" width="1400" height="800" preserveAspectRatio="xMidYMid meet" style="width: 100%; height: 100%; transform: translate3d(0px, 0px, 0px);"><defs><clipPath id="__lottie_element_228"><rect width="1400" height="800" x="0" y="0"></rect></clipPath><clipPath id="__lottie_element_230"><path d="M0,0 L640,0 L640,200 L0,200z"></path></clipPath><clipPath id="__lottie_element_234"><path d="M0,0 L560,0 L560,560 L0,560z"></path></clipPath><clipPath id="__lottie_element_238"><path d="M0,0 L420,0 L420,420 L0,420z"></path></clipPath><clipPath id="__lottie_element_242"><path d="M0,0 L420,0 L420,420 L0,420z"></path></clipPath><clipPath id="__lottie_element_246"><path d="M0,0 L420,0 L420,420 L0,420z"></path></clipPath><linearGradient id="__lottie_element_252" spreadMethod="pad" gradientUnits="userSpaceOnUse" x1="0" y1="-39" x2="0" y2="39"><stop offset="0%" stop-color="rgb(51,51,51)" stop-opacity="0"></stop><stop offset="50%" stop-color="rgb(51,51,51)" stop-opacity="0.5"></stop><stop offset="100%" stop-color="rgb(51,51,51)" stop-opacity="1"></stop></linearGradient><linearGradient id="__lottie_element_256" spreadMethod="pad" gradientUnits="userSpaceOnUse" x1="0" y1="-39" x2="0" y2="39"><stop offset="0%" stop-color="rgb(51,51,51)" stop-opacity="0"></stop><stop offset="50%" stop-color="rgb(51,51,51)" stop-opacity="0.5"></stop><stop offset="100%" stop-color="rgb(51,51,51)" stop-opacity="1"></stop></linearGradient><linearGradient id="__lottie_element_260" spreadMethod="pad" gradientUnits="userSpaceOnUse" x1="0" y1="-39" x2="0" y2="39"><stop offset="0%" stop-color="rgb(51,51,51)" stop-opacity="0"></stop><stop offset="50%" stop-color="rgb(51,51,51)" stop-opacity="0.5"></stop><stop offset="100%" stop-color="rgb(51,51,51)" stop-opacity="1"></stop></linearGradient><clipPath id="__lottie_element_271"><path d="M0,0 L420,0 L420,420 L0,420z"></path></clipPath><linearGradient id="__lottie_element_277" spreadMethod="pad" gradientUnits="userSpaceOnUse" x1="0" y1="-51.948001861572266" x2="0" y2="51.948001861572266"><stop offset="0%" stop-color="rgb(51,51,51)" stop-opacity="1"></stop><stop offset="50%" stop-color="rgb(51,51,51)" stop-opacity="0.5"></stop><stop offset="100%" stop-color="rgb(51,51,51)" stop-opacity="0"></stop></linearGradient><clipPath id="__lottie_element_279"><path d="M0,0 L330,0 L330,297 L0,297z"></path></clipPath><clipPath id="__lottie_element_286"><path d="M0,0 L330,0 L330,297 L0,297z"></path></clipPath><clipPath id="__lottie_element_302"><path d="M0,0 L420,0 L420,420 L0,420z"></path></clipPath><linearGradient id="__lottie_element_308" spreadMethod="pad" gradientUnits="userSpaceOnUse" x1="0" y1="-51.948001861572266" x2="0" y2="51.948001861572266"><stop offset="0%" stop-color="rgb(51,51,51)" stop-opacity="1"></stop><stop offset="50%" stop-color="rgb(51,51,51)" stop-opacity="0.5"></stop><stop offset="100%" stop-color="rgb(51,51,51)" stop-opacity="0"></stop></linearGradient><clipPath id="__lottie_element_310"><path d="M0,0 L330,0 L330,297 L0,297z"></path></clipPath><clipPath id="__lottie_element_317"><path d="M0,0 L330,0 L330,297 L0,297z"></path></clipPath><clipPath id="__lottie_element_333"><path d="M0,0 L420,0 L420,420 L0,420z"></path></clipPath><linearGradient id="__lottie_element_339" spreadMethod="pad" gradientUnits="userSpaceOnUse" x1="0" y1="-51.948001861572266" x2="0" y2="51.948001861572266"><stop offset="0%" stop-color="rgb(51,51,51)" stop-opacity="1"></stop><stop offset="50%" stop-color="rgb(51,51,51)" stop-opacity="0.5"></stop><stop offset="100%" stop-color="rgb(51,51,51)" stop-opacity="0"></stop></linearGradient><clipPath id="__lottie_element_341"><path d="M0,0 L330,0 L330,297 L0,297z"></path></clipPath><clipPath id="__lottie_element_348"><path d="M0,0 L330,0 L330,297 L0,297z"></path></clipPath><linearGradient id="__lottie_element_252" spreadMethod="pad" gradientUnits="userSpaceOnUse" x1="0" y1="-39" x2="0" y2="39"><stop offset="0%" stop-color="rgb(51,51,51)" stop-opacity="0"></stop><stop offset="50%" stop-color="rgb(51,51,51)" stop-opacity="0.5"></stop><stop offset="100%" stop-color="rgb(51,51,51)" stop-opacity="1"></stop></linearGradient><linearGradient id="__lottie_element_256" spreadMethod="pad" gradientUnits="userSpaceOnUse" x1="0" y1="-39" x2="0" y2="39"><stop offset="0%" stop-color="rgb(51,51,51)" stop-opacity="0"></stop><stop offset="50%" stop-color="rgb(51,51,51)" stop-opacity="0.5"></stop><stop offset="100%" stop-color="rgb(51,51,51)" stop-opacity="1"></stop></linearGradient><linearGradient id="__lottie_element_260" spreadMethod="pad" gradientUnits="userSpaceOnUse" x1="0" y1="-39" x2="0" y2="39"><stop offset="0%" stop-color="rgb(51,51,51)" stop-opacity="0"></stop><stop offset="50%" stop-color="rgb(51,51,51)" stop-opacity="0.5"></stop><stop offset="100%" stop-color="rgb(51,51,51)" stop-opacity="1"></stop></linearGradient><linearGradient id="__lottie_element_277" spreadMethod="pad" gradientUnits="userSpaceOnUse" x1="0" y1="-51.948001861572266" x2="0" y2="51.948001861572266"><stop offset="0%" stop-color="rgb(51,51,51)" stop-opacity="1"></stop><stop offset="50%" stop-color="rgb(51,51,51)" stop-opacity="0.5"></stop><stop offset="100%" stop-color="rgb(51,51,51)" stop-opacity="0"></stop></linearGradient><linearGradient id="__lottie_element_308" spreadMethod="pad" gradientUnits="userSpaceOnUse" x1="0" y1="-51.948001861572266" x2="0" y2="51.948001861572266"><stop offset="0%" stop-color="rgb(51,51,51)" stop-opacity="1"></stop><stop offset="50%" stop-color="rgb(51,51,51)" stop-opacity="0.5"></stop><stop offset="100%" stop-color="rgb(51,51,51)" stop-opacity="0"></stop></linearGradient><linearGradient id="__lottie_element_339" spreadMethod="pad" gradientUnits="userSpaceOnUse" x1="0" y1="-51.948001861572266" x2="0" y2="51.948001861572266"><stop offset="0%" stop-color="rgb(51,51,51)" stop-opacity="1"></stop><stop offset="50%" stop-color="rgb(51,51,51)" stop-opacity="0.5"></stop><stop offset="100%" stop-color="rgb(51,51,51)" stop-opacity="0"></stop></linearGradient></defs><g clip-path="url(#__lottie_element_228)"><g clip-path="url(#__lottie_element_230)" transform="matrix(1,0,0,1,225,462)" opacity="1" style="display: block;"><g transform="matrix(1,0,0,1,320,100)" opacity="1" style="display: block;"><g opacity="1" transform="matrix(2,0,0,2,0,0)"><path stroke="url(&quot;#__lottie_element_252&quot;)" stroke-linecap="butt" stroke-linejoin="miter" fill-opacity="0" stroke-miterlimit="4" stroke-opacity="1" stroke-width="1" d="M0 0"></path></g></g><g transform="matrix(1,0,0,1,209,100)" opacity="1" style="display: block;"><g opacity="1" transform="matrix(2,0,0,2,0,0)"><path stroke="url(&quot;#__lottie_element_256&quot;)" stroke-linecap="butt" stroke-linejoin="miter" fill-opacity="0" stroke-miterlimit="4" stroke-opacity="1" stroke-width="1" d="M0 0"></path></g></g><g transform="matrix(1,0,0,1,407,100)" opacity="1" style="display: block;"><g opacity="1" transform="matrix(2,0,0,2,0,0)"><path stroke="url(&quot;#__lottie_element_260&quot;)" stroke-linecap="butt" stroke-linejoin="miter" fill-opacity="0" stroke-miterlimit="4" stroke-opacity="1" stroke-width="1" d="M0 0"></path></g></g></g><g clip-path="url(#__lottie_element_234)" transform="matrix(1,0,0,1,788,192)" opacity="1" style="display: block;"><g transform="matrix(0,0,0,0,280,280)" opacity="0.1" style="display: block;"><g opacity="1" transform="matrix(2,0,0,2,0,0)"><path fill="#FFFFFF" fill-opacity="1" d=" M0,-130 C71.74700164794922,-130 130,-71.74700164794922 130,0 C130,71.74700164794922 71.74700164794922,130 0,130 C-71.74700164794922,130 -130,71.74700164794922 -130,0 C-130,-71.74700164794922 -71.74700164794922,-130 0,-130z"></path></g></g><g transform="matrix(1,0,0,1,280,280)" opacity="1" style="display: block;"><g opacity="1" transform="matrix(2,0,0,2,0,0)"><path stroke-linecap="butt" stroke-linejoin="miter" fill-opacity="0" stroke-miterlimit="4" stroke="#FFAA48" stroke-opacity="1" stroke-width="10px" d="M0 0"></path></g></g></g><g clip-path="url(#__lottie_element_238)" transform="matrix(1,0,0,1,428,98)" opacity="0" style="display: block;"><g transform="matrix(1,0,0,1,210,210)" opacity="1" style="display: block;"><g opacity="1" transform="matrix(2,0,0,2,0,0)"></g></g><g clip-path="url(#__lottie_element_271)" transform="matrix(1,0,0,1,-2.0489959716796875,-1)" opacity="1" style="display: block;"><g transform="matrix(1,0,0,1,206.26600646972656,305.10400390625)" opacity="1" style="display: block;"><g opacity="1" transform="matrix(2,0,0,2,0,0)"><path fill="url(&quot;#__lottie_element_277&quot;)" fill-opacity="1" d=" M4.453000068664551,-51.948001861572266 C4.453000068664551,-51.948001861572266 -4.453000068664551,-51.948001861572266 -4.453000068664551,-51.948001861572266 C-4.453000068664551,-51.948001861572266 -8.163000106811523,51.948001861572266 -8.163000106811523,51.948001861572266 C-8.163000106811523,51.948001861572266 8.163000106811523,51.948001861572266 8.163000106811523,51.948001861572266 C8.163000106811523,51.948001861572266 4.453000068664551,-51.948001861572266 4.453000068664551,-51.948001861572266z"></path></g></g><g clip-path="url(#__lottie_element_279)" transform="matrix(1,0,0,1,44.97999572753906,10.819000244140625)" opacity="1" style="display: block;"><g clip-path="url(#__lottie_element_286)" transform="matrix(1,0,0,1,-0.0200042724609375,-0.180999755859375)" opacity="1" style="display: block;"><g transform="matrix(1,0,0,1,151.6929931640625,96.10399627685547)" opacity="1" style="display: block;"><g opacity="1" transform="matrix(2,0,0,2,0,0)"><path fill="#333333" fill-opacity="1" d=" M-4.888999938964844,15.348999977111816 C-4.888999938964844,15.348999977111816 -0.6200000047683716,-46.097999572753906 -0.6200000047683716,-46.097999572753906 C-0.5440000295639038,-47.198001861572266 0.3709999918937683,-48.051998138427734 1.4739999771118164,-48.051998138427734 C2.621000051498413,-48.051998138427734 3.555999994277954,-47.13199996948242 3.572999954223633,-45.98500061035156 C3.572999954223633,-45.98500061035156 5.005000114440918,48.051998138427734 5.005000114440918,48.051998138427734 C-2.184999942779541,38.72999954223633 -5.704999923706055,27.0939998626709 -4.888999938964844,15.348999977111816z"></path></g></g><g transform="matrix(1,0,0,1,245.83200073242188,238.06100463867188)" opacity="1" style="display: block;"><g opacity="1" transform="matrix(2,0,0,2,0,0)"><path fill="#333333" fill-opacity="1" d=" M-9.069000244140625,-15.029999732971191 C-9.069000244140625,-15.029999732971191 41.12900161743164,19.340999603271484 41.12900161743164,19.340999603271484 C42.04899978637695,19.97100067138672 42.334999084472656,21.209999084472656 41.784000396728516,22.17799949645996 C41.209999084472656,23.18600082397461 39.93899917602539,23.535999298095703 38.93000030517578,22.965999603271484 C38.93000030517578,22.965999603271484 -42.06399917602539,-22.773000717163086 -42.06399917602539,-22.773000717163086 C-30.520000457763672,-24.423999786376953 -18.756000518798828,-21.663000106811523 -9.069000244140625,-15.029999732971191z"></path></g></g><g transform="matrix(1,0,0,1,80.59600067138672,244.42300415039062)" opacity="1" style="display: block;"><g opacity="1" transform="matrix(2,0,0,2,0,0)"><path fill="#333333" fill-opacity="1" d=" M17.187999725341797,-1.0049999952316284 C17.187999725341797,-1.0049999952316284 -37.268001556396484,25.888999938964844 -37.268001556396484,25.888999938964844 C-38.26599884033203,26.381999969482422 -39.46699905395508,26.013999938964844 -40.018001556396484,25.04599952697754 C-40.59199905395508,24.038000106811523 -40.25600051879883,22.746999740600586 -39.263999938964844,22.145999908447266 C-39.263999938964844,22.145999908447266 40.29800033569336,-26.107999801635742 40.29800033569336,-26.107999801635742 C35.93600082397461,-15.145999908447266 27.695999145507812,-6.195000171661377 17.187999725341797,-1.0049999952316284z"></path></g></g></g></g><g transform="matrix(1,0,0,1,206.26499938964844,201.20799255371094)" opacity="1" style="display: block;"><g opacity="1" transform="matrix(2,0,0,2,0,0)"><path fill="#444444" fill-opacity="1" d=" M0,-7.421000003814697 C4.095649719238281,-7.421000003814697 7.421000003814697,-4.095649719238281 7.421000003814697,0 C7.421000003814697,4.095649719238281 4.095649719238281,7.421000003814697 0,7.421000003814697 C-4.095649719238281,7.421000003814697 -7.421000003814697,4.095649719238281 -7.421000003814697,0 C-7.421000003814697,-4.095649719238281 -4.095649719238281,-7.421000003814697 0,-7.421000003814697z"></path></g></g></g></g><g clip-path="url(#__lottie_element_242)" transform="matrix(1,0,0,1,230,98)" opacity="0" style="display: block;"><g transform="matrix(1,0,0,1,210,210)" opacity="1" style="display: block;"><g opacity="1" transform="matrix(2,0,0,2,0,0)"></g></g><g clip-path="url(#__lottie_element_302)" transform="matrix(1,0,0,1,-2.0489959716796875,-1)" opacity="1" style="display: block;"><g transform="matrix(1,0,0,1,206.26600646972656,305.10400390625)" opacity="1" style="display: block;"><g opacity="1" transform="matrix(2,0,0,2,0,0)"><path fill="url(&quot;#__lottie_element_308&quot;)" fill-opacity="1" d=" M4.453000068664551,-51.948001861572266 C4.453000068664551,-51.948001861572266 -4.453000068664551,-51.948001861572266 -4.453000068664551,-51.948001861572266 C-4.453000068664551,-51.948001861572266 -8.163000106811523,51.948001861572266 -8.163000106811523,51.948001861572266 C-8.163000106811523,51.948001861572266 8.163000106811523,51.948001861572266 8.163000106811523,51.948001861572266 C8.163000106811523,51.948001861572266 4.453000068664551,-51.948001861572266 4.453000068664551,-51.948001861572266z"></path></g></g><g clip-path="url(#__lottie_element_310)" transform="matrix(1,0,0,1,44.97999572753906,10.819000244140625)" opacity="1" style="display: block;"><g clip-path="url(#__lottie_element_317)" transform="matrix(1,0,0,1,-0.0200042724609375,-0.180999755859375)" opacity="1" style="display: block;"><g transform="matrix(1,0,0,1,151.6929931640625,96.10399627685547)" opacity="1" style="display: block;"><g opacity="1" transform="matrix(2,0,0,2,0,0)"><path fill="#333333" fill-opacity="1" d=" M-4.888999938964844,15.348999977111816 C-4.888999938964844,15.348999977111816 -0.6200000047683716,-46.097999572753906 -0.6200000047683716,-46.097999572753906 C-0.5440000295639038,-47.198001861572266 0.3709999918937683,-48.051998138427734 1.4739999771118164,-48.051998138427734 C2.621000051498413,-48.051998138427734 3.555999994277954,-47.13199996948242 3.572999954223633,-45.98500061035156 C3.572999954223633,-45.98500061035156 5.005000114440918,48.051998138427734 5.005000114440918,48.051998138427734 C-2.184999942779541,38.72999954223633 -5.704999923706055,27.0939998626709 -4.888999938964844,15.348999977111816z"></path></g></g><g transform="matrix(1,0,0,1,245.83200073242188,238.06100463867188)" opacity="1" style="display: block;"><g opacity="1" transform="matrix(2,0,0,2,0,0)"><path fill="#333333" fill-opacity="1" d=" M-9.069000244140625,-15.029999732971191 C-9.069000244140625,-15.029999732971191 41.12900161743164,19.340999603271484 41.12900161743164,19.340999603271484 C42.04899978637695,19.97100067138672 42.334999084472656,21.209999084472656 41.784000396728516,22.17799949645996 C41.209999084472656,23.18600082397461 39.93899917602539,23.535999298095703 38.93000030517578,22.965999603271484 C38.93000030517578,22.965999603271484 -42.06399917602539,-22.773000717163086 -42.06399917602539,-22.773000717163086 C-30.520000457763672,-24.423999786376953 -18.756000518798828,-21.663000106811523 -9.069000244140625,-15.029999732971191z"></path></g></g><g transform="matrix(1,0,0,1,80.59600067138672,244.42300415039062)" opacity="1" style="display: block;"><g opacity="1" transform="matrix(2,0,0,2,0,0)"><path fill="#333333" fill-opacity="1" d=" M17.187999725341797,-1.0049999952316284 C17.187999725341797,-1.0049999952316284 -37.268001556396484,25.888999938964844 -37.268001556396484,25.888999938964844 C-38.26599884033203,26.381999969482422 -39.46699905395508,26.013999938964844 -40.018001556396484,25.04599952697754 C-40.59199905395508,24.038000106811523 -40.25600051879883,22.746999740600586 -39.263999938964844,22.145999908447266 C-39.263999938964844,22.145999908447266 40.29800033569336,-26.107999801635742 40.29800033569336,-26.107999801635742 C35.93600082397461,-15.145999908447266 27.695999145507812,-6.195000171661377 17.187999725341797,-1.0049999952316284z"></path></g></g></g></g><g transform="matrix(1,0,0,1,206.26499938964844,201.20799255371094)" opacity="1" style="display: block;"><g opacity="1" transform="matrix(2,0,0,2,0,0)"><path fill="#444444" fill-opacity="1" d=" M0,-7.421000003814697 C4.095649719238281,-7.421000003814697 7.421000003814697,-4.095649719238281 7.421000003814697,0 C7.421000003814697,4.095649719238281 4.095649719238281,7.421000003814697 0,7.421000003814697 C-4.095649719238281,7.421000003814697 -7.421000003814697,4.095649719238281 -7.421000003814697,0 C-7.421000003814697,-4.095649719238281 -4.095649719238281,-7.421000003814697 0,-7.421000003814697z"></path></g></g></g></g><g clip-path="url(#__lottie_element_246)" transform="matrix(1,0,0,1,32,98)" opacity="0" style="display: block;"><g transform="matrix(1,0,0,1,210,210)" opacity="1" style="display: block;"><g opacity="1" transform="matrix(2,0,0,2,0,0)"></g></g><g clip-path="url(#__lottie_element_333)" transform="matrix(1,0,0,1,-2.0489959716796875,-1)" opacity="1" style="display: block;"><g transform="matrix(1,0,0,1,206.26600646972656,305.10400390625)" opacity="1" style="display: block;"><g opacity="1" transform="matrix(2,0,0,2,0,0)"><path fill="url(&quot;#__lottie_element_339&quot;)" fill-opacity="1" d=" M4.453000068664551,-51.948001861572266 C4.453000068664551,-51.948001861572266 -4.453000068664551,-51.948001861572266 -4.453000068664551,-51.948001861572266 C-4.453000068664551,-51.948001861572266 -8.163000106811523,51.948001861572266 -8.163000106811523,51.948001861572266 C-8.163000106811523,51.948001861572266 8.163000106811523,51.948001861572266 8.163000106811523,51.948001861572266 C8.163000106811523,51.948001861572266 4.453000068664551,-51.948001861572266 4.453000068664551,-51.948001861572266z"></path></g></g><g clip-path="url(#__lottie_element_341)" transform="matrix(1,0,0,1,44.97999572753906,10.819000244140625)" opacity="1" style="display: block;"><g clip-path="url(#__lottie_element_348)" transform="matrix(1,0,0,1,-0.0200042724609375,-0.180999755859375)" opacity="1" style="display: block;"><g transform="matrix(1,0,0,1,151.6929931640625,96.10399627685547)" opacity="1" style="display: block;"><g opacity="1" transform="matrix(2,0,0,2,0,0)"><path fill="#333333" fill-opacity="1" d=" M-4.888999938964844,15.348999977111816 C-4.888999938964844,15.348999977111816 -0.6200000047683716,-46.097999572753906 -0.6200000047683716,-46.097999572753906 C-0.5440000295639038,-47.198001861572266 0.3709999918937683,-48.051998138427734 1.4739999771118164,-48.051998138427734 C2.621000051498413,-48.051998138427734 3.555999994277954,-47.13199996948242 3.572999954223633,-45.98500061035156 C3.572999954223633,-45.98500061035156 5.005000114440918,48.051998138427734 5.005000114440918,48.051998138427734 C-2.184999942779541,38.72999954223633 -5.704999923706055,27.0939998626709 -4.888999938964844,15.348999977111816z"></path></g></g><g transform="matrix(1,0,0,1,245.83200073242188,238.06100463867188)" opacity="1" style="display: block;"><g opacity="1" transform="matrix(2,0,0,2,0,0)"><path fill="#333333" fill-opacity="1" d=" M-9.069000244140625,-15.029999732971191 C-9.069000244140625,-15.029999732971191 41.12900161743164,19.340999603271484 41.12900161743164,19.340999603271484 C42.04899978637695,19.97100067138672 42.334999084472656,21.209999084472656 41.784000396728516,22.17799949645996 C41.209999084472656,23.18600082397461 39.93899917602539,23.535999298095703 38.93000030517578,22.965999603271484 C38.93000030517578,22.965999603271484 -42.06399917602539,-22.773000717163086 -42.06399917602539,-22.773000717163086 C-30.520000457763672,-24.423999786376953 -18.756000518798828,-21.663000106811523 -9.069000244140625,-15.029999732971191z"></path></g></g><g transform="matrix(1,0,0,1,80.59600067138672,244.42300415039062)" opacity="1" style="display: block;"><g opacity="1" transform="matrix(2,0,0,2,0,0)"><path fill="#333333" fill-opacity="1" d=" M17.187999725341797,-1.0049999952316284 C17.187999725341797,-1.0049999952316284 -37.268001556396484,25.888999938964844 -37.268001556396484,25.888999938964844 C-38.26599884033203,26.381999969482422 -39.46699905395508,26.013999938964844 -40.018001556396484,25.04599952697754 C-40.59199905395508,24.038000106811523 -40.25600051879883,22.746999740600586 -39.263999938964844,22.145999908447266 C-39.263999938964844,22.145999908447266 40.29800033569336,-26.107999801635742 40.29800033569336,-26.107999801635742 C35.93600082397461,-15.145999908447266 27.695999145507812,-6.195000171661377 17.187999725341797,-1.0049999952316284z"></path></g></g></g></g><g transform="matrix(1,0,0,1,206.26499938964844,201.20799255371094)" opacity="1" style="display: block;"><g opacity="1" transform="matrix(2,0,0,2,0,0)"><path fill="#444444" fill-opacity="1" d=" M0,-7.421000003814697 C4.095649719238281,-7.421000003814697 7.421000003814697,-4.095649719238281 7.421000003814697,0 C7.421000003814697,4.095649719238281 4.095649719238281,7.421000003814697 0,7.421000003814697 C-4.095649719238281,7.421000003814697 -7.421000003814697,4.095649719238281 -7.421000003814697,0 C-7.421000003814697,-4.095649719238281 -4.095649719238281,-7.421000003814697 0,-7.421000003814697z"></path></g></g></g></g></g></svg>