<svg xmlns:xlink="http://www.w3.org/1999/xlink" xmlns="http://www.w3.org/2000/svg" viewBox="0 0 520 840" width="520" height="840" preserveAspectRatio="xMidYMid meet" style="width: 100%; height: 100%; transform: translate3d(0px, 0px, 0px);"><defs><clipPath id="__lottie_element_644"><rect width="520" height="840" x="0" y="0"></rect></clipPath><clipPath id="__lottie_element_646"><path d="M0,0 L340,0 L340,804 L0,804z"></path></clipPath><linearGradient id="__lottie_element_652" spreadMethod="pad" gradientUnits="userSpaceOnUse" x1="0" y1="-45" x2="0" y2="45"><stop offset="0%" stop-color="rgb(102,102,102)" stop-opacity="0"></stop><stop offset="50%" stop-color="rgb(102,102,102)" stop-opacity="0.5"></stop><stop offset="100%" stop-color="rgb(102,102,102)" stop-opacity="1"></stop></linearGradient><linearGradient id="__lottie_element_656" spreadMethod="pad" gradientUnits="userSpaceOnUse" x1="-0.004000000189989805" y1="-148.5" x2="-0.004000000189989805" y2="151.5"><stop offset="0%" stop-color="rgb(255,255,255)" stop-opacity="1"></stop><stop offset="50%" stop-color="rgb(255,255,255)" stop-opacity="0.5"></stop><stop offset="100%" stop-color="rgb(255,255,255)" stop-opacity="0"></stop></linearGradient><linearGradient id="__lottie_element_660" spreadMethod="pad" gradientUnits="userSpaceOnUse" x1="0" y1="-30" x2="0" y2="30"><stop offset="0%" stop-color="rgb(255,255,255)" stop-opacity="0"></stop><stop offset="50%" stop-color="rgb(255,255,255)" stop-opacity="0.5"></stop><stop offset="100%" stop-color="rgb(255,255,255)" stop-opacity="1"></stop></linearGradient><linearGradient id="__lottie_element_667" spreadMethod="pad" gradientUnits="userSpaceOnUse" x1="0" y1="-29" x2="0" y2="29"><stop offset="0%" stop-color="rgb(204,204,204)" stop-opacity="0"></stop><stop offset="50%" stop-color="rgb(204,204,204)" stop-opacity="0.5"></stop><stop offset="100%" stop-color="rgb(204,204,204)" stop-opacity="1"></stop></linearGradient><clipPath id="__lottie_element_672"><path d="M0,0 L340,0 L340,804 L0,804z"></path></clipPath><linearGradient id="__lottie_element_1642" spreadMethod="pad" gradientUnits="userSpaceOnUse" x1="0" y1="-106.5" x2="0" y2="106.5"><stop offset="0%" stop-color="rgb(222,109,61)"></stop><stop offset="50%" stop-color="rgb(199,98,54)"></stop><stop offset="100%" stop-color="rgb(176,86,47)"></stop></linearGradient><linearGradient id="__lottie_element_652" spreadMethod="pad" gradientUnits="userSpaceOnUse" x1="0" y1="-45" x2="0" y2="45"><stop offset="0%" stop-color="rgb(102,102,102)" stop-opacity="0"></stop><stop offset="50%" stop-color="rgb(102,102,102)" stop-opacity="0.5"></stop><stop offset="100%" stop-color="rgb(102,102,102)" stop-opacity="1"></stop></linearGradient><linearGradient id="__lottie_element_656" spreadMethod="pad" gradientUnits="userSpaceOnUse" x1="-0.004000000189989805" y1="-148.5" x2="-0.004000000189989805" y2="151.5"><stop offset="0%" stop-color="rgb(255,255,255)" stop-opacity="1"></stop><stop offset="50%" stop-color="rgb(255,255,255)" stop-opacity="0.5"></stop><stop offset="100%" stop-color="rgb(255,255,255)" stop-opacity="0"></stop></linearGradient><linearGradient id="__lottie_element_660" spreadMethod="pad" gradientUnits="userSpaceOnUse" x1="0" y1="-30" x2="0" y2="30"><stop offset="0%" stop-color="rgb(255,255,255)" stop-opacity="0"></stop><stop offset="50%" stop-color="rgb(255,255,255)" stop-opacity="0.5"></stop><stop offset="100%" stop-color="rgb(255,255,255)" stop-opacity="1"></stop></linearGradient><linearGradient id="__lottie_element_667" spreadMethod="pad" gradientUnits="userSpaceOnUse" x1="0" y1="-29" x2="0" y2="29"><stop offset="0%" stop-color="rgb(204,204,204)" stop-opacity="0"></stop><stop offset="50%" stop-color="rgb(204,204,204)" stop-opacity="0.5"></stop><stop offset="100%" stop-color="rgb(204,204,204)" stop-opacity="1"></stop></linearGradient><linearGradient id="__lottie_element_1642" spreadMethod="pad" gradientUnits="userSpaceOnUse" x1="0" y1="-106.5" x2="0" y2="106.5"><stop offset="0%" stop-color="rgb(222,109,61)"></stop><stop offset="50%" stop-color="rgb(199,98,54)"></stop><stop offset="100%" stop-color="rgb(176,86,47)"></stop></linearGradient></defs><g clip-path="url(#__lottie_element_644)"><g clip-path="url(#__lottie_element_646)" transform="matrix(1,0,0,1,90,42)" opacity="1" style="display: block;"><g transform="matrix(1,0,0,1,170,704)" opacity="1" style="display: block;"><g opacity="1" transform="matrix(2,0,0,2,0,0)"><path stroke="url(&quot;#__lottie_element_652&quot;)" stroke-linecap="butt" stroke-linejoin="miter" fill-opacity="0" stroke-miterlimit="4" stroke-opacity="1" stroke-width="3px" d=" M0,-45 C44.152000427246094,-45 80,-24.835500717163086 80,0 C80,24.835500717163086 44.152000427246094,45 0,45 C-44.152000427246094,45 -80,24.835500717163086 -80,0 C-80,-24.835500717163086 -44.152000427246094,-45 0,-45z"></path></g></g><g transform="matrix(1,0,0,1,170.00799560546875,387)" opacity="1" style="display: block;"><g opacity="1" transform="matrix(2,0,0,2,0,0)"><path fill="url(&quot;#__lottie_element_656&quot;)" fill-opacity="1" d=" M70,-153.5 C70,-153.5 -70,-153.5 -70,-153.5 C-70,-153.5 -60,153.5 -60,153.5 C-60,153.5 60,153.5 60,153.5 C60,153.5 70,-153.5 70,-153.5z"></path></g></g><g transform="matrix(1,0,0,1,170,694)" opacity="1" style="display: block;"><g opacity="1" transform="matrix(2,0,0,2,0,0)"><path fill="url(&quot;#__lottie_element_660&quot;)" fill-opacity="1" d=" M0,-30 C33.11399841308594,-30 60,-16.55699920654297 60,0 C60,16.55699920654297 33.11399841308594,30 0,30 C-33.11399841308594,30 -60,16.55699920654297 -60,0 C-60,-16.55699920654297 -33.11399841308594,-30 0,-30z"></path></g></g><g transform="matrix(1,0,0,1,170.00799560546875,80)" opacity="1" style="display: block;"><g opacity="1" transform="matrix(2,0,0,2,0,0)"><path fill="#FFFFFF" fill-opacity="1" d=" M0,-35 C38.632999420166016,-35 70,-19.316499710083008 70,0 C70,19.316499710083008 38.632999420166016,35 0,35 C-38.632999420166016,35 -70,19.316499710083008 -70,0 C-70,-19.316499710083008 -38.632999420166016,-35 0,-35z"></path></g></g><g transform="matrix(1,0,0,1,170,80)" opacity="1" style="display: block;"><g opacity="1" transform="matrix(2,0,0,2,0,0)"><path fill="url(&quot;#__lottie_element_667&quot;)" fill-opacity="1" d=" M0,-29 C35.32160186767578,-29 64,-16.00510025024414 64,0 C64,16.00510025024414 35.32160186767578,29 0,29 C-35.32160186767578,29 -64,16.00510025024414 -64,0 C-64,-16.00510025024414 -35.32160186767578,-29 0,-29z"></path></g></g><g transform="matrix(1,0,0,1,170,481)" opacity="1" style="display: none;"><g opacity="1" transform="matrix(2,0,0,2,0,0)"><path fill="url(&quot;#__lottie_element_1642&quot;)" fill-opacity="1" d=" M50.00040054321289,105.4893569946289 C50.00040054321289,105.4893569946289 -50.00040054321289,105.4893569946289 -50.00040054321289,105.4893569946289 C-50.00040054321289,105.4893569946289 -50,106.5 -50,106.5 C-50,106.5 50,106.5 50,106.5 C50,106.5 50.00040054321289,105.4893569946289 50.00040054321289,105.4893569946289z"></path></g></g><g transform="matrix(0,0,0,0,170,694)" opacity="1" style="display: block;"><g opacity="1" transform="matrix(2,0,0,2,0,0)"><path fill="#B0562F" fill-opacity="1" d=" M0,-22 C27.594999313354492,-22 50,-12.141799926757812 50,0 C50,12.141799926757812 27.594999313354492,22 0,22 C-27.594999313354492,22 -50,12.141799926757812 -50,0 C-50,-12.141799926757812 -27.594999313354492,-22 0,-22z"></path></g></g><g transform="matrix(0.8500075340270996,0,0,0.8500075340270996,170,693.9786376953125)" opacity="1" style="display: none;"><g opacity="1" transform="matrix(2,0,0,2,0,0)"><path fill="#B0562F" fill-opacity="1" d=" M0,-25 C32.01020050048828,-25 58,-13.797499656677246 58,0 C58,13.797499656677246 32.01020050048828,25 0,25 C-32.01020050048828,25 -58,13.797499656677246 -58,0 C-58,-13.797499656677246 -32.01020050048828,-25 0,-25z"></path></g></g><g clip-path="url(#__lottie_element_672)" transform="matrix(0.8500075340270996,0,0,0.8500075340270996,25.49871826171875,464.2969665527344)" opacity="1.5750249815482676e-8" style="display: block;"><g transform="matrix(1,0,0,1,170,248)" opacity="1" style="display: block;"><g opacity="1" transform="matrix(2,0,0,2,0,0)"><path fill="#FFFFFF" fill-opacity="0.6" d=" M59,10 C59,10.361000061035156 58.981998443603516,10.720999717712402 58.94599914550781,11.079000473022461 C58.94599914550781,11.079000473022461 58,10 58,10 C58,23.80699920654297 32.03300094604492,35 0,35 C-32.03300094604492,35 -58,23.80699920654297 -58,10 C-58,10 -58.94599914550781,11.079000473022461 -58.94599914550781,11.079000473022461 C-58.981998443603516,10.720999717712402 -59,10.361000061035156 -59,10 C-59,-3.806999921798706 -32.584999084472656,-15 0,-15 C32.584999084472656,-15 59,-3.806999921798706 59,10z"></path></g></g><g transform="matrix(1,0,0,1,170,268)" opacity="1" style="display: block;"><g opacity="1" transform="matrix(2,0,0,2,0,0)"><path fill="#FFFFFF" fill-opacity="0.6" d=" M0,-25 C32.56209945678711,-25 59,-13.797499656677246 59,0 C59,13.797499656677246 32.56209945678711,25 0,25 C-32.56209945678711,25 -59,13.797499656677246 -59,0 C-59,-13.797499656677246 -32.56209945678711,-25 0,-25z"></path></g></g></g></g></g></svg>