<svg xmlns:xlink="http://www.w3.org/1999/xlink" xmlns="http://www.w3.org/2000/svg" viewBox="0 0 480 800" width="480" height="800" preserveAspectRatio="xMidYMid meet" style={{width: "100%", height: "100%", transform: "translate3d(0px, 0px, 0px)"}}><defs><clipPath id="__lottie_element_438"><rect width="480" height="800" x="0" y="0"></rect></clipPath><clipPath id="__lottie_element_440"><path d="M0,0 L480,0 L480,564 L0,564z"></path></clipPath><clipPath id="__lottie_element_450"><path d="M0,0 L260,0 L260,564 L0,564z"></path></clipPath><clipPath id="__lottie_element_454"><path d="M0,0 L260,0 L260,564 L0,564z"></path></clipPath><linearGradient id="__lottie_element_466" spreadMethod="pad" gradientUnits="userSpaceOnUse" x1="-0.5070000290870667" y1="-13.131999969482422" x2="-0.5070000290870667" y2="12.800999641418457"><stop offset="0%" stop-color="rgb(255,82,82)"></stop><stop offset="50%" stop-color="rgb(231,63,63)"></stop><stop offset="100%" stop-color="rgb(206,45,45)"></stop></linearGradient><linearGradient id="__lottie_element_476" spreadMethod="pad" gradientUnits="userSpaceOnUse" x1="-0.5070000290870667" y1="-13.131999969482422" x2="-0.5070000290870667" y2="12.800999641418457"><stop offset="0%" stop-color="rgb(255,82,82)"></stop><stop offset="50%" stop-color="rgb(231,63,63)"></stop><stop offset="100%" stop-color="rgb(206,45,45)"></stop></linearGradient><linearGradient id="__lottie_element_466" spreadMethod="pad" gradientUnits="userSpaceOnUse" x1="-0.5070000290870667" y1="-13.131999969482422" x2="-0.5070000290870667" y2="12.800999641418457"><stop offset="0%" stop-color="rgb(255,82,82)"></stop><stop offset="50%" stop-color="rgb(231,63,63)"></stop><stop offset="100%" stop-color="rgb(206,45,45)"></stop></linearGradient><linearGradient id="__lottie_element_476" spreadMethod="pad" gradientUnits="userSpaceOnUse" x1="-0.5070000290870667" y1="-13.131999969482422" x2="-0.5070000290870667" y2="12.800999641418457"><stop offset="0%" stop-color="rgb(255,82,82)"></stop><stop offset="50%" stop-color="rgb(231,63,63)"></stop><stop offset="100%" stop-color="rgb(206,45,45)"></stop></linearGradient></defs><g clip-path="url(#__lottie_element_438)"><g clip-path="url(#__lottie_element_440)" transform="matrix(1,0,0,1,0,236)" opacity="1" style={{display: "block"}}><g clip-path="url(#__lottie_element_450)" transform="matrix(1,0,0,1,0,0)" opacity="1" style={{display: "block"}}><g transform="matrix(1,0,0,1,130,293.3940124511719)" opacity="1" style={{display: "block"}}><g opacity="1" transform="matrix(2,0,0,2,0,0)"><path fill="#FF5151" fill-opacity="1" d=" M60.92300033569336,-116.26499938964844 C71.75399780273438,-98.03700256347656 58.500999450683594,-79.77899932861328 50.1619987487793,-63.391998291015625 C41.823001861572266,-47.005001068115234 7.349999904632568,57.22600173950195 7.793000221252441,83.322998046875 C8.236000061035156,109.41999816894531 -2.013000011444092,132.73399353027344 -21.743000030517578,135.02000427246094 C-41.472999572753906,137.30599975585938 -57.382999420166016,125.74099731445312 -63.650001525878906,99.98400115966797 C-69.77100372314453,74.8239974975586 -53.7760009765625,-5.083000183105469 -41.617000579833984,-35.323001861572266 C-29.45800018310547,-65.56300354003906 -12.276000022888184,-110.54199981689453 -0.2720000147819519,-122.91799926757812 C18.40999984741211,-142.17999267578125 47.87699890136719,-138.218994140625 60.92300033569336,-116.26499938964844z"></path></g></g><g transform="matrix(1,0,0,1,107.42400360107422,309.8380126953125)" opacity="0.4" style={{display: "block"}}><g opacity="1" transform="matrix(2,0,0,2,0,0)"><path stroke-linecap="round" stroke-linejoin="miter" fill-opacity="0" stroke-miterlimit="4" stroke="#A52323" stroke-opacity="1" stroke-width="6px" d=" M-38.665000915527344,87.66300201416016 C-26.47599983215332,97.69100189208984 -11.428999900817871,93.2699966430664 -5.429999828338623,89.80599975585938 M-39.36600112915039,58.73699951171875 C-25.57699966430664,67.84100341796875 -9.361000061035156,64.52300262451172 -2.9769999980926514,61.72600173950195 M-34.06800079345703,26.347999572753906 C-22.80299949645996,34.7760009765625 -6.448999881744385,32.62200164794922 0.3199999928474426,30.490999221801758 M-27.615999221801758,-4.040999889373779 C-19.549999237060547,6.234000205993652 -1.1230000257492065,6.438000202178955 7.081999778747559,5.25600004196167 M-18.009000778198242,-33.58599853515625 C-11.114999771118164,-29.034000396728516 6.6620001792907715,-24.72100067138672 14.689000129699707,-23.134000778198242 M-10.402000427246094,-61.974998474121094 C5.168000221252441,-64.56500244140625 18.65399932861328,-54.75299835205078 23.451000213623047,-49.52299880981445 M3.2039999961853027,-93.8280029296875 C20.621000289916992,-93.21800231933594 34.569000244140625,-82.60700225830078 39.36600112915039,-77.37699890136719"></path></g></g><g transform="matrix(1,0,0,1,226.46299743652344,26.452999114990234)" opacity="1" style={{display: "block"}}><g opacity="1" transform="matrix(2,0,0,2,0,0)"><path fill="url(&quot;#__lottie_element_466&quot;)" fill-opacity="1" d=" M-2.2309999465942383,13.041999816894531 C-8.230999946594238,14.001999855041504 -12.730999946594238,11.123000144958496 -14.230999946594238,6.803999900817871 C-5.730999946594238,-5.671000003814697 -11.230999946594238,-9.508999824523926 -9.730999946594238,-12.387999534606934 C-7.730999946594238,-16.22599983215332 -1.850000023841858,-5.76200008392334 0.7689999938011169,-3.750999927520752 C3.2690000534057617,-1.8320000171661377 21.768999099731445,-1.8320000171661377 10.769000053405762,2.9660000801086426 C1.968999981880188,6.803999900817871 -1.2309999465942383,10.322999954223633 -2.2309999465942383,13.041999816894531z"></path></g></g></g><g clip-path="url(#__lottie_element_454)" transform="matrix(1,0,0,1,220,0)" opacity="1" style={{display: "block"}}><g transform="matrix(1,0,0,1,130,293.3940124511719)" opacity="1" style={{"display": "block"}}><g opacity="1" transform="matrix(2,0,0,2,0,0)"><path fill="#FF5151" fill-opacity="1" d=" M60.92300033569336,-116.26499938964844 C71.75399780273438,-98.03700256347656 58.500999450683594,-79.77899932861328 50.1619987487793,-63.391998291015625 C41.823001861572266,-47.005001068115234 7.349999904632568,57.22600173950195 7.793000221252441,83.322998046875 C8.236000061035156,109.41999816894531 -2.013000011444092,132.73399353027344 -21.743000030517578,135.02000427246094 C-41.472999572753906,137.30599975585938 -57.382999420166016,125.74099731445312 -63.650001525878906,99.98400115966797 C-69.77100372314453,74.8239974975586 -53.7760009765625,-5.083000183105469 -41.617000579833984,-35.323001861572266 C-29.45800018310547,-65.56300354003906 -12.276000022888184,-110.54199981689453 -0.2720000147819519,-122.91799926757812 C18.40999984741211,-142.17999267578125 47.87699890136719,-138.218994140625 60.92300033569336,-116.26499938964844z"></path></g></g><g transform="matrix(1,0,0,1,107.42400360107422,309.8380126953125)" opacity="0.4" style={{display: "block"}}><g opacity="1" transform="matrix(2,0,0,2,0,0)"><path stroke-linecap="round" stroke-linejoin="miter" fill-opacity="0" stroke-miterlimit="4" stroke="#A52323" stroke-opacity="1" stroke-width="6px" d=" M-38.665000915527344,87.66300201416016 C-26.47599983215332,97.69100189208984 -11.428999900817871,93.2699966430664 -5.429999828338623,89.80599975585938 M-39.36600112915039,58.73699951171875 C-25.57699966430664,67.84100341796875 -9.361000061035156,64.52300262451172 -2.9769999980926514,61.72600173950195 M-34.06800079345703,26.347999572753906 C-22.80299949645996,34.7760009765625 -6.448999881744385,32.62200164794922 0.3199999928474426,30.490999221801758 M-27.615999221801758,-4.040999889373779 C-19.549999237060547,6.234000205993652 -1.1230000257492065,6.438000202178955 7.081999778747559,5.25600004196167 M-18.009000778198242,-33.58599853515625 C-11.114999771118164,-29.034000396728516 6.6620001792907715,-24.72100067138672 14.689000129699707,-23.134000778198242 M-10.402000427246094,-61.974998474121094 C5.168000221252441,-64.56500244140625 18.65399932861328,-54.75299835205078 23.451000213623047,-49.52299880981445 M3.2039999961853027,-93.8280029296875 C20.621000289916992,-93.21800231933594 34.569000244140625,-82.60700225830078 39.36600112915039,-77.37699890136719"></path></g></g><g transform="matrix(1,0,0,1,226.46299743652344,26.452999114990234)" opacity="1" style={{display: "block"}}><g opacity="1" transform="matrix(2,0,0,2,0,0)"><path fill="url(&quot;#__lottie_element_476&quot;)" fill-opacity="1" d=" M-2.2309999465942383,13.041999816894531 C-8.230999946594238,14.001999855041504 -12.730999946594238,11.123000144958496 -14.230999946594238,6.803999900817871 C-5.730999946594238,-5.671000003814697 -11.230999946594238,-9.508999824523926 -9.730999946594238,-12.387999534606934 C-7.730999946594238,-16.22599983215332 -1.850000023841858,-5.76200008392334 0.7689999938011169,-3.750999927520752 C3.2690000534057617,-1.8320000171661377 21.768999099731445,-1.8320000171661377 10.769000053405762,2.9660000801086426 C1.968999981880188,6.803999900817871 -1.2309999465942383,10.322999954223633 -2.2309999465942383,13.041999816894531z"></path></g></g></g></g><g transform="matrix(1,0,0,1,184,148.65769958496094)" opacity="0.2" style={{display: "block"}}><g opacity="1" transform="matrix(2,0,0,2,0,0)"><path stroke-linecap="round" stroke-linejoin="miter" fill-opacity="0" stroke-miterlimit="4" stroke="#FFFFFF" stroke-opacity="1" stroke-width="6px" d=" M3.0829999446868896,-40 C7.624000072479248,-29.649999618530273 6.26200008392334,-23.775999069213867 3.0829999446868896,-19.020999908447266 C-1.3359999656677246,-12.41100025177002 -6,-8.112000465393066 3.0829999446868896,9.230999946594238 C7.689000129699707,18.025999069213867 5.238999843597412,26.236000061035156 1.284999966621399,32.20899963378906"></path></g></g><g transform="matrix(1,0,0,1,352,168.65769958496094)" opacity="0.2" style={{display: "block"}}><g opacity="1" transform="matrix(2,0,0,2,0,0)"><path stroke-linecap="round" stroke-linejoin="miter" fill-opacity="0" stroke-miterlimit="4" stroke="#FFFFFF" stroke-opacity="1" stroke-width="6px" d=" M3.0829999446868896,-40 C7.624000072479248,-29.649999618530273 6.26200008392334,-23.775999069213867 3.0829999446868896,-19.020999908447266 C-1.3359999656677246,-12.41100025177002 -6,-8.112000465393066 3.0829999446868896,9.230999946594238 C7.689000129699707,18.025999069213867 5.238999843597412,26.236000061035156 1.284999966621399,32.20899963378906"></path></g></g><g transform="matrix(1,0,0,1,268,207.09375)" opacity="0.2" style={{display: "block"}}><g opacity="1" transform="matrix(2,0,0,2,0,0)"><path stroke-linecap="round" stroke-linejoin="miter" fill-opacity="0" stroke-miterlimit="4" stroke="#FFFFFF" stroke-opacity="1" stroke-width="6px" d=" M5.995999813079834,-20.93899917602539 C5.920000076293945,-18.240999221801758 4.751999855041504,-16.13800048828125 3.0829999446868896,-14.265999794006348 C-1.3359999656677246,-9.309000015258789 -6,-6.084000110626221 3.0829999446868896,6.922999858856201 C10.348999977111816,17.32900047302246 0.054999999701976776,26.64299964904785 -6,30"></path></g></g><g transform="matrix(1,0,0,1,436,207.09375)" opacity="0.2" style={{display: "block"}}><g opacity="1" transform="matrix(2,0,0,2,0,0)"><path stroke-linecap="round" stroke-linejoin="miter" fill-opacity="0" stroke-miterlimit="4" stroke="#FFFFFF" stroke-opacity="1" stroke-width="6px" d=" M5.995999813079834,-20.93899917602539 C5.920000076293945,-18.240999221801758 4.751999855041504,-16.13800048828125 3.0829999446868896,-14.265999794006348 C-1.3359999656677246,-9.309000015258789 -6,-6.084000110626221 3.0829999446868896,6.922999858856201 C10.348999977111816,17.32900047302246 0.054999999701976776,26.64299964904785 -6,30"></path></g></g></g></svg>