<svg xmlns:xlink="http://www.w3.org/1999/xlink" xmlns="http://www.w3.org/2000/svg" viewBox="0 0 600 600" width="600" height="600" preserveAspectRatio="xMidYMid meet" style="width: 100%; height: 100%; transform: translate3d(0px, 0px, 0px);"><defs><clipPath id="__lottie_element_1545"><rect width="600" height="600" x="0" y="0"></rect></clipPath><linearGradient id="__lottie_element_1549" spreadMethod="pad" gradientUnits="userSpaceOnUse" x1="45" y1="0.2630000114440918" x2="-175" y2="0.2630000114440918"><stop offset="0%" stop-color="rgb(255,255,255)" stop-opacity="0.20000000298023224"></stop><stop offset="50%" stop-color="rgb(255,255,255)" stop-opacity="0.10000000149011612"></stop><stop offset="100%" stop-color="rgb(255,255,255)" stop-opacity="0"></stop></linearGradient><linearGradient id="__lottie_element_1553" spreadMethod="pad" gradientUnits="userSpaceOnUse" x1="-0.5569999814033508" y1="12.550999641418457" x2="-0.5569999814033508" y2="-12.442999839782715"><stop offset="0%" stop-color="rgb(255,171,72)" stop-opacity="0.6000000238418579"></stop><stop offset="50%" stop-color="rgb(255,171,72)" stop-opacity="0.30000001192092896"></stop><stop offset="100%" stop-color="rgb(255,171,72)" stop-opacity="0"></stop></linearGradient><linearGradient id="__lottie_element_1557" spreadMethod="pad" gradientUnits="userSpaceOnUse" x1="-0.5379999876022339" y1="58.486000061035156" x2="-0.5379999876022339" y2="-57.98400115966797"><stop offset="0%" stop-color="rgb(255,171,72)" stop-opacity="0.6000000238418579"></stop><stop offset="50%" stop-color="rgb(255,171,72)" stop-opacity="0.30000001192092896"></stop><stop offset="100%" stop-color="rgb(255,171,72)" stop-opacity="0"></stop></linearGradient><linearGradient id="__lottie_element_1561" spreadMethod="pad" gradientUnits="userSpaceOnUse" x1="-0.07900000363588333" y1="7.0279998779296875" x2="-0.07900000363588333" y2="-6.9679999351501465"><stop offset="0%" stop-color="rgb(255,171,72)" stop-opacity="0.6000000238418579"></stop><stop offset="50%" stop-color="rgb(255,171,72)" stop-opacity="0.30000001192092896"></stop><stop offset="100%" stop-color="rgb(255,171,72)" stop-opacity="0"></stop></linearGradient><linearGradient id="__lottie_element_1565" spreadMethod="pad" gradientUnits="userSpaceOnUse" x1="-0.5569999814033508" y1="-12.550000190734863" x2="-0.5569999814033508" y2="12.442999839782715"><stop offset="0%" stop-color="rgb(255,171,72)" stop-opacity="0.6000000238418579"></stop><stop offset="50%" stop-color="rgb(255,171,72)" stop-opacity="0.30000001192092896"></stop><stop offset="100%" stop-color="rgb(255,171,72)" stop-opacity="0"></stop></linearGradient><linearGradient id="__lottie_element_1569" spreadMethod="pad" gradientUnits="userSpaceOnUse" x1="-0.5379999876022339" y1="-58.486000061035156" x2="-0.5379999876022339" y2="57.98400115966797"><stop offset="0%" stop-color="rgb(255,171,72)" stop-opacity="0.6000000238418579"></stop><stop offset="50%" stop-color="rgb(255,171,72)" stop-opacity="0.30000001192092896"></stop><stop offset="100%" stop-color="rgb(255,171,72)" stop-opacity="0"></stop></linearGradient><linearGradient id="__lottie_element_1573" spreadMethod="pad" gradientUnits="userSpaceOnUse" x1="-0.07900000363588333" y1="-7.0279998779296875" x2="-0.07900000363588333" y2="6.9679999351501465"><stop offset="0%" stop-color="rgb(255,171,72)" stop-opacity="0.6000000238418579"></stop><stop offset="50%" stop-color="rgb(255,171,72)" stop-opacity="0.30000001192092896"></stop><stop offset="100%" stop-color="rgb(255,171,72)" stop-opacity="0"></stop></linearGradient><linearGradient id="__lottie_element_1577" spreadMethod="pad" gradientUnits="userSpaceOnUse" x1="-100" y1="0" x2="100" y2="0"><stop offset="0%" stop-color="rgb(255,171,72)" stop-opacity="0.6000000238418579"></stop><stop offset="50%" stop-color="rgb(255,171,72)" stop-opacity="0.4000000059604645"></stop><stop offset="100%" stop-color="rgb(255,171,72)" stop-opacity="0.20000000298023224"></stop></linearGradient><linearGradient id="__lottie_element_1549" spreadMethod="pad" gradientUnits="userSpaceOnUse" x1="45" y1="0.2630000114440918" x2="-175" y2="0.2630000114440918"><stop offset="0%" stop-color="rgb(255,255,255)" stop-opacity="0.20000000298023224"></stop><stop offset="50%" stop-color="rgb(255,255,255)" stop-opacity="0.10000000149011612"></stop><stop offset="100%" stop-color="rgb(255,255,255)" stop-opacity="0"></stop></linearGradient><linearGradient id="__lottie_element_1553" spreadMethod="pad" gradientUnits="userSpaceOnUse" x1="-0.5569999814033508" y1="12.550999641418457" x2="-0.5569999814033508" y2="-12.442999839782715"><stop offset="0%" stop-color="rgb(255,171,72)" stop-opacity="0.6000000238418579"></stop><stop offset="50%" stop-color="rgb(255,171,72)" stop-opacity="0.30000001192092896"></stop><stop offset="100%" stop-color="rgb(255,171,72)" stop-opacity="0"></stop></linearGradient><linearGradient id="__lottie_element_1557" spreadMethod="pad" gradientUnits="userSpaceOnUse" x1="-0.5379999876022339" y1="58.486000061035156" x2="-0.5379999876022339" y2="-57.98400115966797"><stop offset="0%" stop-color="rgb(255,171,72)" stop-opacity="0.6000000238418579"></stop><stop offset="50%" stop-color="rgb(255,171,72)" stop-opacity="0.30000001192092896"></stop><stop offset="100%" stop-color="rgb(255,171,72)" stop-opacity="0"></stop></linearGradient><linearGradient id="__lottie_element_1561" spreadMethod="pad" gradientUnits="userSpaceOnUse" x1="-0.07900000363588333" y1="7.0279998779296875" x2="-0.07900000363588333" y2="-6.9679999351501465"><stop offset="0%" stop-color="rgb(255,171,72)" stop-opacity="0.6000000238418579"></stop><stop offset="50%" stop-color="rgb(255,171,72)" stop-opacity="0.30000001192092896"></stop><stop offset="100%" stop-color="rgb(255,171,72)" stop-opacity="0"></stop></linearGradient><linearGradient id="__lottie_element_1565" spreadMethod="pad" gradientUnits="userSpaceOnUse" x1="-0.5569999814033508" y1="-12.550000190734863" x2="-0.5569999814033508" y2="12.442999839782715"><stop offset="0%" stop-color="rgb(255,171,72)" stop-opacity="0.6000000238418579"></stop><stop offset="50%" stop-color="rgb(255,171,72)" stop-opacity="0.30000001192092896"></stop><stop offset="100%" stop-color="rgb(255,171,72)" stop-opacity="0"></stop></linearGradient><linearGradient id="__lottie_element_1569" spreadMethod="pad" gradientUnits="userSpaceOnUse" x1="-0.5379999876022339" y1="-58.486000061035156" x2="-0.5379999876022339" y2="57.98400115966797"><stop offset="0%" stop-color="rgb(255,171,72)" stop-opacity="0.6000000238418579"></stop><stop offset="50%" stop-color="rgb(255,171,72)" stop-opacity="0.30000001192092896"></stop><stop offset="100%" stop-color="rgb(255,171,72)" stop-opacity="0"></stop></linearGradient><linearGradient id="__lottie_element_1573" spreadMethod="pad" gradientUnits="userSpaceOnUse" x1="-0.07900000363588333" y1="-7.0279998779296875" x2="-0.07900000363588333" y2="6.9679999351501465"><stop offset="0%" stop-color="rgb(255,171,72)" stop-opacity="0.6000000238418579"></stop><stop offset="50%" stop-color="rgb(255,171,72)" stop-opacity="0.30000001192092896"></stop><stop offset="100%" stop-color="rgb(255,171,72)" stop-opacity="0"></stop></linearGradient><linearGradient id="__lottie_element_1577" spreadMethod="pad" gradientUnits="userSpaceOnUse" x1="-100" y1="0" x2="100" y2="0"><stop offset="0%" stop-color="rgb(255,171,72)" stop-opacity="0.6000000238418579"></stop><stop offset="50%" stop-color="rgb(255,171,72)" stop-opacity="0.4000000059604645"></stop><stop offset="100%" stop-color="rgb(255,171,72)" stop-opacity="0.20000000298023224"></stop></linearGradient></defs><g clip-path="url(#__lottie_element_1545)"><g transform="matrix(1,0,0,1,90,300)" opacity="1" style="display: block;"><g opacity="1" transform="matrix(2,0,0,2,0,0)"><path fill="url(&quot;#__lottie_element_1549&quot;)" fill-opacity="1" d=" M-44,-1 C-44.551998138427734,-1 -45,-0.5519999861717224 -45,0 C-45,0.5519999861717224 -44.551998138427734,1 -44,1 C-44,1 44,1 44,1 C44.551998138427734,1 45,0.5519999861717224 45,0 C45,-0.5519999861717224 44.551998138427734,-1 44,-1 C44,-1 -44,-1 -44,-1z"></path></g></g><g transform="matrix(1,0,0,1,219.39199829101562,335.1419982910156)" opacity="1" style="display: block;"><g opacity="1" transform="matrix(2,0,0,2,0,0)"><path fill="url(&quot;#__lottie_element_1553&quot;)" fill-opacity="1" d=" M16.30299949645996,-12.550999641418457 C16.30299949645996,-12.550999641418457 -7.105999946594238,11.932999610900879 -7.105999946594238,11.932999610900879 C-7.482999801635742,12.32800006866455 -8.005999565124512,12.550999641418457 -8.552000045776367,12.550999641418457 C-8.552000045776367,12.550999641418457 -14.300999641418457,12.550999641418457 -14.300999641418457,12.550999641418457 C-15.699999809265137,12.550999641418457 -16.66699981689453,11.151000022888184 -16.172000885009766,9.843000411987305 C-16.172000885009766,9.843000411987305 -7.697000026702881,-12.550999641418457 -7.697000026702881,-12.550999641418457 C-7.697000026702881,-12.550999641418457 16.30299949645996,-12.550999641418457 16.30299949645996,-12.550999641418457z"></path></g></g><g transform="matrix(1,0,0,1,369.07598876953125,431.02801513671875)" opacity="1" style="display: block;"><g opacity="1" transform="matrix(2,0,0,2,0,0)"><path fill="url(&quot;#__lottie_element_1557&quot;)" fill-opacity="1" d=" M-8.038000106811523,-58.486000061035156 C-8.038000106811523,-58.486000061035156 -37.39799880981445,55.98899841308594 -37.39799880981445,55.98899841308594 C-37.72200012207031,57.25400161743164 -36.766998291015625,58.486000061035156 -35.46099853515625,58.486000061035156 C-35.46099853515625,58.486000061035156 -26.23699951171875,58.486000061035156 -26.23699951171875,58.486000061035156 C-25.499000549316406,58.486000061035156 -24.820999145507812,58.07899856567383 -24.472999572753906,57.428001403808594 C-24.472999572753906,57.428001403808594 37.46200180053711,-58.486000061035156 37.46200180053711,-58.486000061035156 C37.46200180053711,-58.486000061035156 -8.038000106811523,-58.486000061035156 -8.038000106811523,-58.486000061035156z"></path></g></g><g transform="matrix(1,0,0,1,408,380.3240051269531)" opacity="1" style="display: block;"><g opacity="1" transform="matrix(2,0,0,2,0,0)"><path fill="url(&quot;#__lottie_element_1561&quot;)" fill-opacity="1" d=" M-8,-7.0279998779296875 C-10.208999633789062,-7.0279998779296875 -12,-5.236999988555908 -12,-3.0280001163482666 C-12,-3.0280001163482666 -12,3.0280001163482666 -12,3.0280001163482666 C-12,5.236999988555908 -10.208999633789062,7.0279998779296875 -8,7.0279998779296875 C-8,7.0279998779296875 8,7.0279998779296875 8,7.0279998779296875 C10.208999633789062,7.0279998779296875 12,5.236999988555908 12,3.0280001163482666 C12,3.0280001163482666 12,-3.0280001163482666 12,-3.0280001163482666 C12,-5.236999988555908 10.208999633789062,-7.0279998779296875 8,-7.0279998779296875 C8,-7.0279998779296875 -8,-7.0279998779296875 -8,-7.0279998779296875z"></path></g></g><g transform="matrix(1,0,0,1,219.39199829101562,264.85699462890625)" opacity="1" style="display: block;"><g opacity="1" transform="matrix(2,0,0,2,0,0)"><path fill="url(&quot;#__lottie_element_1565&quot;)" fill-opacity="1" d=" M16.30299949645996,12.550999641418457 C16.30299949645996,12.550999641418457 -7.105999946594238,-11.932999610900879 -7.105999946594238,-11.932999610900879 C-7.482999801635742,-12.32800006866455 -8.005999565124512,-12.550999641418457 -8.552000045776367,-12.550999641418457 C-8.552000045776367,-12.550999641418457 -14.300999641418457,-12.550999641418457 -14.300999641418457,-12.550999641418457 C-15.699999809265137,-12.550999641418457 -16.66699981689453,-11.151000022888184 -16.172000885009766,-9.843000411987305 C-16.172000885009766,-9.843000411987305 -7.697000026702881,12.550999641418457 -7.697000026702881,12.550999641418457 C-7.697000026702881,12.550999641418457 16.30299949645996,12.550999641418457 16.30299949645996,12.550999641418457z"></path></g></g><g transform="matrix(1,0,0,1,369.07598876953125,168.9720001220703)" opacity="1" style="display: block;"><g opacity="1" transform="matrix(2,0,0,2,0,0)"><path fill="url(&quot;#__lottie_element_1569&quot;)" fill-opacity="1" d=" M-8.038000106811523,58.486000061035156 C-8.038000106811523,58.486000061035156 -37.39799880981445,-55.98899841308594 -37.39799880981445,-55.98899841308594 C-37.72200012207031,-57.25400161743164 -36.766998291015625,-58.486000061035156 -35.46099853515625,-58.486000061035156 C-35.46099853515625,-58.486000061035156 -26.23699951171875,-58.486000061035156 -26.23699951171875,-58.486000061035156 C-25.499000549316406,-58.486000061035156 -24.820999145507812,-58.07899856567383 -24.472999572753906,-57.428001403808594 C-24.472999572753906,-57.428001403808594 37.46200180053711,58.486000061035156 37.46200180053711,58.486000061035156 C37.46200180053711,58.486000061035156 -8.038000106811523,58.486000061035156 -8.038000106811523,58.486000061035156z"></path></g></g><g transform="matrix(1,0,0,1,408,219.67599487304688)" opacity="1" style="display: block;"><g opacity="1" transform="matrix(2,0,0,2,0,0)"><path fill="url(&quot;#__lottie_element_1573&quot;)" fill-opacity="1" d=" M-8,7.0279998779296875 C-10.208999633789062,7.0279998779296875 -12,5.236999988555908 -12,3.0280001163482666 C-12,3.0280001163482666 -12,-3.0280001163482666 -12,-3.0280001163482666 C-12,-5.236999988555908 -10.208999633789062,-7.0279998779296875 -8,-7.0279998779296875 C-8,-7.0279998779296875 8,-7.0279998779296875 8,-7.0279998779296875 C10.208999633789062,-7.0279998779296875 12,-5.236999988555908 12,-3.0280001163482666 C12,-3.0280001163482666 12,3.0280001163482666 12,3.0280001163482666 C12,5.236999988555908 10.208999633789062,7.0279998779296875 8,7.0279998779296875 C8,7.0279998779296875 -8,7.0279998779296875 -8,7.0279998779296875z"></path></g></g><g transform="matrix(1,0,0,1,380,300)" opacity="1" style="display: block;"><g opacity="1" transform="matrix(2,0,0,2,0,0)"><path fill="url(&quot;#__lottie_element_1577&quot;)" fill-opacity="1" d=" M-53.055999755859375,-11.0649995803833 C-74.96299743652344,-9.295000076293945 -100,-5.521999835968018 -100,0 C-100,5.521999835968018 -74.96299743652344,9.295000076293945 -53.055999755859375,11.0649995803833 C-30.886999130249023,12.857000350952148 30.70400047302246,11.746999740600586 57.766998291015625,11.260000228881836 C64.13300323486328,11.145000457763672 68.58799743652344,11.0649995803833 70.1709976196289,11.0649995803833 C76.82099914550781,11.0649995803833 100,6.02400016784668 100,0 C100,-6.02400016784668 76.82099914550781,-11.0649995803833 70.1709976196289,-11.0649995803833 C68.58799743652344,-11.0649995803833 64.13300323486328,-11.145000457763672 57.766998291015625,-11.260000228881836 C30.70400047302246,-11.746999740600586 -30.886999130249023,-12.857000350952148 -53.055999755859375,-11.0649995803833z"></path></g></g><g transform="matrix(1,0,0,1,130,276)" opacity="0.2" style="display: none;"><g opacity="1" transform="matrix(1,0,0,1,0,0)"><path stroke-linecap="round" stroke-linejoin="miter" fill-opacity="0" stroke-miterlimit="4" stroke="#FFFFFF" stroke-opacity="1" stroke-width="6px" d="M0 0"></path></g></g><g transform="matrix(1,0,0,1,250,436)" opacity="0.2" style="display: none;"><g opacity="1" transform="matrix(1,0,0,1,0,0)"><path stroke-linecap="round" stroke-linejoin="miter" fill-opacity="0" stroke-miterlimit="4" stroke="#FFFFFF" stroke-opacity="1" stroke-width="6px" d="M0 0"></path></g></g><g transform="matrix(1,0,0,1,350,476)" opacity="0.2" style="display: none;"><g opacity="1" transform="matrix(1,0,0,1,0,0)"><path stroke-linecap="round" stroke-linejoin="miter" fill-opacity="0" stroke-miterlimit="4" stroke="#FFFFFF" stroke-opacity="1" stroke-width="6px" d="M0 0"></path></g></g><g transform="matrix(1,0,0,1,330,196)" opacity="0.2" style="display: none;"><g opacity="1" transform="matrix(1,0,0,1,0,0)"><path stroke-linecap="round" stroke-linejoin="miter" fill-opacity="0" stroke-miterlimit="4" stroke="#FFFFFF" stroke-opacity="1" stroke-width="6px" d="M0 0"></path></g></g></g></svg>