<svg xmlns:xlink="http://www.w3.org/1999/xlink" xmlns="http://www.w3.org/2000/svg" viewBox="0 0 520 840" width="520" height="840" preserveAspectRatio="xMidYMid meet" style="width: 100%; height: 100%; transform: translate3d(0px, 0px, 0px);"><defs><clipPath id="__lottie_element_503"><rect width="520" height="840" x="0" y="0"></rect></clipPath><clipPath id="__lottie_element_505"><path d="M0,0 L380,0 L380,804 L0,804z"></path></clipPath><linearGradient id="__lottie_element_511" spreadMethod="pad" gradientUnits="userSpaceOnUse" x1="0" y1="-40" x2="0" y2="40"><stop offset="0%" stop-color="rgb(255,255,255)" stop-opacity="0"></stop><stop offset="50%" stop-color="rgb(255,255,255)" stop-opacity="0.5"></stop><stop offset="100%" stop-color="rgb(255,255,255)" stop-opacity="1"></stop></linearGradient><linearGradient id="__lottie_element_515" spreadMethod="pad" gradientUnits="userSpaceOnUse" x1="0" y1="-50" x2="0" y2="50"><stop offset="0%" stop-color="rgb(102,102,102)" stop-opacity="0"></stop><stop offset="50%" stop-color="rgb(102,102,102)" stop-opacity="0.5"></stop><stop offset="100%" stop-color="rgb(102,102,102)" stop-opacity="1"></stop></linearGradient><linearGradient id="__lottie_element_519" spreadMethod="pad" gradientUnits="userSpaceOnUse" x1="-0.004000000189989805" y1="-150" x2="-0.004000000189989805" y2="150"><stop offset="0%" stop-color="rgb(255,255,255)" stop-opacity="1"></stop><stop offset="50%" stop-color="rgb(255,255,255)" stop-opacity="0.5"></stop><stop offset="100%" stop-color="rgb(255,255,255)" stop-opacity="0"></stop></linearGradient><linearGradient id="__lottie_element_523" spreadMethod="pad" gradientUnits="userSpaceOnUse" x1="0" y1="-35" x2="0" y2="35"><stop offset="0%" stop-color="rgb(255,255,255)" stop-opacity="0"></stop><stop offset="50%" stop-color="rgb(255,255,255)" stop-opacity="0.5"></stop><stop offset="100%" stop-color="rgb(255,255,255)" stop-opacity="1"></stop></linearGradient><linearGradient id="__lottie_element_530" spreadMethod="pad" gradientUnits="userSpaceOnUse" x1="0" y1="-34" x2="0" y2="34"><stop offset="0%" stop-color="rgb(204,204,204)" stop-opacity="0"></stop><stop offset="50%" stop-color="rgb(204,204,204)" stop-opacity="0.5"></stop><stop offset="100%" stop-color="rgb(204,204,204)" stop-opacity="1"></stop></linearGradient><clipPath id="__lottie_element_535"><path d="M0,0 L360,0 L360,784 L0,784z"></path></clipPath><linearGradient id="__lottie_element_511" spreadMethod="pad" gradientUnits="userSpaceOnUse" x1="0" y1="-40" x2="0" y2="40"><stop offset="0%" stop-color="rgb(255,255,255)" stop-opacity="0"></stop><stop offset="50%" stop-color="rgb(255,255,255)" stop-opacity="0.5"></stop><stop offset="100%" stop-color="rgb(255,255,255)" stop-opacity="1"></stop></linearGradient><linearGradient id="__lottie_element_515" spreadMethod="pad" gradientUnits="userSpaceOnUse" x1="0" y1="-50" x2="0" y2="50"><stop offset="0%" stop-color="rgb(102,102,102)" stop-opacity="0"></stop><stop offset="50%" stop-color="rgb(102,102,102)" stop-opacity="0.5"></stop><stop offset="100%" stop-color="rgb(102,102,102)" stop-opacity="1"></stop></linearGradient><linearGradient id="__lottie_element_519" spreadMethod="pad" gradientUnits="userSpaceOnUse" x1="-0.004000000189989805" y1="-150" x2="-0.004000000189989805" y2="150"><stop offset="0%" stop-color="rgb(255,255,255)" stop-opacity="1"></stop><stop offset="50%" stop-color="rgb(255,255,255)" stop-opacity="0.5"></stop><stop offset="100%" stop-color="rgb(255,255,255)" stop-opacity="0"></stop></linearGradient><linearGradient id="__lottie_element_523" spreadMethod="pad" gradientUnits="userSpaceOnUse" x1="0" y1="-35" x2="0" y2="35"><stop offset="0%" stop-color="rgb(255,255,255)" stop-opacity="0"></stop><stop offset="50%" stop-color="rgb(255,255,255)" stop-opacity="0.5"></stop><stop offset="100%" stop-color="rgb(255,255,255)" stop-opacity="1"></stop></linearGradient><linearGradient id="__lottie_element_530" spreadMethod="pad" gradientUnits="userSpaceOnUse" x1="0" y1="-34" x2="0" y2="34"><stop offset="0%" stop-color="rgb(204,204,204)" stop-opacity="0"></stop><stop offset="50%" stop-color="rgb(204,204,204)" stop-opacity="0.5"></stop><stop offset="100%" stop-color="rgb(204,204,204)" stop-opacity="1"></stop></linearGradient></defs><g clip-path="url(#__lottie_element_503)"><g clip-path="url(#__lottie_element_505)" transform="matrix(1,0,0,1,70,42)" opacity="1" style="display: block;"><g transform="matrix(1,0,0,1,190,674)" opacity="1" style="display: block;"><g opacity="1" transform="matrix(2,0,0,2,0,0)"><path fill="url(&quot;#__lottie_element_511&quot;)" fill-opacity="1" d=" M0,-40 C38.65999984741211,-40 70,-24.329999923706055 70,-5 C70,-5 70,5 70,5 C70,24.329999923706055 38.65999984741211,40 0,40 C-38.65999984741211,40 -70,24.329999923706055 -70,5 C-70,5 -70,-5 -70,-5 C-70,-24.329999923706055 -38.65999984741211,-40 0,-40z"></path></g></g><g transform="matrix(1,0,0,1,190,694)" opacity="1" style="display: block;"><g opacity="1" transform="matrix(2,0,0,2,0,0)"><path stroke="url(&quot;#__lottie_element_515&quot;)" stroke-linecap="butt" stroke-linejoin="miter" fill-opacity="0" stroke-miterlimit="4" stroke-opacity="1" stroke-width="3px" d=" M0,-50 C49.67100143432617,-50 90,-27.594999313354492 90,0 C90,27.594999313354492 49.67100143432617,50 0,50 C-49.67100143432617,50 -90,27.594999313354492 -90,0 C-90,-27.594999313354492 -49.67100143432617,-50 0,-50z"></path></g></g><g transform="matrix(1,0,0,1,190.00799560546875,390)" opacity="1" style="display: block;"><g opacity="1" transform="matrix(2,0,0,2,0,0)"><path fill="url(&quot;#__lottie_element_519&quot;)" fill-opacity="1" d=" M80,-150 C80,-150 -80,-150 -80,-150 C-80,-150 -84.54100036621094,-75.52200317382812 -84.54100036621094,-75.52200317382812 C-84.84600067138672,-70.5270004272461 -84.52400207519531,-65.51399993896484 -83.58399963378906,-60.5989990234375 C-83.58399963378906,-60.5989990234375 -55.55500030517578,85.95600128173828 -55.55500030517578,85.95600128173828 C-51.970001220703125,104.6989974975586 -55.202999114990234,124.10600280761719 -64.6709976196289,140.6750030517578 C-64.6709976196289,140.6750030517578 -70,150 -70,150 C-70,150 70,150 70,150 C70,150 64.6709976196289,140.6750030517578 64.6709976196289,140.6750030517578 C55.202999114990234,124.10600280761719 51.970001220703125,104.697998046875 55.55500030517578,85.95500183105469 C55.55500030517578,85.95500183105469 83.58399963378906,-60.5989990234375 83.58399963378906,-60.5989990234375 C84.52400207519531,-65.51399993896484 84.84600067138672,-70.5270004272461 84.54100036621094,-75.52200317382812 C84.54100036621094,-75.52200317382812 80,-150 80,-150z"></path></g></g><g transform="matrix(1,0,0,1,190,664)" opacity="1" style="display: block;"><g opacity="1" transform="matrix(2,0,0,2,0,0)"><path fill="url(&quot;#__lottie_element_523&quot;)" fill-opacity="1" d=" M0,-35 C38.632999420166016,-35 70,-19.316499710083008 70,0 C70,19.316499710083008 38.632999420166016,35 0,35 C-38.632999420166016,35 -70,19.316499710083008 -70,0 C-70,-19.316499710083008 -38.632999420166016,-35 0,-35z"></path></g></g><g transform="matrix(1,0,0,1,190.00799560546875,90)" opacity="1" style="display: block;"><g opacity="1" transform="matrix(2,0,0,2,0,0)"><path fill="#FFFFFF" fill-opacity="1" d=" M0,-40 C44.152000427246094,-40 80,-22.076000213623047 80,0 C80,22.076000213623047 44.152000427246094,40 0,40 C-44.152000427246094,40 -80,22.076000213623047 -80,0 C-80,-22.076000213623047 -44.152000427246094,-40 0,-40z"></path></g></g><g transform="matrix(1,0,0,1,190,90)" opacity="1" style="display: block;"><g opacity="1" transform="matrix(2,0,0,2,0,0)"><path fill="url(&quot;#__lottie_element_530&quot;)" fill-opacity="1" d=" M0,-34 C40.840599060058594,-34 74,-18.76460075378418 74,0 C74,18.76460075378418 40.840599060058594,34 0,34 C-40.840599060058594,34 -74,18.76460075378418 -74,0 C-74,-18.76460075378418 -40.840599060058594,-34 0,-34z"></path></g></g><g transform="matrix(0,0,0,0,190,664)" opacity="1" style="display: block;"><g opacity="1" transform="matrix(2,0,0,2,0,0)"><path fill="#FFAA48" fill-opacity="1" d=" M0,-15 C19.316499710083008,-15 35,-8.278499603271484 35,0 C35,8.278499603271484 19.316499710083008,15 0,15 C-19.316499710083008,15 -35,8.278499603271484 -35,0 C-35,-8.278499603271484 -19.316499710083008,-15 0,-15z"></path></g></g><g clip-path="url(#__lottie_element_535)" transform="matrix(0.5,0,0,0.5,100,530)" opacity="0" style="display: block;"><g transform="matrix(1,0,0,1,180,248)" opacity="1" style="display: block;"><g opacity="1" transform="matrix(2,0,0,2,0,0)"><path fill="#FFFFFF" fill-opacity="0.6" d=" M0,-20 C38.108001708984375,-20 70,-6.568999767303467 70,10 C70,10 69.93499755859375,8.690999984741211 69.93499755859375,8.690999984741211 C69.97799682617188,9.125 70,9.560999870300293 70,10 C70,26.569000244140625 38.65999984741211,40 0,40 C-38.65999984741211,40 -70,26.569000244140625 -70,10 C-70,9.560999870300293 -69.97799682617188,9.125 -69.93499755859375,8.690999984741211 C-69.93499755859375,8.690999984741211 -70,10 -70,10 C-70,-6.568999767303467 -38.108001708984375,-20 0,-20z"></path></g></g><g transform="matrix(1,0,0,1,180,268)" opacity="1" style="display: block;"><g opacity="1" transform="matrix(2,0,0,2,0,0)"><path fill="#FFFFFF" fill-opacity="0.6" d=" M0,-30 C38.08110046386719,-30 69,-16.55699920654297 69,0 C69,16.55699920654297 38.08110046386719,30 0,30 C-38.08110046386719,30 -69,16.55699920654297 -69,0 C-69,-16.55699920654297 -38.08110046386719,-30 0,-30z"></path></g></g></g></g></g></svg>