<svg xmlns:xlink="http://www.w3.org/1999/xlink" xmlns="http://www.w3.org/2000/svg" viewBox="0 0 520 840" width="520" height="840" preserveAspectRatio="xMidYMid meet" style="width: 100%; height: 100%; transform: translate3d(0px, 0px, 0px);"><defs><clipPath id="__lottie_element_763"><rect width="520" height="840" x="0" y="0"></rect></clipPath><clipPath id="__lottie_element_765"><path d="M0,0 L420,0 L420,824 L0,824z"></path></clipPath><linearGradient id="__lottie_element_771" spreadMethod="pad" gradientUnits="userSpaceOnUse" x1="0" y1="-55" x2="0" y2="55"><stop offset="0%" stop-color="rgb(102,102,102)" stop-opacity="0"></stop><stop offset="50%" stop-color="rgb(102,102,102)" stop-opacity="0.5"></stop><stop offset="100%" stop-color="rgb(102,102,102)" stop-opacity="1"></stop></linearGradient><linearGradient id="__lottie_element_775" spreadMethod="pad" gradientUnits="userSpaceOnUse" x1="-0.004000000189989805" y1="-150" x2="-0.004000000189989805" y2="150"><stop offset="0%" stop-color="rgb(255,255,255)" stop-opacity="1"></stop><stop offset="50%" stop-color="rgb(255,255,255)" stop-opacity="0.5"></stop><stop offset="100%" stop-color="rgb(255,255,255)" stop-opacity="0"></stop></linearGradient><linearGradient id="__lottie_element_779" spreadMethod="pad" gradientUnits="userSpaceOnUse" x1="0" y1="-40" x2="0" y2="40"><stop offset="0%" stop-color="rgb(255,255,255)" stop-opacity="0"></stop><stop offset="50%" stop-color="rgb(255,255,255)" stop-opacity="0.5"></stop><stop offset="100%" stop-color="rgb(255,255,255)" stop-opacity="1"></stop></linearGradient><linearGradient id="__lottie_element_783" spreadMethod="pad" gradientUnits="userSpaceOnUse" x1="0" y1="-45" x2="0" y2="35"><stop offset="0%" stop-color="rgb(255,255,255)" stop-opacity="0"></stop><stop offset="50%" stop-color="rgb(255,255,255)" stop-opacity="0.5"></stop><stop offset="100%" stop-color="rgb(255,255,255)" stop-opacity="1"></stop></linearGradient><linearGradient id="__lottie_element_790" spreadMethod="pad" gradientUnits="userSpaceOnUse" x1="0" y1="-34" x2="0" y2="34"><stop offset="0%" stop-color="rgb(204,204,204)" stop-opacity="0"></stop><stop offset="50%" stop-color="rgb(204,204,204)" stop-opacity="0.5"></stop><stop offset="100%" stop-color="rgb(204,204,204)" stop-opacity="1"></stop></linearGradient><linearGradient id="__lottie_element_794" spreadMethod="pad" gradientUnits="userSpaceOnUse" x1="0" y1="-99" x2="0" y2="99"><stop offset="0%" stop-color="rgb(224,179,62)"></stop><stop offset="50%" stop-color="rgb(240,196,65)"></stop><stop offset="100%" stop-color="rgb(255,214,68)"></stop></linearGradient><clipPath id="__lottie_element_799"><path d="M0,0 L420,0 L420,824 L0,824z"></path></clipPath><linearGradient id="__lottie_element_771" spreadMethod="pad" gradientUnits="userSpaceOnUse" x1="0" y1="-55" x2="0" y2="55"><stop offset="0%" stop-color="rgb(102,102,102)" stop-opacity="0"></stop><stop offset="50%" stop-color="rgb(102,102,102)" stop-opacity="0.5"></stop><stop offset="100%" stop-color="rgb(102,102,102)" stop-opacity="1"></stop></linearGradient><linearGradient id="__lottie_element_775" spreadMethod="pad" gradientUnits="userSpaceOnUse" x1="-0.004000000189989805" y1="-150" x2="-0.004000000189989805" y2="150"><stop offset="0%" stop-color="rgb(255,255,255)" stop-opacity="1"></stop><stop offset="50%" stop-color="rgb(255,255,255)" stop-opacity="0.5"></stop><stop offset="100%" stop-color="rgb(255,255,255)" stop-opacity="0"></stop></linearGradient><linearGradient id="__lottie_element_779" spreadMethod="pad" gradientUnits="userSpaceOnUse" x1="0" y1="-40" x2="0" y2="40"><stop offset="0%" stop-color="rgb(255,255,255)" stop-opacity="0"></stop><stop offset="50%" stop-color="rgb(255,255,255)" stop-opacity="0.5"></stop><stop offset="100%" stop-color="rgb(255,255,255)" stop-opacity="1"></stop></linearGradient><linearGradient id="__lottie_element_783" spreadMethod="pad" gradientUnits="userSpaceOnUse" x1="0" y1="-45" x2="0" y2="35"><stop offset="0%" stop-color="rgb(255,255,255)" stop-opacity="0"></stop><stop offset="50%" stop-color="rgb(255,255,255)" stop-opacity="0.5"></stop><stop offset="100%" stop-color="rgb(255,255,255)" stop-opacity="1"></stop></linearGradient><linearGradient id="__lottie_element_790" spreadMethod="pad" gradientUnits="userSpaceOnUse" x1="0" y1="-34" x2="0" y2="34"><stop offset="0%" stop-color="rgb(204,204,204)" stop-opacity="0"></stop><stop offset="50%" stop-color="rgb(204,204,204)" stop-opacity="0.5"></stop><stop offset="100%" stop-color="rgb(204,204,204)" stop-opacity="1"></stop></linearGradient><linearGradient id="__lottie_element_794" spreadMethod="pad" gradientUnits="userSpaceOnUse" x1="0" y1="-99" x2="0" y2="99"><stop offset="0%" stop-color="rgb(224,179,62)"></stop><stop offset="50%" stop-color="rgb(240,196,65)"></stop><stop offset="100%" stop-color="rgb(255,214,68)"></stop></linearGradient></defs><g clip-path="url(#__lottie_element_763)"><g clip-path="url(#__lottie_element_765)" transform="matrix(1,0,0,1,50,22)" opacity="1" style="display: block;"><g transform="matrix(1,0,0,1,210,704)" opacity="1" style="display: block;"><g opacity="1" transform="matrix(2,0,0,2,0,0)"><path stroke="url(&quot;#__lottie_element_771&quot;)" stroke-linecap="butt" stroke-linejoin="miter" fill-opacity="0" stroke-miterlimit="4" stroke-opacity="1" stroke-width="3px" d=" M0,-55 C55.189998626708984,-55 100,-30.35449981689453 100,0 C100,30.35449981689453 55.189998626708984,55 0,55 C-55.189998626708984,55 -100,30.35449981689453 -100,0 C-100,-30.35449981689453 -55.189998626708984,-55 0,-55z"></path></g></g><g transform="matrix(1,0,0,1,210.00799560546875,390)" opacity="1" style="display: block;"><g opacity="1" transform="matrix(2,0,0,2,0,0)"><path fill="url(&quot;#__lottie_element_775&quot;)" fill-opacity="1" d=" M80,-150 C80,-150 -80,-150 -80,-150 C-80,-150 -51.95899963378906,97.69300079345703 -51.95899963378906,97.69300079345703 C-50.70899963378906,108.7300033569336 -54.10599899291992,119.79000091552734 -61.334999084472656,128.2239990234375 C-61.334999084472656,128.2239990234375 -80,150 -80,150 C-80,150 80,150 80,150 C80,150 61.334999084472656,128.2239990234375 61.334999084472656,128.2239990234375 C54.10599899291992,119.79000091552734 50.70899963378906,108.7300033569336 51.95899963378906,97.69300079345703 C51.95899963378906,97.69300079345703 80,-150 80,-150z"></path></g></g><g transform="matrix(1,0,0,1,210,674)" opacity="1" style="display: block;"><g opacity="1" transform="matrix(2,0,0,2,0,0)"><path fill="url(&quot;#__lottie_element_779&quot;)" fill-opacity="1" d=" M0,-40 C44.152000427246094,-40 80,-22.076000213623047 80,0 C80,22.076000213623047 44.152000427246094,40 0,40 C-44.152000427246094,40 -80,22.076000213623047 -80,0 C-80,-22.076000213623047 -44.152000427246094,-40 0,-40z"></path></g></g><g transform="matrix(1,0,0,1,210,684)" opacity="1" style="display: block;"><g opacity="1" transform="matrix(2,0,0,2,0,0)"><path fill="url(&quot;#__lottie_element_783&quot;)" fill-opacity="1" d=" M0,-45 C44.18299865722656,-45 80,-27.090999603271484 80,-5 C80,-5 80,5 80,5 C80,27.090999603271484 44.18299865722656,45 0,45 C-44.18299865722656,45 -80,27.090999603271484 -80,5 C-80,5 -80,-5 -80,-5 C-80,-27.090999603271484 -44.18299865722656,-45 0,-45z"></path></g></g><g transform="matrix(1,0,0,1,210.00799560546875,90)" opacity="1" style="display: block;"><g opacity="1" transform="matrix(2,0,0,2,0,0)"><path fill="#FFFFFF" fill-opacity="1" d=" M0,-40 C44.152000427246094,-40 80,-22.076000213623047 80,0 C80,22.076000213623047 44.152000427246094,40 0,40 C-44.152000427246094,40 -80,22.076000213623047 -80,0 C-80,-22.076000213623047 -44.152000427246094,-40 0,-40z"></path></g></g><g transform="matrix(1,0,0,1,210,90)" opacity="1" style="display: block;"><g opacity="1" transform="matrix(2,0,0,2,0,0)"><path fill="url(&quot;#__lottie_element_790&quot;)" fill-opacity="1" d=" M0,-34 C40.840599060058594,-34 74,-18.76460075378418 74,0 C74,18.76460075378418 40.840599060058594,34 0,34 C-40.840599060058594,34 -74,18.76460075378418 -74,0 C-74,-18.76460075378418 -40.840599060058594,-34 0,-34z"></path></g></g><g transform="matrix(1,0,0,1,210,466)" opacity="1" style="display: block;"><g opacity="1" transform="matrix(2,0,0,2,0,0)"><path fill="url(&quot;#__lottie_element_794&quot;)" fill-opacity="1" d=" M36,99 C36,99 -36,99 -36,99 C-36,99 -35,99 -35,99 C-35,99 35,99 35,99 C35,99 36,99 36,99z"></path></g></g><g transform="matrix(0,0,0,0,210,664)" opacity="1" style="display: block;"><g opacity="1" transform="matrix(2,0,0,2,0,0)"><path fill="#FFD644" fill-opacity="1" d=" M0,-15 C19.316499710083008,-15 35,-8.278499603271484 35,0 C35,8.278499603271484 19.316499710083008,15 0,15 C-19.316499710083008,15 -35,8.278499603271484 -35,0 C-35,-8.278499603271484 -19.316499710083008,-15 0,-15z"></path></g></g><g clip-path="url(#__lottie_element_799)" transform="matrix(0.6000000238418579,0,0,0.6000000238418579,83.99999237060547,500.79998779296875)" opacity="0" style="display: block;"><g transform="matrix(1,0,0,1,210,248)" opacity="1" style="display: block;"><g opacity="1" transform="matrix(2,0,0,2,0,0)"><path fill="#FFFFFF" fill-opacity="0.6" d=" M60,10 C60,10.689000129699707 59.93000030517578,11.371000289916992 59.79499816894531,12.045999526977539 C59.79499816894531,12.045999526977539 60,10 60,10 C60,23.80699920654297 33.137001037597656,35 0,35 C-33.137001037597656,35 -60,23.80699920654297 -60,10 C-60,10 -59.79499816894531,12.045999526977539 -59.79499816894531,12.045999526977539 C-59.93000030517578,11.371000289916992 -60,10.689000129699707 -60,10 C-60,-3.806999921798706 -34.242000579833984,-15 0,-15 C34.242000579833984,-15 60,-3.806999921798706 60,10z"></path></g></g><g transform="matrix(0.949999988079071,0,0,0.949999988079071,210,266)" opacity="1" style="display: block;"><g opacity="1" transform="matrix(2,0,0,2,0,0)"><path fill="#FFFFFF" fill-opacity="0.6" d=" M0,-25 C34.21780014038086,-25 62,-13.797499656677246 62,0 C62,13.797499656677246 34.21780014038086,25 0,25 C-34.21780014038086,25 -62,13.797499656677246 -62,0 C-62,-13.797499656677246 -34.21780014038086,-25 0,-25z"></path></g></g></g></g></g></svg>