<svg xmlns:xlink="http://www.w3.org/1999/xlink" xmlns="http://www.w3.org/2000/svg" viewBox="0 0 280 664" width="280" height="664" preserveAspectRatio="xMidYMid meet" style="width: 100%; height: 100%; transform: translate3d(0px, 0px, 0px);"><defs><clipPath id="__lottie_element_360"><rect width="280" height="664" x="0" y="0"></rect></clipPath><clipPath id="__lottie_element_365"><path d="M0,0 L280,0 L280,664 L0,664z"></path></clipPath><clipPath id="__lottie_element_369"><path d="M0,0 L280,0 L280,192 L0,192z"></path></clipPath><clipPath id="__lottie_element_373"><path d="M0,0 L528,0 L528,600 L0,600z"></path></clipPath><linearGradient id="__lottie_element_379" spreadMethod="pad" gradientUnits="userSpaceOnUse" x1="-10" y1="-48" x2="-10" y2="48"><stop offset="0%" stop-color="rgb(255,255,255)" stop-opacity="0"></stop><stop offset="50%" stop-color="rgb(255,255,255)" stop-opacity="0.05000000074505806"></stop><stop offset="100%" stop-color="rgb(255,255,255)" stop-opacity="0.10000000149011612"></stop></linearGradient><linearGradient id="__lottie_element_383" spreadMethod="pad" gradientUnits="userSpaceOnUse" x1="9.74899959564209" y1="-50" x2="10" y2="48"><stop offset="0%" stop-color="rgb(255,255,255)" stop-opacity="0"></stop><stop offset="50%" stop-color="rgb(255,255,255)" stop-opacity="0.05000000074505806"></stop><stop offset="100%" stop-color="rgb(255,255,255)" stop-opacity="0.10000000149011612"></stop></linearGradient><linearGradient id="__lottie_element_387" spreadMethod="pad" gradientUnits="userSpaceOnUse" x1="0" y1="-132" x2="0" y2="132"><stop offset="0%" stop-color="rgb(255,171,72)"></stop><stop offset="50%" stop-color="rgb(160,109,48)"></stop><stop offset="100%" stop-color="rgb(66,46,24)"></stop></linearGradient><linearGradient id="__lottie_element_379" spreadMethod="pad" gradientUnits="userSpaceOnUse" x1="-10" y1="-48" x2="-10" y2="48"><stop offset="0%" stop-color="rgb(255,255,255)" stop-opacity="0"></stop><stop offset="50%" stop-color="rgb(255,255,255)" stop-opacity="0.05000000074505806"></stop><stop offset="100%" stop-color="rgb(255,255,255)" stop-opacity="0.10000000149011612"></stop></linearGradient><linearGradient id="__lottie_element_383" spreadMethod="pad" gradientUnits="userSpaceOnUse" x1="9.74899959564209" y1="-50" x2="10" y2="48"><stop offset="0%" stop-color="rgb(255,255,255)" stop-opacity="0"></stop><stop offset="50%" stop-color="rgb(255,255,255)" stop-opacity="0.05000000074505806"></stop><stop offset="100%" stop-color="rgb(255,255,255)" stop-opacity="0.10000000149011612"></stop></linearGradient><linearGradient id="__lottie_element_387" spreadMethod="pad" gradientUnits="userSpaceOnUse" x1="0" y1="-132" x2="0" y2="132"><stop offset="0%" stop-color="rgb(255,171,72)"></stop><stop offset="50%" stop-color="rgb(160,109,48)"></stop><stop offset="100%" stop-color="rgb(66,46,24)"></stop></linearGradient></defs><g clip-path="url(#__lottie_element_360)"><g transform="matrix(1,0,0,1,140,332)" opacity="1" style="display: block;"><g opacity="1" transform="matrix(2,0,0,2,0,0)"></g></g><g clip-path="url(#__lottie_element_365)" transform="matrix(1,0,0,1,0,0)" opacity="1" style="display: block;"><g clip-path="url(#__lottie_element_369)" transform="matrix(1,0,0,1,0,0)" opacity="0" style="display: block;"><g transform="matrix(1,0,0,1,42.8489990234375,96)" opacity="1" style="display: block;"><g opacity="1" transform="matrix(2,0,0,2,0,0)"><path fill="url(&quot;#__lottie_element_379&quot;)" fill-opacity="1" d=" M-21.424999237060547,-48 C-21.424999237060547,-48 -1.2009999752044678,48 -1.2009999752044678,48 C-1.2009999752044678,48 21.424999237060547,23.5 21.424999237060547,23.5 C21.424999237060547,23.5 21.424999237060547,-48 21.424999237060547,-48 C21.424999237060547,-48 -21.424999237060547,-48 -21.424999237060547,-48z"></path></g></g><g transform="matrix(1,0,0,1,237.1510009765625,96)" opacity="1" style="display: block;"><g opacity="1" transform="matrix(2,0,0,2,0,0)"><path fill="url(&quot;#__lottie_element_383&quot;)" fill-opacity="1" d=" M1.2009999752044678,48 C1.2009999752044678,48 21.424999237060547,-48 21.424999237060547,-48 C21.424999237060547,-48 -21.424999237060547,-48 -21.424999237060547,-48 C-21.424999237060547,-48 -21.424999237060547,23.5 -21.424999237060547,23.5 C-21.424999237060547,23.5 1.2009999752044678,48 1.2009999752044678,48z"></path></g></g></g><g clip-path="url(#__lottie_element_373)" transform="matrix(1,0,0,1,-124.00100708007812,100)" opacity="1" style="display: block;"><g transform="matrix(1,0,0,1,264,300)" opacity="1" style="display: block;"><g opacity="1" transform="matrix(2,0,0,2,0,0)"><path fill="url(&quot;#__lottie_element_387&quot;)" fill-opacity="1" d=" M-60.029998779296875,-34.24300003051758 C-60.029998779296875,-34.24300003051758 -50.26499938964844,-36.683998107910156 -50.26499938964844,-36.683998107910156 C-49.819000244140625,-20.39299964904785 -49.52199935913086,-6.080999851226807 -49.52199935913086,3 C-49.52199935913086,21.214000701904297 -50.27000045776367,58.67900085449219 -51.013999938964844,90.9540023803711 C-51.53300094604492,113.4520034790039 -33.459999084472656,132 -10.956000328063965,132 C-10.956000328063965,132 10.91100025177002,132 10.91100025177002,132 C33.415000915527344,132 51.487998962402344,113.4520034790039 50.96900177001953,90.9540023803711 C50.224998474121094,58.67900085449219 49.47800064086914,21.214000701904297 49.47800064086914,3 C49.47800064086914,-6.083000183105469 49.775001525878906,-20.399999618530273 50.22100067138672,-36.69499969482422 C50.22100067138672,-36.69499969482422 60.029998779296875,-34.24300003051758 60.029998779296875,-34.24300003051758 C62.55500030517578,-33.61199951171875 65,-35.520999908447266 65,-38.12300109863281 C65,-38.12300109863281 65,-42.52799987792969 65,-42.52799987792969 C65,-44.042999267578125 64.14399719238281,-45.428001403808594 62.78900146484375,-46.10599899291992 C62.78900146484375,-46.10599899291992 57.845001220703125,-48.577999114990234 57.845001220703125,-48.577999114990234 C57.290000915527344,-48.85599899291992 56.676998138427734,-49 56.055999755859375,-49 C56.055999755859375,-49 50.573001861572266,-49 50.573001861572266,-49 C50.979000091552734,-62.60499954223633 51.457000732421875,-76.95999908447266 51.93000030517578,-90.41799926757812 C52.72800064086914,-113.11599731445312 34.57400131225586,-132 11.862000465393066,-132 C11.862000465393066,-132 -11.906999588012695,-132 -11.906999588012695,-132 C-34.61899948120117,-132 -52.77299880981445,-113.11599731445312 -51.974998474121094,-90.41799926757812 C-51.50199890136719,-76.95999908447266 -51.02399826049805,-62.60499954223633 -50.61800003051758,-49 C-50.61800003051758,-49 -56.055999755859375,-49 -56.055999755859375,-49 C-56.676998138427734,-49 -57.290000915527344,-48.85599899291992 -57.845001220703125,-48.577999114990234 C-57.845001220703125,-48.577999114990234 -62.78900146484375,-46.10599899291992 -62.78900146484375,-46.10599899291992 C-64.14399719238281,-45.428001403808594 -65,-44.042999267578125 -65,-42.52799987792969 C-65,-42.52799987792969 -65,-38.12300109863281 -65,-38.12300109863281 C-65,-35.520999908447266 -62.55500030517578,-33.61199951171875 -60.029998779296875,-34.24300003051758z"></path></g></g><g transform="matrix(1,0,0,1,262.99700927734375,499.50299072265625)" opacity="0.8" style="display: block;"><g opacity="1" transform="matrix(2,0,0,2,0,0)"><path fill="#222222" fill-opacity="1" d=" M-38.564998626708984,0.3479999899864197 C-39.10499954223633,1.1579999923706055 -38.98099899291992,2.243000030517578 -38.27000045776367,2.9079999923706055 C-23.891000747680664,16.344999313354492 -16.488000869750977,19.75 0,19.75 C16.488000869750977,19.75 23.891000747680664,16.344999313354492 38.27000045776367,2.9079999923706055 C38.98099899291992,2.243000030517578 39.10499954223633,1.1579999923706055 38.564998626708984,0.3479999899864197 C38.564998626708984,0.3479999899864197 27.952999114990234,-15.569999694824219 27.952999114990234,-15.569999694824219 C27.66200065612793,-16.006000518798828 27.218000411987305,-16.30900001525879 26.70400047302246,-16.41200065612793 C23.263999938964844,-17.10099983215332 9.418999671936035,-19.75 0,-19.75 C-9.418999671936035,-19.75 -23.263999938964844,-17.10099983215332 -26.70400047302246,-16.41200065612793 C-27.218000411987305,-16.30900001525879 -27.66200065612793,-16.006000518798828 -27.952999114990234,-15.569999694824219 C-27.952999114990234,-15.569999694824219 -38.564998626708984,0.3479999899864197 -38.564998626708984,0.3479999899864197z"></path></g></g><g transform="matrix(1,0,0,1,185.4980010986328,359.0369873046875)" opacity="0.8" style="display: block;"><g opacity="1" transform="matrix(2,0,0,2,0,0)"><path fill="#222222" fill-opacity="1" d=" M-5.456999778747559,-3.2249999046325684 C-5.456999778747559,-3.2249999046325684 4.043000221252441,6.275000095367432 4.043000221252441,6.275000095367432 C4.672999858856201,6.90500020980835 5.75,6.459000110626221 5.75,5.567999839782715 C5.75,5.567999839782715 5.75,-21.89299964904785 5.75,-21.89299964904785 C5.75,-21.97599983215332 5.739999771118164,-22.058000564575195 5.71999979019165,-22.13800048828125 C5.71999979019165,-22.13800048828125 -3.7799999713897705,-59.724998474121094 -3.7799999713897705,-59.724998474121094 C-4.068999767303467,-60.867000579833984 -5.75,-60.65800094604492 -5.75,-59.47999954223633 C-5.75,-59.47999954223633 -5.75,-3.931999921798706 -5.75,-3.931999921798706 C-5.75,-3.6670000553131104 -5.644999980926514,-3.4130001068115234 -5.456999778747559,-3.2249999046325684z M-3.9010000228881836,60.00699996948242 C-3.9010000228881836,60.00699996948242 5.598999977111816,44.724998474121094 5.598999977111816,44.724998474121094 C5.697999954223633,44.56700134277344 5.75,44.38399887084961 5.75,44.196998596191406 C5.75,44.196998596191406 5.75,16.884000778198242 5.75,16.884000778198242 C5.75,16.625999450683594 5.650000095367432,16.378000259399414 5.4720001220703125,16.191999435424805 C5.4720001220703125,16.191999435424805 -4.0279998779296875,6.2789998054504395 -4.0279998779296875,6.2789998054504395 C-4.6519999504089355,5.627999782562256 -5.75,6.070000171661377 -5.75,6.9710001945495605 C-5.75,6.9710001945495605 -5.75,59.479000091552734 -5.75,59.479000091552734 C-5.75,60.48500061035156 -4.432000160217285,60.861000061035156 -3.9010000228881836,60.00699996948242z"></path></g></g><g transform="matrix(1,0,0,1,263.9949951171875,235.0050048828125)" opacity="0.8" style="display: block;"><g opacity="1" transform="matrix(2,0,0,2,0,0)"><path fill="#222222" fill-opacity="1" d=" M-31.875999450683594,28.31800079345703 C-31.719999313354492,29.28700065612793 -30.884000778198242,30 -29.902000427246094,30 C-29.902000427246094,30 29.902000427246094,30 29.902000427246094,30 C30.884000778198242,30 31.719999313354492,29.28700065612793 31.875999450683594,28.31800079345703 C31.875999450683594,28.31800079345703 39.72800064086914,-20.381999969482422 39.72800064086914,-20.381999969482422 C39.88399887084961,-21.351999282836914 39.31399917602539,-22.290000915527344 38.375999450683594,-22.582000732421875 C32.71200180053711,-24.340999603271484 13.449999809265137,-30 0,-30 C-13.449999809265137,-30 -32.71200180053711,-24.340999603271484 -38.375999450683594,-22.582000732421875 C-39.31399917602539,-22.290000915527344 -39.88399887084961,-21.351999282836914 -39.72800064086914,-20.381999969482422 C-39.72800064086914,-20.381999969482422 -31.875999450683594,28.31800079345703 -31.875999450683594,28.31800079345703z"></path></g></g><g transform="matrix(1,0,0,1,263.9429931640625,68.96299743652344)" opacity="0.8" style="display: block;"><g opacity="1" transform="matrix(2,0,0,2,0,0)"><path fill="#FFFFFF" fill-opacity="1" d=" M50.520999908447266,12.899999618530273 C47.191001892089844,0.9190000295639038 38.4370002746582,-8.854000091552734 27.0310001373291,-13.519000053405762 C27.19700050354004,1.3559999465942383 34.3120002746582,10.602999687194824 38.14899826049805,13.519000053405762 C38.14899826049805,13.519000053405762 50.520999908447266,12.899999618530273 50.520999908447266,12.899999618530273z M-50.520999908447266,12.942000389099121 C-47.28099822998047,1.2380000352859497 -38.867000579833984,-8.364999771118164 -27.858999252319336,-13.164999961853027 C-28.132999420166016,1.503000020980835 -35.16600036621094,10.62600040435791 -38.97200012207031,13.519000053405762 C-38.97200012207031,13.519000053405762 -50.520999908447266,12.942000389099121 -50.520999908447266,12.942000389099121z"></path></g></g><g transform="matrix(1,0,0,1,263.99798583984375,379.0010070800781)" opacity="0.4" style="display: block;"><g opacity="1" transform="matrix(2,0,0,2,0,0)"><path fill="#FFAA48" fill-opacity="1" d=" M-28,32.5 C-28,33.60499954223633 -27.104999542236328,34.5 -26,34.5 C-26,34.5 26,34.5 26,34.5 C27.104999542236328,34.5 28,33.60499954223633 28,32.5 C28,32.5 28,-32.5 28,-32.5 C28,-33.60499954223633 27.104999542236328,-34.5 26,-34.5 C26,-34.5 -26,-34.5 -26,-34.5 C-27.104999542236328,-34.5 -28,-33.60499954223633 -28,-32.5 C-28,-32.5 -28,32.5 -28,32.5z"></path></g></g><g transform="matrix(1,0,0,1,263.99798583984375,131.0050048828125)" opacity="1" style="display: block;"><g opacity="1" transform="matrix(2,0,0,2,0,0)"><path fill="#FFAA48" fill-opacity="1" d=" M-14.354999542236328,17.945999145507812 C-14.147000312805176,18.854999542236328 -13.33899974822998,19.5 -12.406000137329102,19.5 C-12.406000137329102,19.5 12.406000137329102,19.5 12.406000137329102,19.5 C13.33899974822998,19.5 14.147000312805176,18.854999542236328 14.354999542236328,17.945999145507812 C14.354999542236328,17.945999145507812 21.583999633789062,-13.678999900817871 21.583999633789062,-13.678999900817871 C21.81800079345703,-14.704000473022461 21.22100067138672,-15.732000350952148 20.207000732421875,-16.01099967956543 C16.290000915527344,-17.09000015258789 6.7789998054504395,-19.5 0,-19.5 C-6.7789998054504395,-19.5 -16.290000915527344,-17.09000015258789 -20.207000732421875,-16.01099967956543 C-21.22100067138672,-15.732000350952148 -21.81800079345703,-14.704000473022461 -21.583999633789062,-13.678999900817871 C-21.583999633789062,-13.678999900817871 -14.354999542236328,17.945999145507812 -14.354999542236328,17.945999145507812z"></path></g></g><g transform="matrix(1,0,0,1,263.9960021972656,549.8839721679688)" opacity="0.4" style="display: block;"><g opacity="1" transform="matrix(2,0,0,2,0,0)"><path fill="#FFAA48" fill-opacity="1" d=" M-18.513999938964844,3.2019999027252197 C-18.190000534057617,3.742000102996826 -17.635000228881836,4.0970001220703125 -17.007999420166016,4.156000137329102 C-14.338000297546387,4.4070000648498535 -6.74399995803833,5.059999942779541 0,5.059999942779541 C6.74399995803833,5.059999942779541 14.338000297546387,4.4070000648498535 17.007999420166016,4.156000137329102 C17.635000228881836,4.0970001220703125 18.190000534057617,3.742000102996826 18.513999938964844,3.2019999027252197 C18.513999938964844,3.2019999027252197 21.5939998626709,-1.9299999475479126 21.5939998626709,-1.9299999475479126 C22.499000549316406,-3.438999891281128 21.14900016784668,-5.3420000076293945 19.417999267578125,-5.025000095367432 C14.598999977111816,-4.14300012588501 6.788000106811523,-2.940000057220459 0,-2.940000057220459 C-6.788000106811523,-2.940000057220459 -14.598999977111816,-4.14300012588501 -19.417999267578125,-5.025000095367432 C-21.14900016784668,-5.3420000076293945 -22.499000549316406,-3.438999891281128 -21.5939998626709,-1.9299999475479126 C-21.5939998626709,-1.9299999475479126 -18.513999938964844,3.2019999027252197 -18.513999938964844,3.2019999027252197z"></path></g></g><g transform="matrix(1,0,0,1,341.49798583984375,359.03900146484375)" opacity="0.8" style="display: block;"><g opacity="1" transform="matrix(2,0,0,2,0,0)"><path fill="#222222" fill-opacity="1" d=" M5.456999778747559,-3.2249999046325684 C5.456999778747559,-3.2249999046325684 -4.043000221252441,6.275000095367432 -4.043000221252441,6.275000095367432 C-4.672999858856201,6.90500020980835 -5.75,6.459000110626221 -5.75,5.567999839782715 C-5.75,5.567999839782715 -5.75,-21.89299964904785 -5.75,-21.89299964904785 C-5.75,-21.97599983215332 -5.739999771118164,-22.058000564575195 -5.71999979019165,-22.13800048828125 C-5.71999979019165,-22.13800048828125 3.7799999713897705,-59.724998474121094 3.7799999713897705,-59.724998474121094 C4.068999767303467,-60.867000579833984 5.75,-60.65800094604492 5.75,-59.47999954223633 C5.75,-59.47999954223633 5.75,-3.931999921798706 5.75,-3.931999921798706 C5.75,-3.6670000553131104 5.644999980926514,-3.4130001068115234 5.456999778747559,-3.2249999046325684z M3.9010000228881836,60.00699996948242 C3.9010000228881836,60.00699996948242 -5.598999977111816,44.724998474121094 -5.598999977111816,44.724998474121094 C-5.697999954223633,44.56700134277344 -5.75,44.38399887084961 -5.75,44.196998596191406 C-5.75,44.196998596191406 -5.75,16.884000778198242 -5.75,16.884000778198242 C-5.75,16.625999450683594 -5.650000095367432,16.378000259399414 -5.4720001220703125,16.191999435424805 C-5.4720001220703125,16.191999435424805 4.0279998779296875,6.2789998054504395 4.0279998779296875,6.2789998054504395 C4.6519999504089355,5.627999782562256 5.75,6.070000171661377 5.75,6.9710001945495605 C5.75,6.9710001945495605 5.75,59.479000091552734 5.75,59.479000091552734 C5.75,60.48500061035156 4.432000160217285,60.861000061035156 3.9010000228881836,60.00699996948242z"></path></g></g></g></g></g></svg>