<svg xmlns:xlink="http://www.w3.org/1999/xlink" xmlns="http://www.w3.org/2000/svg" viewBox="0 0 520 840" width="520" height="840" preserveAspectRatio="xMidYMid meet" style="width: 100%; height: 100%; transform: translate3d(0px, 0px, 0px);"><defs><clipPath id="__lottie_element_589"><rect width="520" height="840" x="0" y="0"></rect></clipPath><clipPath id="__lottie_element_591"><path d="M0,0 L484,0 L484,624 L0,624z"></path></clipPath><linearGradient id="__lottie_element_597" spreadMethod="pad" gradientUnits="userSpaceOnUse" x1="0" y1="-60" x2="0" y2="60"><stop offset="0%" stop-color="rgb(102,102,102)" stop-opacity="0"></stop><stop offset="50%" stop-color="rgb(102,102,102)" stop-opacity="0.5"></stop><stop offset="100%" stop-color="rgb(102,102,102)" stop-opacity="1"></stop></linearGradient><linearGradient id="__lottie_element_601" spreadMethod="pad" gradientUnits="userSpaceOnUse" x1="0" y1="-97.5" x2="0" y2="97.5"><stop offset="0%" stop-color="rgb(255,255,255)" stop-opacity="1"></stop><stop offset="50%" stop-color="rgb(255,255,255)" stop-opacity="0.5"></stop><stop offset="100%" stop-color="rgb(255,255,255)" stop-opacity="0"></stop></linearGradient><linearGradient id="__lottie_element_605" spreadMethod="pad" gradientUnits="userSpaceOnUse" x1="0" y1="-45" x2="0" y2="45"><stop offset="0%" stop-color="rgb(255,255,255)" stop-opacity="0"></stop><stop offset="50%" stop-color="rgb(255,255,255)" stop-opacity="0.5"></stop><stop offset="100%" stop-color="rgb(255,255,255)" stop-opacity="1"></stop></linearGradient><linearGradient id="__lottie_element_612" spreadMethod="pad" gradientUnits="userSpaceOnUse" x1="0" y1="-35" x2="0" y2="35"><stop offset="0%" stop-color="rgb(204,204,204)" stop-opacity="0"></stop><stop offset="50%" stop-color="rgb(204,204,204)" stop-opacity="0.5"></stop><stop offset="100%" stop-color="rgb(204,204,204)" stop-opacity="1"></stop></linearGradient><clipPath id="__lottie_element_620"><path d="M0,0 L464,0 L464,604 L0,604z"></path></clipPath><clipPath id="__lottie_element_624"><path d="M0,0 L130,0 L130,281 L0,281z"></path></clipPath><clipPath id="__lottie_element_634"><path d="M0,0 L130,0 L130,281 L0,281z"></path></clipPath><linearGradient id="__lottie_element_640" spreadMethod="pad" gradientUnits="userSpaceOnUse" x1="0" y1="-70" x2="0" y2="70"><stop offset="0%" stop-color="rgb(255,255,255)" stop-opacity="1"></stop><stop offset="50%" stop-color="rgb(255,255,255)" stop-opacity="0.5"></stop><stop offset="100%" stop-color="rgb(255,255,255)" stop-opacity="0"></stop></linearGradient><linearGradient id="__lottie_element_1614" spreadMethod="pad" gradientUnits="userSpaceOnUse" x1="-13.081000328063965" y1="-49" x2="-13.081000328063965" y2="59"><stop offset="0%" stop-color="rgb(255,171,72)"></stop><stop offset="50%" stop-color="rgb(255,176,72)"></stop><stop offset="100%" stop-color="rgb(255,182,72)"></stop></linearGradient><linearGradient id="__lottie_element_597" spreadMethod="pad" gradientUnits="userSpaceOnUse" x1="0" y1="-60" x2="0" y2="60"><stop offset="0%" stop-color="rgb(102,102,102)" stop-opacity="0"></stop><stop offset="50%" stop-color="rgb(102,102,102)" stop-opacity="0.5"></stop><stop offset="100%" stop-color="rgb(102,102,102)" stop-opacity="1"></stop></linearGradient><linearGradient id="__lottie_element_601" spreadMethod="pad" gradientUnits="userSpaceOnUse" x1="0" y1="-97.5" x2="0" y2="97.5"><stop offset="0%" stop-color="rgb(255,255,255)" stop-opacity="1"></stop><stop offset="50%" stop-color="rgb(255,255,255)" stop-opacity="0.5"></stop><stop offset="100%" stop-color="rgb(255,255,255)" stop-opacity="0"></stop></linearGradient><linearGradient id="__lottie_element_605" spreadMethod="pad" gradientUnits="userSpaceOnUse" x1="0" y1="-45" x2="0" y2="45"><stop offset="0%" stop-color="rgb(255,255,255)" stop-opacity="0"></stop><stop offset="50%" stop-color="rgb(255,255,255)" stop-opacity="0.5"></stop><stop offset="100%" stop-color="rgb(255,255,255)" stop-opacity="1"></stop></linearGradient><linearGradient id="__lottie_element_612" spreadMethod="pad" gradientUnits="userSpaceOnUse" x1="0" y1="-35" x2="0" y2="35"><stop offset="0%" stop-color="rgb(204,204,204)" stop-opacity="0"></stop><stop offset="50%" stop-color="rgb(204,204,204)" stop-opacity="0.5"></stop><stop offset="100%" stop-color="rgb(204,204,204)" stop-opacity="1"></stop></linearGradient><linearGradient id="__lottie_element_1614" spreadMethod="pad" gradientUnits="userSpaceOnUse" x1="-13.081000328063965" y1="-49" x2="-13.081000328063965" y2="59"><stop offset="0%" stop-color="rgb(255,171,72)"></stop><stop offset="50%" stop-color="rgb(255,176,72)"></stop><stop offset="100%" stop-color="rgb(255,182,72)"></stop></linearGradient><linearGradient id="__lottie_element_640" spreadMethod="pad" gradientUnits="userSpaceOnUse" x1="0" y1="-70" x2="0" y2="70"><stop offset="0%" stop-color="rgb(255,255,255)" stop-opacity="1"></stop><stop offset="50%" stop-color="rgb(255,255,255)" stop-opacity="0.5"></stop><stop offset="100%" stop-color="rgb(255,255,255)" stop-opacity="0"></stop></linearGradient></defs><g clip-path="url(#__lottie_element_589)"><g clip-path="url(#__lottie_element_591)" transform="matrix(1,0,0,1,6,222)" opacity="1" style="display: block;"><g transform="matrix(1,0,0,1,254,494)" opacity="1" style="display: block;"><g opacity="1" transform="matrix(2,0,0,2,0,0)"><path stroke="url(&quot;#__lottie_element_597&quot;)" stroke-linecap="butt" stroke-linejoin="miter" fill-opacity="0" stroke-miterlimit="4" stroke-opacity="1" stroke-width="3px" d=" M0,-60 C60.70899963378906,-60 110,-33.11399841308594 110,0 C110,33.11399841308594 60.70899963378906,60 0,60 C-60.70899963378906,60 -110,33.11399841308594 -110,0 C-110,-33.11399841308594 -60.70899963378906,-60 0,-60z"></path></g></g><g transform="matrix(1,0,0,1,254,295)" opacity="1" style="display: block;"><g opacity="1" transform="matrix(2,0,0,2,0,0)"><path fill="url(&quot;#__lottie_element_601&quot;)" fill-opacity="1" d=" M90,-97.5 C90,-97.5 90,97.5 90,97.5 C90,97.5 -90,97.5 -90,97.5 C-90,97.5 -90,-97.5 -90,-97.5 C-90,-97.5 90,-97.5 90,-97.5z"></path></g></g><g transform="matrix(1,0,0,1,254,484)" opacity="1" style="display: block;"><g opacity="1" transform="matrix(2,0,0,2,0,0)"><path fill="url(&quot;#__lottie_element_605&quot;)" fill-opacity="1" d=" M0,-45 C49.67100143432617,-45 90,-24.835500717163086 90,0 C90,24.835500717163086 49.67100143432617,45 0,45 C-49.67100143432617,45 -90,24.835500717163086 -90,0 C-90,-24.835500717163086 -49.67100143432617,-45 0,-45z"></path></g></g><g transform="matrix(1,0,0,1,254,100)" opacity="1" style="display: block;"><g opacity="1" transform="matrix(2,0,0,2,0,0)"><path fill="#FFFFFF" fill-opacity="1" d=" M0,-45 C49.67100143432617,-45 90,-24.835500717163086 90,0 C90,24.835500717163086 49.67100143432617,45 0,45 C-49.67100143432617,45 -90,24.835500717163086 -90,0 C-90,-24.835500717163086 -49.67100143432617,-45 0,-45z"></path></g></g><g transform="matrix(1,0,0,1,254,100)" opacity="1" style="display: block;"><g opacity="1" transform="matrix(2,0,0,2,0,0)"><path fill="url(&quot;#__lottie_element_612&quot;)" fill-opacity="1" d=" M0,-35 C44.152000427246094,-35 80,-19.316499710083008 80,0 C80,19.316499710083008 44.152000427246094,35 0,35 C-44.152000427246094,35 -80,19.316499710083008 -80,0 C-80,-19.316499710083008 -44.152000427246094,-35 0,-35z"></path></g></g><g transform="matrix(1,0,0,1,254,366)" opacity="1" style="display: none;"><g opacity="1" transform="matrix(2,0,0,2,0,0)"><path fill="url(&quot;#__lottie_element_1614&quot;)" fill-opacity="1" d=" M70,58.9541015625 C70,58.9541015625 -70,58.9541015625 -70,58.9541015625 C-70,58.9541015625 -70,59 -70,59 C-70,59 70,59 70,59 C70,59 70,58.9541015625 70,58.9541015625z"></path></g></g><g transform="matrix(0.0000011859209507747437,0,0,0.0000011859209507747437,254,484)" opacity="1" style="display: block;"><g opacity="1" transform="matrix(2,0,0,2,0,0)"><path fill="#FFB548" fill-opacity="1" d=" M0,-30 C38.632999420166016,-30 70,-16.55699920654297 70,0 C70,16.55699920654297 38.632999420166016,30 0,30 C-38.632999420166016,30 -70,16.55699920654297 -70,0 C-70,-16.55699920654297 -38.632999420166016,-30 0,-30z"></path></g></g><g transform="matrix(0.0000011859209507747437,0,0,0.0000011859209507747437,254,484)" opacity="1" style="display: block;"><g opacity="1" transform="matrix(2,0,0,2,0,0)"><path fill="#FFAA48" fill-opacity="1" d=" M0,-30 C38.632999420166016,-30 70,-16.55699920654297 70,0 C70,16.55699920654297 38.632999420166016,30 0,30 C-38.632999420166016,30 -70,16.55699920654297 -70,0 C-70,-16.55699920654297 -38.632999420166016,-30 0,-30z"></path></g></g><g clip-path="url(#__lottie_element_620)" transform="matrix(1,0,0,1,10,10)" opacity="9.45756249848273e-7" style="display: block;"><g transform="matrix(1,0,0,1,244,454)" opacity="1" style="display: block;"><g opacity="1" transform="matrix(2,0,0,2,0,0)"><path fill="#FFFFFF" fill-opacity="0.6" d=" M0,-20 C38.65999984741211,-20 70,-6.568999767303467 70,10 C70,10 70,10 70,10 C70,26.569000244140625 38.65999984741211,40 0,40 C-38.65999984741211,40 -70,26.569000244140625 -70,10 C-70,10 -70,10 -70,10 C-70,-6.568999767303467 -38.65999984741211,-20 0,-20z"></path></g></g><g transform="matrix(1,0,0,1,244,474)" opacity="1" style="display: block;"><g opacity="1" transform="matrix(2,0,0,2,0,0)"><path fill="#FFFFFF" fill-opacity="0.6" d=" M0,-30 C38.632999420166016,-30 70,-16.55699920654297 70,0 C70,16.55699920654297 38.632999420166016,30 0,30 C-38.632999420166016,30 -70,16.55699920654297 -70,0 C-70,-16.55699920654297 -38.632999420166016,-30 0,-30z"></path></g></g></g><g clip-path="url(#__lottie_element_624)" transform="matrix(1,0,0,1,10,214.18798828125)" opacity="1" style="display: block;"><g clip-path="url(#__lottie_element_634)" transform="matrix(1,0,0,1,0,0.1880035400390625)" opacity="1" style="display: block;"><g transform="matrix(1,0,0,1,65,140)" opacity="1" style="display: block;"><g opacity="1" transform="matrix(2,0,0,2,0,0)"><path fill="url(&quot;#__lottie_element_640&quot;)" fill-opacity="1" d=" M12.5,-70 C12.5,-70 -22.506000518798828,-49.775001525878906 -22.506000518798828,-49.775001525878906 C-28.69099998474121,-46.20100021362305 -32.5,-39.599998474121094 -32.5,-32.457000732421875 C-32.5,-32.457000732421875 -32.5,50.81999969482422 -32.5,50.81999969482422 C-32.5,54.608001708984375 -30.360000610351562,58.06999969482422 -26.972000122070312,59.763999938964844 C-26.972000122070312,59.763999938964844 -6.5,70 -6.5,70 C-6.5,70 -6.5,56.707000732421875 -6.5,56.707000732421875 C-6.5,56.707000732421875 -1,60.5 -1,60.5 C-1,60.5 16.731000900268555,51.23099899291992 16.731000900268555,51.23099899291992 C16.731000900268555,51.23099899291992 22.5,57 22.5,57 C22.5,57 32.5,36 32.5,36 C32.5,36 12.5,26 12.5,26 C12.5,26 -6.5,37.03200149536133 -6.5,37.03200149536133 C-6.5,37.03200149536133 -6.5,-27.5 -6.5,-27.5 C-6.5,-27.5 16.437999725341797,-45.0620002746582 16.437999725341797,-45.0620002746582 C16.437999725341797,-45.0620002746582 22.5,-39 22.5,-39 C22.5,-39 32.5,-60 32.5,-60 C32.5,-60 12.5,-70 12.5,-70z"></path></g></g><g transform="matrix(1,0,0,1,85,150.68800354003906)" opacity="1" style="display: block;"><g opacity="1" transform="matrix(2,0,0,2,0,0)"><path fill="#CCCCCC" fill-opacity="1" d=" M-17.503000259399414,-42.23099899291992 C-17.503000259399414,-42.23099899291992 22.5,-65.34400177001953 22.5,-65.34400177001953 C22.5,-65.34400177001953 22.5,-49.34400177001953 22.5,-49.34400177001953 C22.5,-49.34400177001953 -3.5209999084472656,-34.23500061035156 -3.5209999084472656,-34.23500061035156 C-6.603000164031982,-32.44499969482422 -8.5,-29.150999069213867 -8.5,-25.586999893188477 C-8.5,-25.586999893188477 -8.5,45.18199920654297 -8.5,45.18199920654297 C-8.5,46.7239990234375 -6.828999996185303,47.68600082397461 -5.495999813079834,46.9119987487793 C-5.495999813079834,46.9119987487793 22.5,30.6560001373291 22.5,30.6560001373291 C22.5,30.6560001373291 22.5,46.65599822998047 22.5,46.65599822998047 C22.5,46.65599822998047 -7.497000217437744,63.987998962402344 -7.497000217437744,63.987998962402344 C-14.163999557495117,67.83999633789062 -22.5,63.02799987792969 -22.5,55.32899856567383 C-22.5,55.32899856567383 -22.5,-33.573001861572266 -22.5,-33.573001861572266 C-22.5,-37.14500045776367 -20.594999313354492,-40.444000244140625 -17.503000259399414,-42.23099899291992z"></path></g></g></g></g></g></g></svg>