<svg xmlns="http://www.w3.org/2000/svg" viewBox="0 0 480 800" width="480" height="800" preserveAspectRatio="xMidYMid meet" style={{width: "100%", height: "100%", transform: "translate3d(0px, 0px, 0px)"}}><defs><clipPath id="__lottie_element_477"><rect width="480" height="800" x="0" y="0"></rect></clipPath><clipPath id="__lottie_element_479"><path d="M0,0 L480,0 L480,564 L0,564z"></path></clipPath><clipPath id="__lottie_element_483"><path d="M0,0 L480,0 L480,564 L0,564z"></path></clipPath><linearGradient id="__lottie_element_489" spreadMethod="pad" gradientUnits="userSpaceOnUse" x1="-22.423999786376953" y1="-148.33299255371094" x2="-22.423999786376953" y2="111.66699981689453"><stop offset="0%" stop-color="rgb(255,255,255)" stop-opacity="1"></stop><stop offset="50%" stop-color="rgb(255,255,255)" stop-opacity="0.5"></stop><stop offset="100%" stop-color="rgb(255,255,255)" stop-opacity="0"></stop></linearGradient><linearGradient id="__lottie_element_493" spreadMethod="pad" gradientUnits="userSpaceOnUse" x1="0" y1="-60" x2="0" y2="60"><stop offset="0%" stop-color="rgb(255,255,255)" stop-opacity="0"></stop><stop offset="50%" stop-color="rgb(255,255,255)" stop-opacity="0.5"></stop><stop offset="100%" stop-color="rgb(255,255,255)" stop-opacity="1"></stop></linearGradient><mask id="__lottie_element_501"><path fill="#ffffff" clip-rule="nonzero" d=" M240,0 C107.4520034790039,0 0,53.72600173950195 0,120 C0,186.2740020751953 107.4520034790039,240 240,240 C372.5480041503906,240 480,186.2740020751953 480,120 C480,53.72600173950195 372.5480041503906,0 240,0" fill-opacity="1"></path><path fill="#000000" clip-rule="nonzero" d=" M240,40 C136.1699981689453,40 52,75.81700134277344 52,120 C52,164.18299865722656 136.1699981689453,200 240,200 C343.8299865722656,200 428,164.18299865722656 428,120 C428,75.81700134277344 343.8299865722656,40 240,40" fill-opacity="1"></path></mask><linearGradient id="__lottie_element_489" spreadMethod="pad" gradientUnits="userSpaceOnUse" x1="-22.423999786376953" y1="-148.33299255371094" x2="-22.423999786376953" y2="111.66699981689453"><stop offset="0%" stop-color="rgb(255,255,255)" stop-opacity="1"></stop><stop offset="50%" stop-color="rgb(255,255,255)" stop-opacity="0.5"></stop><stop offset="100%" stop-color="rgb(255,255,255)" stop-opacity="0"></stop></linearGradient><linearGradient id="__lottie_element_493" spreadMethod="pad" gradientUnits="userSpaceOnUse" x1="0" y1="-60" x2="0" y2="60"><stop offset="0%" stop-color="rgb(255,255,255)" stop-opacity="0"></stop><stop offset="50%" stop-color="rgb(255,255,255)" stop-opacity="0.5"></stop><stop offset="100%" stop-color="rgb(255,255,255)" stop-opacity="1"></stop></linearGradient></defs><g clip-path="url(#__lottie_element_477)"><g clip-path="url(#__lottie_element_479)" transform="matrix(1,0,0,1,0,236)" opacity="1" style={{display: "block"}}><g clip-path="url(#__lottie_element_483)" transform="matrix(1,0,0,1,0,0)" opacity="1" style={{display: "block"}}><g transform="matrix(1,0,0,1,240,236.66700744628906)" opacity="1" style={{display: "block"}}><g opacity="1" transform="matrix(2,0,0,2,0,0)"><path fill="url(&quot;#__lottie_element_489&quot;)" fill-opacity="1" d=" M-60,-98.33300018310547 C-60,-98.33300018310547 -120,-58.33300018310547 -120,-58.33300018310547 C-120,-58.33300018310547 -120,111.66699981689453 -120,111.66699981689453 C-120,111.66699981689453 120,111.66699981689453 120,111.66699981689453 C120,111.66699981689453 120,-58.33300018310547 120,-58.33300018310547 C120,-58.33300018310547 60,-98.33300018310547 60,-98.33300018310547 C60,-98.33300018310547 0,-111.66699981689453 0,-111.66699981689453 C0,-111.66699981689453 -60,-98.33300018310547 -60,-98.33300018310547z"></path></g></g><g transform="matrix(1,0,0,1,240,444)" opacity="1" style={{display: "block"}}><g opacity="1" transform="matrix(2,0,0,2,0,0)"><path fill="url(&quot;#__lottie_element_493&quot;)" fill-opacity="1" d=" M0,-60 C66.22799682617188,-60 120,-33.11399841308594 120,0 C120,33.11399841308594 66.22799682617188,60 0,60 C-66.22799682617188,60 -120,33.11399841308594 -120,0 C-120,-33.11399841308594 -66.22799682617188,-60 0,-60z"></path></g></g><g transform="matrix(1,0,0,1,239.99899291992188,444)" opacity="1" style={{display: "block"}}><g opacity="1" transform="matrix(2,0,0,2,0,0)"><path fill="#FFAA48" fill-opacity="1" d=" M0,-40 C51.51076126098633,-40 93.33350372314453,-22.076000213623047 93.33350372314453,0 C93.33350372314453,22.076000213623047 51.51076126098633,40 0,40 C-51.51076126098633,40 -93.33350372314453,22.076000213623047 -93.33350372314453,0 C-93.33350372314453,-22.076000213623047 -51.51076126098633,-40 0,-40z"></path></g></g><g transform="matrix(1,0,0,1,240,324)" opacity="1" style={{display: "block"}}><g opacity="1" transform="matrix(2,0,0,2,0,0)"><path fill="#FFAA48" fill-opacity="1" d=" M93.33300018310547,-60 C93.33300018310547,-60 -93.33300018310547,-60 -93.33300018310547,-60 C-93.33300018310547,-60 -93.33300018310547,60 -93.33300018310547,60 C-93.33300018310547,60 93.33300018310547,60 93.33300018310547,60 C93.33300018310547,60 93.33300018310547,-60 93.33300018310547,-60z"></path></g></g><g transform="matrix(1,0,0,1,239.99899291992188,204)" opacity="1" style={{display: "block"}}><g opacity="1" transform="matrix(2,0,0,2,0,0)"><path fill="#FFB648" fill-opacity="1" d=" M0,-40 C51.51076126098633,-40 93.33350372314453,-22.076000213623047 93.33350372314453,0 C93.33350372314453,22.076000213623047 51.51076126098633,40 0,40 C-51.51076126098633,40 -93.33350372314453,22.076000213623047 -93.33350372314453,0 C-93.33350372314453,-22.076000213623047 -51.51076126098633,-40 0,-40z"></path></g></g><g mask="url(#__lottie_element_501)" transform="matrix(1,0,0,1,0,0)" opacity="1" style={{display: "block"}}><rect width="480" height="240" fill="#FFFFFF"></rect></g></g></g></g></svg>